<svg xmlns="http://www.w3.org/2000/svg" viewBox="0 0 215 215" fill="#80bc00" xmlns:v="https://vecta.io/nano"><path d="M106.62 69.5c-6.56-.78-13.68 1.99-17.41 4.29-20.8-11.57-48.75 4.38-49.03 14.84-.01.5-.23 3.59 1.03 5.76l3.14.01c.01-.01 0-.07.01-.08C34.08 80.38 68.69 61.61 88.1 74.45c-17.4 10.89-23.87 31.77-43.58 40.77-8.24-8.5-9.91-15.47-18.25-18.52-4.99-1.94-11.63.58-14.38 5.12-5.79 9.57 4.37 24.86 32.68 14.16 4.97 4.9 13.78 7.37 19.3 5.48.89-.3.57-1.1-.05-.84-5.88 2.45-13.55.17-18.79-4.85 10.99-5.24 18.93-11.89 27.27-21.71 1.06.52 3 1.5 5.37 1.42 10.18 4.55-12.82 16.05-5.72 23.06 5.95 5.41 16.4-6.9 19.92-9.9 1.18-1 1.11-1.95-.03-1.22-1.92 1.36-12.98 14.02-17.35 11.48-7.11-4.82 16.57-16.62 5.19-23.03 13.9.23 23.48-13.17 10.05-21.75 4.61-3.4 12.13-5.62 17.52-3.91.74.23 1.39.58 1.69.7.47.19.64-.3.2-.59-.25-.19-1.26-.64-2.52-.82h0zm-18.01 5.41c11.07 8.74-.66 19.3-10.28 20.01-2.26-1.26-5.18-1.32-5.6-1.34 5.25-5.36 8.86-12.56 15.88-18.67h0zM44.07 115.4c-20.91 8.83-30.23.15-30.46-7.75.1-6.27 6.3-9.52 12.09-8.88 7.92.66 12.01 10.92 18.37 16.63h0zm49.24-2.94c13.04.54 26.45-8.08 17.67-12.84-6.93-3.1-14.22 3.8-18.8 7.54-3.13 2.39-2.34 3.4-.06 1.27-7.34 9.32.11 13.3 7.94 11.05 5.97-1.62 11.93-6.55 15.89-10.93.17-.24.2-.46.11-.63-.11-.11-.26-.13-.44-.07-.63.33-1.31.98-1.96 1.62-1.36 1.6-7 7.69-14.58 9.56-6.16 1.16-7.6-2.22-5.77-6.57h0zm.24-.51c1.24-4.84 13.18-14.92 17.38-11.97 4.06 2.67-9.27 13.03-17.38 11.97h0zm27.7 13.53c-4.11 6.53-33.26 47.76-40.53 34.73-3.48-11.84 31.59-29.88 40.53-34.73h0zm14.17-25.22c3.01 1.85-1.12 7.13-2.68 8.8-2.69 3.12-7.1 7.57-10.81 9.23-9.03 4.04-8.7-3.72-1.88-10.04 4.67-4.58 11.36-9.95 15.37-7.99h0zm-19.71 7.33c-.76.66-1.42 1.08-2.04 1.88-1.01 1.44.64 1.04 1.47-.09a26.54 26.54 0 0 1 .59-.57l.11.11c-4.06 3.38-4.83 9.33-.88 10.62 4.89 1.79 11.36-2.68 14.76-6.4l.15.06-7.62 10.39-5.3 3.23-4.99 2.97-5.47 3.3c-1.98 1.2-4.21 2.6-6.74 4.22a187.18 187.18 0 0 0-5.56 3.78c-1.96 1.36-3.9 2.82-5.8 4.33-1.9 1.53-3.66 3.06-5.25 4.63-1.61 1.55-2.92 3.08-3.93 4.59-1.03 1.49-1.65 2.91-1.85 4.24-.17 1.24 0 2.2.48 2.88 2.66 3.65 9.33 1.09 12.37-.54 16.31-8.62 27.4-24.72 37.89-39.38 6.78-4.04 12.35-7.86 18.79-12.38.4-.4.84-.61 1.15-1.12.5-.89-.94-.39-1.38.08-3.13 2.81-11.3 8.02-17.68 11.69 1.49-2.84 12.37-17.18 15.51-20.19.28-.7-3.61-.46-3.86-.12-3.29 3.62-3.99 4.93-4.53 5.55 1.49-2.35 1.28-4.57-.88-5.59-5.72-2.37-14.38 3.33-19.51 7.83h0zm55.52-22.6c-1.07-.02-1.97.13-2.75.42-.78.31-1.33.87-1.68 1.68-.28.74-.39 1.48-.35 2.18.02.7.18 1.24.46 1.59.39 0 .9-.13 1.55-.39.65-.24 1.29-.59 1.96-1.03.66-.46 1.24-.98 1.7-1.57.65-.85.85-1.53.65-2.07-.2-.52-.68-.79-1.42-.81h-.12 0zm-16.04 18.37c-2.77 2.85-14.42 12.56-7.46 16.26 5.09 2.48 13.44-6.5 17.44-10.21.13-.12.31-.29.53-.53a5.22 5.22 0 0 0 .59-.7c.16-.24.18-.41.09-.53-.15-.17-.37-.15-.63.04-2.73 2.78-12.1 13.46-16.39 10.79-3.86-3.32 10.66-14.51 13.06-18.33.03-.61-3.95-.43-4.61.07-3.11 1.73-7.33 5.38-11.28 8.32-.18.16-1.69 1.31-1.24 1.7.35.21 1.37-.6 1.68-.86.56-.5 1.21-.92 1.86-1.45l2.2-1.79c.57-.46 1.16-.9 1.81-1.38.63-.46 1.53-1.14 2.07-1.49.37-.29.42.01.28.09h0zm15.34 1.38c-1.46 2.27-9.88 10.05-6.55 14.16 7.91 8.02 23.95-14.42 28.42-18.19.28-.23.24-.57.13-.68-.19-.13-.44-.18-.81.13-1.8 1.03-17.4 23.77-24.37 18.71-6.04-3.94 32.13-40.52 37.32-48.04 0-.18-.15-.35-.42-.52-.28-.17-.68-.24-1.24-.26-.72 0-1.38.17-2.03.48l-28.5 30.82c-2.37 2.59-5.69 5.15-8.14 7.73-.11.17-.2.26-.17.43.11.17.26.22.44.17s.44-.22.77-.5c1.66-1.51 3.33-3.14 5.08-4.48l.07.04h0z"/><path d="M109.88 72.5c-.07.49-.22.92-.55 1.49-.52.89-1.16 1.57-1.99 1.95-.72.35-1.52.22-1.73.09-.06-.05-.02-.19.15-.16.2.09.79.17 1.52-.23 1.27-.7 2.7-2.76 1.98-4.2-.84-1.82-5.15-.63-7.53 2.01-1.71 1.67-3.91 6.08-1.6 7.89 2.26 1.71 6.24-.43 7.56-2.38l.21-.28.3-.5c.07-.12.11-.27.17-.39.02-.05.06-.07.11-.09l.15.07c-.13 1.8-5.8 7.11-9.58 4.59-2.96-2.81.08-7.24 2.24-9.24 1.41-1.3 3.23-2.62 5.13-3.07 1.94-.47 3.79.15 3.46 2.45h0zm8.26 6.67v.11l-.06.13-.09.09-.36.46-.06.11-.26.26-.32.35-.32.35-.19.24-.43.41-.55.5c-.15.13-.26.23-.33.28-.47.35-.84.52-1.12.52-.32.03-.56-.05-.75-.24s-.28-.46-.28-.81v-.44l.15-.52-.32.33-.4.39-.32.33c-.52.47-.97.76-1.35.89-.15.04-.3.07-.45.07-.35 0-.64-.11-.85-.34-.22-.23-.33-.54-.33-.95 0-.73.22-1.43.66-2.11.51-.8 1.31-1.56 2.39-2.29.34-.22.68-.41 1.03-.57.34-.16.62-.26.83-.29.21-.04.36-.05.45-.05.37 0 .65.09.84.26a.7.7 0 0 1 .24.63l.51-.78h1.43l-2.91 4.36-.17.31c-.07.14-.13.28-.18.4s-.07.26-.07.4c0 .29.13.45.38.48.09 0 .28-.08.58-.24.1-.06.2-.14.32-.24.03-.01.15-.13.36-.35l.43-.44.47-.5.08-.09.21-.24.34-.39.45-.61.13-.17.11-.04.08.04h0zm-2.97-1.67a1.61 1.61 0 0 0 .02-.26c0-.41-.21-.61-.63-.61-.27 0-.56.12-.88.36s-.8.72-1.45 1.43l-.34.39-.17.2-.38.57a7.1 7.1 0 0 0-.43.64c-.15.24-.23.38-.25.43-.11.23-.19.43-.23.6s-.05.3-.04.4c.04.42.27.63.67.63.15 0 .31-.03.45-.09.15-.06.34-.19.57-.38.23-.2.55-.52.94-.97l.3-.35c.16-.2.26-.33.3-.39.14-.19.23-.32.26-.39l.38-.59.24-.35.58-.9c.05-.14.09-.26.09-.37h0zm15.59-6.61a1.18 1.18 0 0 1-.73.7c-.05.01-.11.01-.17 0l.02-.09.06-.22c.03-.07.01-.2-.04-.38s-.22-.27-.49-.27c-.17 0-.38.05-.62.14-.24.1-.51.27-.79.51-.28.25-.63.62-1.03 1.11-.19.23-.33.43-.45.59-.34.47-.75 1.07-1.22 1.81l-.64 1.02-.38.68h1.99l-.13.28h-2.05l-.8 1.24-.69 1.07-.37.62-.38.64-.24.33-1.18 1.78c-.96 1.41-1.74 2.4-2.35 2.99-.61.58-1.35 1.04-2.22 1.38a8.51 8.51 0 0 1-.92.28c-.28.07-.53.11-.73.11h-.4-.34-.24c-.12 0-.23-.02-.36-.05-.13-.04-.27-.09-.43-.17-.3-.18-.45-.41-.45-.69 0-.19.09-.38.26-.56l.26-.16a1.48 1.48 0 0 1 .28-.04.41.41 0 0 1 .41.27c0 .13-.01.21-.02.24l-.11.11c-.08.09-.13.19-.13.31 0 .17.11.32.32.42.19.12.45.18.79.18a2.92 2.92 0 0 0 1.31-.33c.45-.22.92-.59 1.42-1.1a6.53 6.53 0 0 0 .58-.72c.17-.25.47-.71.89-1.38l.32-.5.89-1.45 1.7-2.54.43-.66 1-1.59h-1.37l.13-.28h1.41l.58-.89c.66-.99 1.22-1.76 1.69-2.32s.93-1.01 1.39-1.36c.9-.71 1.72-1.18 2.46-1.42.4-.13.76-.2 1.07-.2a3.73 3.73 0 0 1 .57.04c.19.03.29.15.29.37-.01.01-.02.06-.05.15h0zm1.72 8.18v.17l-1.63 1.9-.37.35c-.47.41-.87.7-1.2.87s-.72.3-1.16.39a2.53 2.53 0 0 1-.43.04c-.08 0-.27-.02-.56-.05-.28-.04-.54-.2-.76-.48s-.34-.64-.34-1.06c0-.19.01-.33.02-.44.01-.1.06-.25.15-.46a6.36 6.36 0 0 1 .91-1.52c.41-.52.9-.99 1.47-1.42.58-.43 1.1-.73 1.57-.91.58-.22 1.05-.33 1.39-.33.09 0 .27.03.53.08.27.05.41.24.41.58 0 .2-.07.42-.21.65a4.26 4.26 0 0 1-.64.63c-.35.28-.81.55-1.35.83a8.7 8.7 0 0 1-.76.33c-.26.1-.5.18-.72.24l-.8.26c-.03.01-.11.19-.26.52-.19.41-.29.68-.32.81s-.04.23-.04.31c0 .57.38.85 1.13.85.24 0 .51-.07.82-.22a4.4 4.4 0 0 0 .91-.59l.43-.37.19-.22.94-1.07.45-.54.17-.26.06.04v.09h0zm-.87-1.88a.64.64 0 0 0 .06-.22c.02-.07.02-.14.02-.2 0-.2-.06-.32-.18-.36s-.19-.05-.22-.05c-.14 0-.27.03-.37.09-.11.06-.25.16-.42.31a17.88 17.88 0 0 0-.66.59 28.31 28.31 0 0 0-.58.57c-.3.31-.6.68-.9 1.13l-.28.39.3-.04.23-.04.21-.09c.37-.13.69-.26.95-.39a4.47 4.47 0 0 0 .79-.52 6.54 6.54 0 0 0 .64-.59c.18-.19.31-.38.41-.58h0zm1.99-5.41c0 .36-.15.75-.45 1.14-.3.4-.77.79-1.41 1.17-.82.49-1.35.74-1.56.74-.06 0-.08-.04-.08-.13a7.49 7.49 0 0 0 .89-.63c.33-.26.63-.59.9-.98.07-.1.29-.52.66-1.24.24-.47.43-.7.58-.7.19 0 .31.05.37.14.06.1.1.26.1.49h0z"/></svg>