<svg xmlns="http://www.w3.org/2000/svg" viewBox="0 0 215 215" xmlns:v="https://vecta.io/nano"><path d="M32 166.75l.49.01.72.01.96-.01 1.19-.01-.28-.71c-.04-.12-.15-.39-.33-.83l-1.04-2.48-1.71 4.02h0zm-2.98 5.04l2.71-6.07 2.24-5.21h.31l2.28 5.66 2.36 5.61-.4-.06-.38-.02c-.13 0-.25.01-.39.02-.13.01-.28.03-.43.06l-.62-1.81-.74-1.87-.27-.65-.75-.02-1.21-.01-1.24.01-.75.02-.78 1.93-.87 2.4a1.31 1.31 0 0 0-.27-.06l-.27-.02c-.08 0-.16.01-.25.02l-.28.07h0zm19.29 0l.07-3.9.02-3.7v-2.71h-.43l-1.7.05c-.49.03-.91.08-1.25.15l.02-.26c.01-.07.01-.13.01-.19l-.01-.21c-.01-.08-.01-.18-.02-.3l1.87.03 1.96.01 2.08-.01 2.18-.03c-.01.05-.02.1-.02.17-.01.06-.01.16-.01.3l.01.3c.01.06.01.13.02.19-.36-.07-.78-.12-1.24-.15l-1.6-.05-.47.01-.06 1.56-.02 2.07.02 3.22.07 3.46c-.12-.02-.24-.03-.36-.04s-.24-.01-.37-.01l-.38.01c-.12 0-.25.02-.39.03h0zm12.27 0l.67-3.88.98-7.39h.27l2.48 4.96 2.02 3.84 2.2-4.02 2.53-4.77h.21l.51 4.75.75 6.52c-.13-.03-.25-.05-.37-.06l-.35-.02c-.11 0-.23.01-.34.02a2.83 2.83 0 0 0-.37.06l-.43-5-.41-3.08-2.58 4.67-1.53 3.4h-.22c-.12-.42-.3-.89-.53-1.41s-.57-1.18-1-1.98l-2.49-4.67-.57 4.7-.22 3.37a1.77 1.77 0 0 0-.3-.06l-.29-.02c-.09 0-.19.01-.3.02-.08.01-.2.02-.32.05h0zm26.63-.39c1.37 0 2.43-.45 3.18-1.33.74-.89 1.11-2.16 1.11-3.8 0-1.68-.37-2.95-1.09-3.82-.73-.87-1.8-1.3-3.2-1.3-1.38 0-2.45.45-3.19 1.35-.75.9-1.12 2.18-1.12 3.83 0 1.64.37 2.89 1.11 3.76.75.88 1.82 1.31 3.2 1.31h0zm0 .62c-1.83 0-3.27-.51-4.33-1.54-1.05-1.03-1.58-2.42-1.58-4.19 0-1.75.54-3.14 1.61-4.19 1.07-1.04 2.51-1.57 4.3-1.57 1.81 0 3.25.52 4.3 1.55s1.58 2.44 1.58 4.2c0 1.71-.54 3.1-1.62 4.15-1.07 1.06-2.49 1.59-4.26 1.59h0zm13.82-.88l.23-.86a6.58 6.58 0 0 0 .12-.86c.23.61.58 1.08 1.05 1.42s1 .51 1.59.51c.69 0 1.25-.22 1.67-.65s.63-1.01.63-1.73c0-.5-.12-.9-.36-1.21s-.66-.58-1.26-.83l-1.3-.55c-.74-.31-1.28-.68-1.62-1.11s-.51-.97-.51-1.61c0-.92.31-1.67.94-2.25.62-.58 1.44-.87 2.44-.87.43 0 .85.05 1.24.15.4.1.79.25 1.19.45a5.19 5.19 0 0 0-.23.57c-.08.2-.15.43-.22.68-.28-.42-.61-.73-.98-.94s-.78-.31-1.24-.31c-.59 0-1.06.18-1.4.54-.35.36-.52.85-.52 1.47 0 .45.12.83.37 1.14.25.3.67.58 1.25.84l1.3.57c.76.33 1.3.71 1.63 1.15s.49.99.49 1.67c0 1.05-.35 1.9-1.05 2.54s-1.62.96-2.77.96c-.53 0-1.02-.07-1.47-.22-.45-.17-.85-.38-1.21-.66h0zm16.55-5.01c.08.01.17.01.27.01h.45c1.15 0 2.01-.21 2.58-.62.57-.42.86-1.05.86-1.88 0-.84-.24-1.44-.72-1.81s-1.27-.55-2.37-.55c-.21 0-.52.02-.94.05l-.04.01-.05 1.63-.05 1.71.01 1.45h0zm-1.38 5.66l.07-2.72.03-2.8-.03-2.87-.08-2.69.4.05.39.02 1.26-.06 1.41-.05c1.14 0 2.02.25 2.65.74.62.49.93 1.19.93 2.09 0 1.05-.38 1.86-1.15 2.42-.77.57-1.86.85-3.29.85-.15 0-.32 0-.53-.01l-.7-.04-.01 2.32.02 1.18.07 1.56-.41-.05c-.09-.01-.18-.01-.26-.01a5.1 5.1 0 0 0-.38.02l-.39.05h0zm15.41 0l.11-2.57.03-3.39-.03-3.16-.12-1.95.39.05.4.02c.14 0 .26-.01.39-.02s.25-.02.36-.05c-.04.29-.07.69-.09 1.19l-.02 2.92v.63l1.26.01h2.05 2.04l1.26-.01v-.63l-.03-2.16-.11-1.96.35.05.41.02.42-.02a2.32 2.32 0 0 0 .38-.05l-.11 2.15-.03 2.95.03 3.04.11 2.92-.39-.05-.42-.02-.4.02c-.13.01-.24.02-.35.05l.11-2.23.03-2.61v-.76l-1.65-.05-1.65-.01-1.65.01-1.66.04v.77l.02 3.49.09 1.35-.39-.05-.42-.02a5.09 5.09 0 0 0-.39.02c-.11.04-.23.05-.33.07h0zm18.84 0l.11-2.38.03-3.27-.03-3.07-.11-2.34.74.02 1.24.01 1.95-.01 1.73-.02-.01.23c-.01.1-.01.19-.01.25l.01.23.01.24-1.87-.12-1.94-.04h-.38l-.01 1.8v1.62.65h.28l1.61-.03 1.88-.09-.02.29-.01.21c0 .06 0 .12.01.19s.01.16.02.26c-.26-.05-.58-.08-.96-.1l-2.07-.03h-.74v.77 2.25l.01 1.7h.4l1.68-.05 2.16-.13-.01.24c-.01.11-.01.19-.01.25l.01.24.01.24-1.02-.02-1.73-.01-1.81.01c-.41-.01-.79 0-1.15.01h0zm15.97-5.92c.07.01.14.02.22.02h.31c1.2 0 2.1-.2 2.69-.59s.89-.99.89-1.79c0-.73-.23-1.27-.69-1.64s-1.15-.55-2.06-.55a21.38 21.38 0 0 0-.98.05l-.27.01-.07.77c-.02.27-.02.57-.02.89v.71 2.12h-.02zm-1.41 5.92l.07-1.95.02-3.57-.02-3.37-.08-2.18a.71.71 0 0 0 .16.01l.58.02 1.15-.03 1.41-.03c1.21 0 2.11.22 2.71.65s.89 1.09.89 1.97c0 .76-.28 1.41-.83 1.93-.56.52-1.35.88-2.37 1.07l4.05 5.17.24.31-.5-.06-.46-.02-.45.02a4.49 4.49 0 0 0-.48.06l-1.1-1.59-.9-1.23-1.75-2.27c-.09-.13-.18-.22-.28-.27a.67.67 0 0 0-.35-.08c-.06 0-.15.01-.26.02-.02.01-.03.01-.04.01v2.97l.02 1.15.06 1.29a3.1 3.1 0 0 0-.39-.06l-.35-.02a4.34 4.34 0 0 0-.36.02l-.39.06h0zm16.06 0l.11-2.38.03-3.27-.03-3.07-.11-2.34.74.02 1.24.01 1.95-.01 1.73-.02-.01.23c-.01.1-.01.19-.01.25l.01.23.01.24-1.87-.12-1.94-.04h-.38l-.01 1.8v1.62.65h.28l1.61-.03 1.88-.09-.02.29c-.01.07-.01.14-.01.21 0 .06 0 .12.01.19s.01.16.02.26c-.26-.05-.58-.08-.96-.1l-2.07-.03h-.74v.77 2.25l.01 1.7h.4l1.68-.05 2.16-.13-.01.24c-.01.11-.01.19-.01.25l.01.24.01.24-1.02-.02-1.73-.01-1.81.01c-.4-.01-.78 0-1.15.01h0z" fill="#fff"/><path d="M70.75 134.86c3.29 0 6.14 1.53 7.53 3.75l-4.32 1.35c-.64-1.19-1.88-2-3.29-2-2.07 0-3.76 1.75-3.76 3.89s1.69 3.89 3.76 3.89c1.45 0 2.71-.86 3.34-2.11l4.24 1.12c-1.4 2.2-4.24 3.71-7.51 3.71-4.64 0-8.43-3.05-8.43-6.8.01-3.75 3.79-6.8 8.44-6.8h0zm16.96 0c4.64 0 8.43 3.05 8.43 6.8s-3.79 6.8-8.43 6.8-8.43-3.05-8.43-6.8 3.78-6.8 8.43-6.8h0zm-.08 3.09c2.07 0 3.76 1.75 3.76 3.89s-1.69 3.89-3.76 3.89-3.76-1.75-3.76-3.89 1.69-3.89 3.76-3.89h0zm10.12-2.68h4.48v4.41h5.54v-4.41h4.48v12.55h-4.48v-4.67h-5.54v4.67h-4.48v-12.55h0zm16.95 0h4.29v12.55h-4.29v-12.55h0zm6.77 0h2.91 1.38 6.2v.02c.12-.02.25-.02.37-.02 1.56 0 2.83 1.25 2.83 2.78 0 1.44-1.11 2.62-2.53 2.77 1.72.25 3.06 1.72 3.06 3.48 0 1.93-1.6 3.51-3.57 3.52h0-.01-6.35-2.5-1.79v-12.55h0zm4.29 2.74v2.1h3.69c.56-.07 1.25-.4 1.25-1.06 0-.54-.43-.99-.97-1.03h0-.07-.15l-3.75-.01h0zm0 4.57v2.21h2.81 1.5.07 0c.58-.04 1.05-.52 1.05-1.1s-.46-1.06-1.05-1.1h0-.07H129h-3.24v-.01zm15.86-7.31l-5.44 12.55h4.59l.77-2.05h5.3l.81 2.05h4.48l-5.55-12.55h-4.96 0zm1.02 7.57l1.48-3.94 1.55 3.94h-3.03 0zM63 43.36h2.99v2.78H63v-2.78h0zm6.21 0h2.99v2.78h-2.99v-2.78h0zm6.21 0h2.99v2.78h-2.99v-2.78h0zm6.21 0h2.99v2.78h-2.99v-2.78h0zm6.21 0h2.99v2.78h-2.99v-2.78h0zm6.21 0h2.99v2.78h-2.99v-2.78h0zm6.21 0h2.99v2.78h-2.99v-2.78h0zm6.21 0h2.99v2.78h-2.99v-2.78h0zm6.21 0h2.99v2.78h-2.99v-2.78h0zm6.21 0h2.99v2.78h-2.99v-2.78h0zm6.2 0h2.99v2.78h-2.99v-2.78h0zm6.21 0h2.99v2.78h-2.99v-2.78h0zm6.21 0h2.99v2.78h-2.99v-2.78h0zm6.21 0h2.99v2.78h-2.99v-2.78h0zm6.21 0h2.99v2.78h-2.99v-2.78h0zM63 49.47h2.99v2.78H63v-2.78h0zm6.21 0h2.99v2.78h-2.99v-2.78h0zm6.21 0h2.99v2.78h-2.99v-2.78h0zm6.21 0h2.99v2.78h-2.99v-2.78h0zm6.21 0h2.99v2.78h-2.99v-2.78h0zm6.21 0h2.99v2.78h-2.99v-2.78h0zm6.21 0h2.99v2.78h-2.99v-2.78h0zm6.21 0h2.99v2.78h-2.99v-2.78h0zm6.21 0h2.99v2.78h-2.99v-2.78h0zm6.21 0h2.99v2.78h-2.99v-2.78h0zm6.2 0h2.99v2.78h-2.99v-2.78h0zm6.21 0h2.99v2.78h-2.99v-2.78h0zm6.21 0h2.99v2.78h-2.99v-2.78h0zm6.21 0h2.99v2.78h-2.99v-2.78h0zm6.21 0h2.99v2.78h-2.99v-2.78h0zM63 55.57h2.99v2.78H63v-2.78h0zm6.21 0h2.99v2.78h-2.99v-2.78h0zm6.21 0h2.99v2.78h-2.99v-2.78h0zm6.21 0h2.99v2.78h-2.99v-2.78h0zm6.21 0h2.99v2.78h-2.99v-2.78h0zm6.21 0h2.99v2.78h-2.99v-2.78h0zm6.21 0h2.99v2.78h-2.99v-2.78h0zm6.21 0h2.99v2.78h-2.99v-2.78h0zm6.21 0h2.99v2.78h-2.99v-2.78h0zm6.21 0h2.99v2.78h-2.99v-2.78h0zm6.2 0h2.99v2.78h-2.99v-2.78h0zm6.21 0h2.99v2.78h-2.99v-2.78h0zm6.21 0h2.99v2.78h-2.99v-2.78h0zm6.21 0h2.99v2.78h-2.99v-2.78h0zm6.21 0h2.99v2.78h-2.99v-2.78h0zM63 61.68h2.99v2.78H63v-2.78h0zm6.21 0h2.99v2.78h-2.99v-2.78h0zm6.21 0h2.99v2.78h-2.99v-2.78h0zm6.21 0h2.99v2.78h-2.99v-2.78h0zm6.21 0h2.99v2.78h-2.99v-2.78h0zm6.21 0h2.99v2.78h-2.99v-2.78h0zm6.21 0h2.99v2.78h-2.99v-2.78h0zm6.21 0h2.99v2.78h-2.99v-2.78h0zm6.21 0h2.99v2.78h-2.99v-2.78h0zm6.21 0h2.99v2.78h-2.99v-2.78h0zm6.2 0h2.99v2.78h-2.99v-2.78h0zm6.21 0h2.99v2.78h-2.99v-2.78h0zm6.21 0h2.99v2.78h-2.99v-2.78h0zm6.21 0h2.99v2.78h-2.99v-2.78h0zm6.21 0h2.99v2.78h-2.99v-2.78h0zM63 67.79h2.99v2.78H63v-2.78h0zm6.21 0h2.99v2.78h-2.99v-2.78h0zm6.21 0h2.99v2.78h-2.99v-2.78h0zm6.21 0h2.99v2.78h-2.99v-2.78h0zm6.21 0h2.99v2.78h-2.99v-2.78h0zm6.21 0h2.99v2.78h-2.99v-2.78h0zm6.21 0h2.99v2.78h-2.99v-2.78h0zm6.21 0h2.99v2.78h-2.99v-2.78h0zm6.21 0h2.99v2.78h-2.99v-2.78h0zm6.21 0h2.99v2.78h-2.99v-2.78h0zm6.2 0h2.99v2.78h-2.99v-2.78h0zm6.21 0h2.99v2.78h-2.99v-2.78h0zm6.21 0h2.99v2.78h-2.99v-2.78h0zm6.21 0h2.99v2.78h-2.99v-2.78h0zm6.21 0h2.99v2.78h-2.99v-2.78h0zM63 73.89h2.99v2.78H63v-2.78h0zm6.21 0h2.99v2.78h-2.99v-2.78h0zm6.21 0h2.99v2.78h-2.99v-2.78h0zm6.21 0h2.99v2.78h-2.99v-2.78h0zm6.21 0h2.99v2.78h-2.99v-2.78h0zm6.21 0h2.99v2.78h-2.99v-2.78h0zm6.21 0h2.99v2.78h-2.99v-2.78h0zm6.21 0h2.99v2.78h-2.99v-2.78h0zm6.21 0h2.99v2.78h-2.99v-2.78h0zm6.21 0h2.99v2.78h-2.99v-2.78h0zm6.2 0h2.99v2.78h-2.99v-2.78h0zm6.21 0h2.99v2.78h-2.99v-2.78h0zm6.21 0h2.99v2.78h-2.99v-2.78h0zm6.21 0h2.99v2.78h-2.99v-2.78h0zm6.21 0h2.99v2.78h-2.99v-2.78h0zM63 80h2.99v2.78H63V80h0zm6.21 0h2.99v2.78h-2.99V80h0zm6.21 0h2.99v2.78h-2.99V80h0zm6.21 0h2.99v2.78h-2.99V80h0zm6.21 0h2.99v2.78h-2.99V80h0zm6.21 0h2.99v2.78h-2.99V80h0zm6.21 0h2.99v2.78h-2.99V80h0zm6.21 0h2.99v2.78h-2.99V80h0zm6.21 0h2.99v2.78h-2.99V80h0zm6.21 0h2.99v2.78h-2.99V80h0zm6.2 0h2.99v2.78h-2.99V80h0zm6.21 0h2.99v2.78h-2.99V80h0zm6.21 0h2.99v2.78h-2.99V80h0zm6.21 0h2.99v2.78h-2.99V80h0zm6.21 0h2.99v2.78h-2.99V80h0zM63 86.1h2.99v2.78H63V86.1h0zm6.21 0h2.99v2.78h-2.99V86.1h0zm6.21 0h2.99v2.78h-2.99V86.1h0zm6.21 0h2.99v2.78h-2.99V86.1h0zm6.21 0h2.99v2.78h-2.99V86.1h0zm6.21 0h2.99v2.78h-2.99V86.1h0zm6.21 0h2.99v2.78h-2.99V86.1h0zm6.21 0h2.99v2.78h-2.99V86.1h0zm6.21 0h2.99v2.78h-2.99V86.1h0zm6.21 0h2.99v2.78h-2.99V86.1h0zm6.2 0h2.99v2.78h-2.99V86.1h0zm6.21 0h2.99v2.78h-2.99V86.1h0zm6.21 0h2.99v2.78h-2.99V86.1h0zm6.21 0h2.99v2.78h-2.99V86.1h0zm6.21 0h2.99v2.78h-2.99V86.1h0zM63 92.21h2.99v2.78H63v-2.78h0zm6.21 0h2.99v2.78h-2.99v-2.78h0zm6.21 0h2.99v2.78h-2.99v-2.78h0zm6.21 0h2.99v2.78h-2.99v-2.78h0zm6.21 0h2.99v2.78h-2.99v-2.78h0zm6.21 0h2.99v2.78h-2.99v-2.78h0zm6.21 0h2.99v2.78h-2.99v-2.78h0zm6.21 0h2.99v2.78h-2.99v-2.78h0zm6.21 0h2.99v2.78h-2.99v-2.78h0zm6.21 0h2.99v2.78h-2.99v-2.78h0zm6.2 0h2.99v2.78h-2.99v-2.78h0zm6.21 0h2.99v2.78h-2.99v-2.78h0zm6.21 0h2.99v2.78h-2.99v-2.78h0zm6.21 0h2.99v2.78h-2.99v-2.78h0zm6.21 0h2.99v2.78h-2.99v-2.78h0zM63 98.32h2.99v2.78H63v-2.78h0zm6.21 0h2.99v2.78h-2.99v-2.78h0zm6.21 0h2.99v2.78h-2.99v-2.78h0zm6.21 0h2.99v2.78h-2.99v-2.78h0zm6.21 0h2.99v2.78h-2.99v-2.78h0zm6.21 0h2.99v2.78h-2.99v-2.78h0zm6.21 0h2.99v2.78h-2.99v-2.78h0zm6.21 0h2.99v2.78h-2.99v-2.78h0zm6.21 0h2.99v2.78h-2.99v-2.78h0zm6.21 0h2.99v2.78h-2.99v-2.78h0zm6.2 0h2.99v2.78h-2.99v-2.78h0zm6.21 0h2.99v2.78h-2.99v-2.78h0zm6.21 0h2.99v2.78h-2.99v-2.78h0zm6.21 0h2.99v2.78h-2.99v-2.78h0zm6.21 0h2.99v2.78h-2.99v-2.78h0zM63 104.42h2.99v2.78H63v-2.78h0zm6.21 0h2.99v2.78h-2.99v-2.78h0zm6.21 0h2.99v2.78h-2.99v-2.78h0zm6.21 0h2.99v2.78h-2.99v-2.78h0zm6.21 0h2.99v2.78h-2.99v-2.78h0zm6.21 0h2.99v2.78h-2.99v-2.78h0zm6.21 0h2.99v2.78h-2.99v-2.78h0zm6.21 0h2.99v2.78h-2.99v-2.78h0zm6.21 0h2.99v2.78h-2.99v-2.78h0zm6.21 0h2.99v2.78h-2.99v-2.78h0zm6.2 0h2.99v2.78h-2.99v-2.78h0zm6.21 0h2.99v2.78h-2.99v-2.78h0zm6.21 0h2.99v2.78h-2.99v-2.78h0zm6.21 0h2.99v2.78h-2.99v-2.78h0zm6.21 0h2.99v2.78h-2.99v-2.78h0zM63 110.53h2.99v2.78H63v-2.78h0zm6.21 0h2.99v2.78h-2.99v-2.78h0zm6.21 0h2.99v2.78h-2.99v-2.78h0zm6.21 0h2.99v2.78h-2.99v-2.78h0zm6.21 0h2.99v2.78h-2.99v-2.78h0zm6.21 0h2.99v2.78h-2.99v-2.78h0zm6.21 0h2.99v2.78h-2.99v-2.78h0zm6.21 0h2.99v2.78h-2.99v-2.78h0zm6.21 0h2.99v2.78h-2.99v-2.78h0zm6.21 0h2.99v2.78h-2.99v-2.78h0zm6.2 0h2.99v2.78h-2.99v-2.78h0zm6.21 0h2.99v2.78h-2.99v-2.78h0zm6.21 0h2.99v2.78h-2.99v-2.78h0zm6.21 0h2.99v2.78h-2.99v-2.78h0zm6.21 0h2.99v2.78h-2.99v-2.78h0zM63 116.64h2.99v2.78H63v-2.78h0zm6.21 0h2.99v2.78h-2.99v-2.78h0zm6.21 0h2.99v2.78h-2.99v-2.78h0zm6.21 0h2.99v2.78h-2.99v-2.78h0zm6.21 0h2.99v2.78h-2.99v-2.78h0zm6.21 0h2.99v2.78h-2.99v-2.78h0zm6.21 0h2.99v2.78h-2.99v-2.78h0zm6.21 0h2.99v2.78h-2.99v-2.78h0zm6.21 0h2.99v2.78h-2.99v-2.78h0zm6.21 0h2.99v2.78h-2.99v-2.78h0zm6.2 0h2.99v2.78h-2.99v-2.78h0zm6.21 0h2.99v2.78h-2.99v-2.78h0zm6.21 0h2.99v2.78h-2.99v-2.78h0zm6.21 0h2.99v2.78h-2.99v-2.78h0zm6.21 0h2.99v2.78h-2.99v-2.78h0zM63 122.74h2.99v2.78H63v-2.78h0zm6.21 0h2.99v2.78h-2.99v-2.78h0zm6.21 0h2.99v2.78h-2.99v-2.78h0zm6.21 0h2.99v2.78h-2.99v-2.78h0zm6.21 0h2.99v2.78h-2.99v-2.78h0zm6.21 0h2.99v2.78h-2.99v-2.78h0zm6.21 0h2.99v2.78h-2.99v-2.78h0zm6.21 0h2.99v2.78h-2.99v-2.78h0zm6.21 0h2.99v2.78h-2.99v-2.78h0zm6.21 0h2.99v2.78h-2.99v-2.78h0zm6.2 0h2.99v2.78h-2.99v-2.78h0zm6.21 0h2.99v2.78h-2.99v-2.78h0zm6.21 0h2.99v2.78h-2.99v-2.78h0zm6.21 0h2.99v2.78h-2.99v-2.78h0zm6.21 0h2.99v2.78h-2.99v-2.78h0z" fill-rule="evenodd" fill="#d7ae35"/></svg>