<svg xmlns="http://www.w3.org/2000/svg" xmlns:xlink="http://www.w3.org/1999/xlink" viewBox="0 0 600 105" xmlns:v="https://vecta.io/nano"><g fill="#fff"><path d="M377.23 33.21c0 .33.09.42.42.42h3.21c.33 0 .47.13.47.47v1.56c0 .33-.13.47-.47.47h-3.21c-.33 0-.42.09-.42.42v3.95c0 .33.09.42.42.42h3.21c.33 0 .47.13.47.47v1.56c0 .33-.13.47-.47.47h-5.97c-.33 0-.47-.13-.47-.47V27.17c0-.33.13-.47.47-.47h5.97c.33 0 .47.13.47.47v1.56c0 .33-.13.47-.47.47h-3.21c-.33 0-.42.09-.42.42v3.59zm19.68 1.78v7.96c0 .33-.13.47-.47.47h-1.72c-.33 0-.47-.13-.47-.47v-7.56c0-1.29-.71-1.74-1.38-1.72s-1.34.53-1.34 1.76v7.51c0 .33-.13.47-.47.47h-1.69c-.33 0-.47-.13-.47-.47v-7.56c0-1.29-.74-1.74-1.41-1.72-.69.02-1.34.53-1.34 1.72v7.56c0 .33-.13.47-.47.47H384c-.33 0-.47-.13-.47-.47V31.98c0-.33.13-.47.47-.47h1.25c.33 0 .45.16.51.49l.16.69c.45-.58 1.09-1.14 2.01-1.31 1.23-.22 2.47.33 3.12 1.54.51-.71 1.27-1.34 2.23-1.54 1.82-.33 3.63 1.01 3.63 3.61zm10.24 0v4.95c0 2.61-1.85 3.94-3.65 3.61-.76-.16-1.36-.58-1.81-1.05v5.08c0 .33-.13.47-.47.47h-1.69c-.33 0-.47-.13-.47-.47v-15.6c0-.33.13-.47.47-.47h1.25c.33 0 .45.16.51.49l.16.71c.47-.6 1.14-1.16 2.05-1.34 1.8-.32 3.65 1.02 3.65 3.62zm-2.63.4c0-1.29-.78-1.74-1.45-1.72-.69.02-1.38.53-1.38 1.72v3.72.42c0 1.18.69 1.69 1.38 1.72.67.02 1.45-.42 1.45-1.72v-4.14zm10.1-3.54v1.67c0 .33-.13.47-.47.47-1.31 0-2.3.67-2.3 2.27v6.69c0 .33-.13.47-.47.47h-1.69c-.33 0-.47-.13-.47-.47V31.98c0-.33.13-.47.47-.47h1.25c.33 0 .45.16.51.49l.13.62c.74-.89 1.63-1.25 2.56-1.25.34.01.48.15.48.48zm9.22 3.95v.38a8.51 8.51 0 0 1-.07 1.16c-.02.33-.13.47-.47.47h-4.57c-.18 0-.22.05-.22.22v1.56c0 1.23.78 1.67 1.45 1.67s1.09-.44 1.27-.96c.07-.2.18-.27.38-.27h1.72c.27 0 .31.2.29.4-.27 2.39-2.05 3.19-3.65 3.19-1.94 0-4.01-1.16-4.01-4.86v-2.59c0-3.7 2.07-4.86 4.01-4.86 1.78.01 3.87 1.01 3.87 4.49zm-3.81-2.26c-.65 0-1.52.45-1.52 1.72v.49c0 .18.05.22.22.22h2.59c.18 0 .22-.05.22-.22v-.49c.01-1.27-.86-1.72-1.51-1.72zm5.55 6.89c-.02-.2.02-.4.29-.4h1.76c.2 0 .33.07.38.27.18.65.58 1.09 1.25 1.09.62 0 1.16-.38 1.16-1.07.07-1.96-4.48-2.16-4.68-5.57-.11-2.07 1.49-3.43 3.45-3.43 1.65 0 3.39 1 3.45 3.19.02.2-.02.4-.29.4h-1.6c-.2 0-.33-.07-.38-.27-.11-.49-.4-1.07-1.07-1.09-.62-.02-1.05.45-1.05.94-.04 1.74 4.9 2.25 4.84 5.82-.05 2.12-1.78 3.32-3.77 3.32-2-.01-3.45-1.19-3.74-3.2zm9.11-.49c0-3.25 2.63-3.88 5.35-4.19v-.69c0-1.05-.65-1.52-1.36-1.52-.69 0-1.14.45-1.27 1.09-.05.2-.18.27-.38.27h-1.6c-.27 0-.29-.2-.29-.4.07-2.23 1.83-3.19 3.7-3.19 1.92 0 3.81 1.14 3.81 4.19l.02 5.33c0 1.11.09 1.56.2 2.14.07.33-.11.45-.45.45h-1.6c-.33 0-.42-.11-.51-.82-.49.54-1.18.87-1.89.98-1.84.3-3.73-.96-3.73-3.64zm5.35-.4v-2.21c-1.76.27-2.76.69-2.72 2.36.02 1.11.69 1.6 1.38 1.56.67-.02 1.34-.53 1.34-1.71zm17.58-12.37v15.78c0 .33-.13.47-.47.47h-1.27c-.33 0-.42-.16-.49-.49l-.16-.74c-.47.6-1.14 1.18-2.05 1.36-1.83.33-3.66-1-3.66-3.61v-4.95c0-2.61 1.83-3.95 3.66-3.61.76.16 1.36.58 1.8 1.07v-5.28c0-.33.13-.47.47-.47h1.69c.34 0 .48.14.48.47zm-2.63 12.37v-3.72-.42c0-1.18-.71-1.69-1.38-1.72-.67-.02-1.45.42-1.45 1.72v4.14c0 1.27.78 1.74 1.45 1.72.67-.03 1.38-.54 1.38-1.72zm12.59-3.74v.38a8.51 8.51 0 0 1-.07 1.16c-.02.33-.13.47-.47.47h-4.57c-.18 0-.22.05-.22.22v1.56c0 1.23.78 1.67 1.45 1.67s1.09-.44 1.27-.96c.07-.2.18-.27.38-.27h1.72c.27 0 .31.2.29.4-.27 2.39-2.05 3.19-3.65 3.19-1.94 0-4.01-1.16-4.01-4.86v-2.59c0-3.7 2.07-4.86 4.01-4.86 1.77.01 3.87 1.01 3.87 4.49zm-3.81-2.26c-.65 0-1.52.45-1.52 1.72v.49c0 .18.05.22.22.22h2.59c.18 0 .22-.05.22-.22v-.49c0-1.27-.87-1.72-1.51-1.72zm18.96-6.37v1.56c0 .33-.13.47-.47.47h-1.96c-.33 0-.42.09-.42.42v13.33c0 .33-.13.47-.47.47h-1.85c-.33 0-.47-.13-.47-.47V29.62c0-.33-.09-.42-.42-.42h-1.96c-.33 0-.47-.13-.47-.47v-1.56c0-.33.13-.47.47-.47h7.56c.32 0 .46.14.46.47zm.78 11.97V35.8c0-3.28 2.14-4.48 4.03-4.48 1.92 0 4.06 1.2 4.06 4.48v3.34c0 3.28-2.14 4.48-4.06 4.48-1.89 0-4.03-1.21-4.03-4.48zm4.03-5.46c-.65 0-1.4.42-1.4 1.72v4.14c0 1.27.76 1.72 1.4 1.72.65 0 1.43-.44 1.43-1.72V35.4c0-1.3-.78-1.72-1.43-1.72z"/><use xlink:href="#B"/><use xlink:href="#B" x="6.84"/><path d="M515.13 35.8v.38a8.51 8.51 0 0 1-.07 1.16c-.02.33-.13.47-.47.47h-4.57c-.18 0-.22.05-.22.22v1.56c0 1.23.78 1.67 1.45 1.67s1.09-.44 1.27-.96c.07-.2.18-.27.38-.27h1.72c.27 0 .31.2.29.4-.27 2.39-2.05 3.19-3.65 3.19-1.94 0-4.01-1.16-4.01-4.86v-2.59c0-3.7 2.07-4.86 4.01-4.86 1.77.01 3.87 1.01 3.87 4.49zm-3.82-2.26c-.65 0-1.52.45-1.52 1.72v.49c0 .18.05.22.22.22h2.59c.18 0 .22-.05.22-.22v-.49c.01-1.27-.86-1.72-1.51-1.72zm6.6 9.41v-8.96c0-.27-.07-.33-.33-.33h-.42c-.33 0-.47-.13-.47-.47v-1.2c0-.33.13-.47.47-.47h.44c.27 0 .33-.07.33-.29V30c0-2.3 1.38-3.3 3.99-3.3.33 0 .47.13.47.47v1.32c0 .33-.13.47-.47.47-.91 0-1.43.38-1.43 1.05v1.23c0 .2.07.29.29.29h1.14c.33 0 .47.13.47.47v1.2c0 .33-.13.47-.47.47h-1.03c-.27 0-.36.07-.36.33v8.96c0 .33-.13.47-.47.47h-1.69c-.33-.01-.46-.15-.46-.48zm6.01-3.01c0-3.25 2.63-3.88 5.35-4.19v-.69c0-1.05-.65-1.52-1.36-1.52-.69 0-1.14.45-1.27 1.09-.05.2-.18.27-.38.27h-1.6c-.27 0-.29-.2-.29-.4.07-2.23 1.83-3.19 3.7-3.19 1.92 0 3.81 1.14 3.81 4.19l.02 5.33c0 1.11.09 1.56.2 2.14.07.33-.11.45-.45.45h-1.6c-.33 0-.42-.11-.51-.82-.49.54-1.18.87-1.89.98-1.83.3-3.73-.96-3.73-3.64zm5.35-.4v-2.21c-1.76.27-2.76.69-2.72 2.36.02 1.11.69 1.6 1.38 1.56.67-.02 1.34-.53 1.34-1.71zm12.08.89c-.27 2.39-2.03 3.19-3.65 3.19-2.03 0-3.95-1.16-3.95-4.48V35.8c0-3.32 1.92-4.48 3.95-4.48 1.63 0 3.39.8 3.65 3.19.02.2-.02.4-.29.4h-1.65c-.2 0-.31-.07-.38-.27-.18-.54-.58-.96-1.25-.96s-1.4.44-1.4 1.67v4.24c0 1.23.73 1.67 1.4 1.67s1.09-.44 1.25-.96c.07-.2.18-.27.38-.27h1.65c.27 0 .31.2.29.4zm9.56 0c-.27 2.39-2.03 3.19-3.65 3.19-2.03 0-3.95-1.16-3.95-4.48V35.8c0-3.32 1.92-4.48 3.95-4.48 1.63 0 3.39.8 3.65 3.19.02.2-.02.4-.29.4h-1.65c-.2 0-.31-.07-.38-.27-.18-.54-.58-.96-1.25-.96s-1.4.44-1.4 1.67v4.24c0 1.23.73 1.67 1.4 1.67s1.09-.44 1.25-.96c.07-.2.18-.27.38-.27h1.65c.26 0 .31.2.29.4zm1.73-12.86c0-.89.73-1.63 1.65-1.63.89 0 1.61.74 1.61 1.63a1.62 1.62 0 0 1-1.61 1.63c-.91 0-1.65-.74-1.65-1.63zm2.97 4.41v10.97c0 .33-.13.47-.47.47h-1.69c-.33 0-.47-.13-.47-.47V31.98c0-.33.13-.47.47-.47h1.69c.33.01.47.14.47.47zm2.05 7.16V35.8c0-3.28 2.14-4.48 4.03-4.48 1.92 0 4.06 1.2 4.06 4.48v3.34c0 3.28-2.14 4.48-4.06 4.48-1.9 0-4.03-1.21-4.03-4.48zm4.68-13.84c.25-.25.42-.25.67 0l.85.89c.24.25.24.4 0 .65l-2.92 2.76c-.24.24-.44.22-.67 0l-.89-.87c-.22-.22-.22-.44 0-.67l2.96-2.76zm-.65 8.38c-.65 0-1.4.42-1.4 1.72v4.14c0 1.27.76 1.72 1.4 1.72.65 0 1.43-.44 1.43-1.72V35.4c0-1.3-.78-1.72-1.43-1.72zm14.22 1.31v7.96c0 .33-.13.47-.47.47h-1.69c-.33 0-.47-.13-.47-.47v-7.56c0-1.29-.78-1.74-1.45-1.72-.69.02-1.38.53-1.38 1.72v7.56c0 .33-.13.47-.47.47h-1.69c-.33 0-.47-.13-.47-.47V31.98c0-.33.13-.47.47-.47h1.25c.33 0 .45.16.51.49l.16.71c.47-.6 1.14-1.16 2.05-1.34 1.8-.32 3.65 1.02 3.65 3.62zM377.18 73.94v-1.43c0-.33.13-.45.47-.47.71-.07 1.43-.2 1.69-1.07.45-1.45.45-1.63.22-2.29l-3.14-10.36c-.07-.29.04-.44.29-.44h1.85c.29 0 .45.16.51.44l1.8 6.8c.05.16.22.16.27 0l1.76-6.8c.09-.29.22-.44.51-.44h1.85c.25 0 .4.16.29.44l-4.28 13.88c-.54 1.76-2.16 2.21-3.63 2.21-.33 0-.46-.16-.46-.47zm14.61-9.34v-6.37c0-3.3 1.54-5.37 4.57-5.37 2.83 0 4.3 1.89 4.39 4.21 0 .22-.02.4-.29.4h-2.03c-.25 0-.36-.09-.38-.31-.16-.91-.67-1.69-1.69-1.69-1.2 0-1.76 1.11-1.76 2.76v6.37c0 1.65.56 2.76 1.76 2.76 1.03 0 1.54-.78 1.69-1.69.02-.22.13-.31.38-.31h2.03c.27 0 .29.18.29.4-.09 2.32-1.56 4.21-4.39 4.21-3.03 0-4.57-2.07-4.57-5.37zm11.03.89v-3.34c0-3.28 2.14-4.48 4.03-4.48 1.92 0 4.06 1.2 4.06 4.48v3.34c0 3.28-2.14 4.48-4.06 4.48-1.89 0-4.03-1.2-4.03-4.48zm4.04-5.45c-.65 0-1.4.42-1.4 1.72v4.14c0 1.27.76 1.72 1.4 1.72.65 0 1.43-.44 1.43-1.72v-4.14c0-1.3-.79-1.72-1.43-1.72zm19.5 1.31v7.96c0 .33-.13.47-.47.47h-1.72c-.33 0-.47-.13-.47-.47v-7.56c0-1.29-.71-1.74-1.38-1.72s-1.34.53-1.34 1.76v7.51c0 .33-.13.47-.47.47h-1.69c-.33 0-.47-.13-.47-.47v-7.56c0-1.29-.74-1.74-1.41-1.72-.69.02-1.34.53-1.34 1.72v7.56c0 .33-.13.47-.47.47h-1.69c-.33 0-.47-.13-.47-.47V58.34c0-.33.13-.47.47-.47h1.25c.33 0 .45.16.51.49l.16.69c.45-.58 1.09-1.14 2.01-1.31 1.23-.22 2.47.33 3.12 1.54.51-.71 1.27-1.34 2.23-1.54 1.83-.34 3.64 1 3.64 3.61zm9.93.8v.38a8.51 8.51 0 0 1-.07 1.16c-.02.33-.13.47-.47.47h-4.57c-.18 0-.22.05-.22.22v1.56c0 1.23.78 1.67 1.45 1.67s1.09-.44 1.27-.96c.07-.2.18-.27.38-.27h1.72c.27 0 .31.2.29.4-.27 2.39-2.05 3.19-3.65 3.19-1.94 0-4.01-1.16-4.01-4.86v-2.59c0-3.7 2.07-4.86 4.01-4.86 1.78.01 3.87 1.02 3.87 4.49zm-3.81-2.25c-.65 0-1.52.45-1.52 1.72v.49c0 .18.05.22.22.22h2.59c.18 0 .22-.05.22-.22v-.49c.01-1.27-.86-1.72-1.51-1.72zm11.28-1.69v1.67c0 .33-.13.47-.47.47-1.31 0-2.3.67-2.3 2.27v6.69c0 .33-.13.47-.47.47h-1.69c-.33 0-.47-.13-.47-.47V58.34c0-.33.13-.47.47-.47h1.25c.33 0 .45.16.51.49l.13.62c.74-.89 1.63-1.25 2.56-1.25.34.01.48.14.48.48zm8.93 8.58c-.27 2.39-2.03 3.19-3.65 3.19-2.03 0-3.95-1.16-3.95-4.48v-3.34c0-3.32 1.92-4.48 3.95-4.48 1.63 0 3.39.8 3.65 3.19.02.2-.02.4-.29.4h-1.65c-.2 0-.31-.07-.38-.27-.18-.54-.58-.96-1.25-.96s-1.4.44-1.4 1.67v4.24c0 1.23.73 1.67 1.4 1.67s1.09-.44 1.25-.96c.07-.2.18-.27.38-.27h1.65c.27 0 .31.2.29.4zm1.74-12.86c0-.89.73-1.63 1.65-1.63.89 0 1.61.74 1.61 1.63a1.62 1.62 0 0 1-1.61 1.63c-.92 0-1.65-.74-1.65-1.63zm2.96 4.41v10.97c0 .33-.13.47-.47.47h-1.69c-.33 0-.47-.13-.47-.47V58.34c0-.33.13-.47.47-.47h1.69c.34 0 .47.14.47.47z"/><use xlink:href="#C"/><path d="M473.68 67.99v1.32c0 .33-.13.47-.47.47-2.76 0-3.83-1.05-3.83-3.9V53.53c0-.33.13-.47.47-.47h1.69c.33 0 .47.13.47.47v12.59c0 1 .54 1.38 1.2 1.4.33.03.47.14.47.47z"/><use xlink:href="#D"/><path d="M479.71 68.1c0-.2.05-.36.16-.56l3.81-7.27c.07-.09.02-.2-.09-.2h-3.41c-.33 0-.47-.13-.47-.47v-1.27c0-.33.13-.47.47-.47h5.97c.36 0 .47.13.47.47v1.18c0 .2-.02.38-.16.58l-3.81 7.27c-.05.09-.02.2.11.2h3.39c.33 0 .47.13.47.47v1.27c0 .33-.13.47-.47.47h-5.97c-.36 0-.47-.13-.47-.47v-1.2z"/><use xlink:href="#C" x="28.83"/><path d="M505.7 66.79c-.27 2.39-2.03 3.19-3.65 3.19-2.03 0-3.95-1.16-3.95-4.48v-3.34c0-3.32 1.92-4.48 3.95-4.48 1.63 0 3.39.8 3.65 3.19.02.2-.02.4-.29.4h-1.65c-.2 0-.31-.07-.38-.27-.18-.54-.58-.96-1.25-.96s-1.4.44-1.4 1.67v4.24c0 1.23.73 1.67 1.4 1.67s1.09-.44 1.25-.96c.07-.2.18-.27.38-.27h1.65c.26 0 .31.2.29.4z"/><use xlink:href="#D" x="32.42"/><path d="M512.44 65.49v-3.34c0-3.28 2.14-4.48 4.03-4.48 1.92 0 4.06 1.2 4.06 4.48v3.34c0 3.28-2.14 4.48-4.06 4.48-1.89 0-4.03-1.2-4.03-4.48zm4.68-13.83c.25-.25.42-.25.67 0l.85.89c.24.25.24.4 0 .65l-2.92 2.76c-.24.24-.44.22-.67 0l-.89-.87c-.22-.22-.22-.44 0-.67l2.96-2.76zm-.64 8.38c-.65 0-1.4.42-1.4 1.72v4.14c0 1.27.76 1.72 1.4 1.72.65 0 1.43-.44 1.43-1.72v-4.14c0-1.3-.79-1.72-1.43-1.72zm14.21 1.31v7.96c0 .33-.13.47-.47.47h-1.69c-.33 0-.47-.13-.47-.47v-7.56c0-1.29-.78-1.74-1.45-1.72-.69.02-1.38.53-1.38 1.72v7.56c0 .33-.13.47-.47.47h-1.69c-.33 0-.47-.13-.47-.47V58.34c0-.33.13-.47.47-.47h1.25c.33 0 .45.16.51.49l.16.71c.47-.6 1.14-1.16 2.05-1.34 1.8-.33 3.65 1.01 3.65 3.62zm15.18-7.82v15.78c0 .33-.13.47-.47.47h-1.27c-.33 0-.42-.16-.49-.49l-.16-.74c-.47.6-1.14 1.18-2.05 1.36-1.83.33-3.65-1-3.65-3.61v-4.95c0-2.61 1.83-3.95 3.65-3.61.76.16 1.36.58 1.81 1.07v-5.28c0-.33.13-.47.47-.47h1.69c.33 0 .47.13.47.47zm-2.63 12.37v-3.72-.42c0-1.18-.71-1.69-1.38-1.72-.67-.02-1.45.42-1.45 1.72v4.14c0 1.27.78 1.74 1.45 1.72.67-.03 1.38-.54 1.38-1.72zm12.59-3.75v.38a8.51 8.51 0 0 1-.07 1.16c-.02.33-.13.47-.47.47h-4.57c-.18 0-.22.05-.22.22v1.56c0 1.23.78 1.67 1.45 1.67s1.09-.44 1.27-.96c.07-.2.18-.27.38-.27h1.72c.27 0 .31.2.29.4-.27 2.39-2.05 3.19-3.65 3.19-1.94 0-4.01-1.16-4.01-4.86v-2.59c0-3.7 2.07-4.86 4.01-4.86 1.77.01 3.87 1.02 3.87 4.49zm-3.81-2.25c-.65 0-1.52.45-1.52 1.72v.49c0 .18.05.22.22.22h2.59c.18 0 .22-.05.22-.22v-.49c0-1.27-.87-1.72-1.51-1.72zm10.89 4.7v-6.37c0-3.3 1.54-5.37 4.57-5.37 2.83 0 4.3 1.89 4.39 4.21 0 .22-.02.4-.29.4h-2.03c-.24 0-.36-.09-.38-.31-.16-.91-.67-1.69-1.69-1.69-1.2 0-1.76 1.11-1.76 2.76v6.37c0 1.65.56 2.76 1.76 2.76 1.03 0 1.54-.78 1.69-1.69.02-.22.13-.31.38-.31h2.03c.27 0 .29.18.29.4-.09 2.32-1.56 4.21-4.39 4.21-3.03 0-4.57-2.07-4.57-5.37z"/><use xlink:href="#C" x="114.5"/><path d="M584.59 69.31v-8.96c0-.27-.07-.33-.33-.33h-.42c-.33 0-.47-.13-.47-.47v-1.2c0-.33.13-.47.47-.47h.44c.27 0 .33-.07.33-.29v-1.23c0-2.3 1.38-3.3 3.99-3.3.33 0 .47.13.47.47v1.32c0 .33-.13.47-.47.47-.91 0-1.43.38-1.43 1.05v1.23c0 .2.07.29.29.29h1.14c.33 0 .47.13.47.47v1.2c0 .33-.13.47-.47.47h-1.03c-.27 0-.36.07-.36.33v8.96c0 .33-.13.47-.47.47h-1.69c-.33-.02-.46-.15-.46-.48zm13.9-7.16v.38a8.51 8.51 0 0 1-.07 1.16c-.02.33-.13.47-.47.47h-4.57c-.18 0-.22.05-.22.22v1.56c0 1.23.78 1.67 1.45 1.67s1.09-.44 1.27-.96c.07-.2.18-.27.38-.27h1.72c.27 0 .31.2.29.4-.27 2.39-2.05 3.19-3.65 3.19-1.94 0-4.01-1.16-4.01-4.86v-2.59c0-3.7 2.07-4.86 4.01-4.86 1.78.01 3.87 1.02 3.87 4.49zm-3.21-10.49c.25-.25.42-.25.67 0l.85.89c.24.25.24.4 0 .65l-2.92 2.76c-.24.24-.44.22-.67 0l-.89-.87c-.22-.22-.22-.44 0-.67l2.96-2.76zm-.6 8.24c-.65 0-1.52.45-1.52 1.72v.49c0 .18.05.22.22.22h2.59c.18 0 .22-.05.22-.22v-.49c.01-1.27-.86-1.72-1.51-1.72zM155.99 36.4c.29-.55.66-.98 1.11-1.26.45-.29 1-.45 1.69-.45 1.13.01 1.86.43 2.41 1.09.54.66.87 1.58 1.02 2.51h0c.02.17.05.32.11.47.09.23.27.44.5.55s.47.15.73.15h5.92c.18 0 .35-.03.5-.09a1.02 1.02 0 0 0 .52-.48c.1-.2.12-.41.12-.61l-.01-.23h0c-.06-3.07-1.05-5.93-3.03-8.03s-4.93-3.41-8.8-3.4c-4.14-.01-7.27 1.43-9.31 3.98-2.04 2.54-3 6.13-3.01 10.4v13.79c0 4.27.96 7.86 3.01 10.4 2.04 2.55 5.17 3.99 9.31 3.98 3.87 0 6.82-1.3 8.8-3.41 1.98-2.1 2.97-4.96 3.03-8.03h0c.01-.08.01-.15.01-.23 0-.26-.04-.56-.25-.81a1 1 0 0 0-.39-.28c-.16-.06-.32-.09-.5-.09h-5.92c-.18 0-.34.02-.5.06-.24.06-.47.21-.62.42-.14.2-.2.44-.23.69h0c-.15.93-.48 1.85-1.02 2.51-.55.66-1.28 1.09-2.41 1.09-.69 0-1.24-.16-1.69-.45-.67-.43-1.17-1.17-1.49-2.18s-.47-2.27-.47-3.67v-13.8c.01-1.86.27-3.49.86-4.59zm42.98-9.1c-.27-.15-.58-.2-.93-.2h-5.59c-.23 0-.44.02-.64.08-.3.08-.57.28-.72.56-.15.27-.2.58-.2.93v16.78 9.34c0 1.86-.25 3.49-.82 4.6-.29.55-.65.97-1.09 1.26-.45.29-.99.45-1.68.45s-1.24-.16-1.69-.45c-.67-.43-1.17-1.17-1.49-2.18s-.47-2.27-.47-3.67v-6.19-19.94c0-.23-.02-.44-.08-.64-.08-.3-.28-.57-.56-.72-.27-.15-.58-.2-.93-.2h-5.54c-.23 0-.44.02-.64.08-.3.08-.57.28-.72.56-.15.27-.2.58-.2.93V45.5v9.28c0 4.27.96 7.86 3.01 10.4 2.04 2.55 5.17 3.99 9.31 3.98 4.11.01 7.24-1.43 9.29-3.98 2.05-2.54 3.03-6.13 3.03-10.4v-5.86-20.25c0-.23-.02-.44-.08-.64a1.34 1.34 0 0 0-.57-.73zm24.09 19.56c2.11-1.63 3.9-4.64 3.9-8.41v-.65c0-2.93-1.06-5.6-2.89-7.54s-4.45-3.15-7.52-3.15h-10.8c-.23 0-.44.02-.64.08-.3.08-.57.28-.72.56-.15.27-.2.58-.2.93v38.44c0 .23.02.44.08.64.08.3.28.57.56.72.27.15.58.2.93.2h10.97c3.44 0 6.25-1.22 8.19-3.27 1.94-2.04 2.99-4.88 2.99-8.07v-.81c0-2.21-.5-4.3-1.43-6.04-.84-1.54-1.99-2.8-3.42-3.63zm-4.6-7.55c0 1.25-.36 2.19-.9 2.81-.55.62-1.28.94-2.15.95h-1.95c-.18 0-.32-.01-.4-.03l-.11-.04c-.02-.02-.03-.02-.05-.1s-.04-.22-.04-.43v-6.73c0-.24.01-.43.04-.55.02-.09.04-.14.06-.17.03-.04.02-.04.09-.06s.21-.04.42-.04h1.95c.9 0 1.63.33 2.17.95s.88 1.55.88 2.81v.63zm-5.61 12.16c0-.18.01-.32.03-.4l.04-.11c.02-.02.02-.03.1-.05s.22-.04.43-.04h2.01c1.13 0 2.03.38 2.69 1.11.65.73 1.06 1.85 1.07 3.41v.98c0 1.52-.42 2.65-1.09 3.39-.66.74-1.58 1.12-2.67 1.13h-2.01c-.18 0-.32-.01-.4-.03l-.11-.04c-.02-.02-.03-.02-.05-.1s-.04-.22-.04-.43v-8.82zm44.02 15.59l-9.18-38.55h0a2.65 2.65 0 0 0-.24-.67c-.15-.29-.41-.52-.7-.62-.29-.11-.59-.13-.94-.13h-4.4c-.23 0-.44.01-.64.05-.3.05-.6.19-.81.43-.21.25-.33.55-.43.93h0l-9.17 38.55h0a2.14 2.14 0 0 0-.07.48c0 .18.03.36.11.51a.97.97 0 0 0 .53.49c.21.09.44.12.66.12h5.7c.2 0 .39-.01.57-.06a1.3 1.3 0 0 0 .74-.46c.19-.24.32-.53.41-.89v-.01l1.03-4.66c.04-.14.07-.24.1-.29l.05-.07c.02-.01.04-.03.12-.05s.22-.03.4-.03h5.81c.17 0 .29.01.37.02a.5.5 0 0 1 .12.03c.03.02.03.02.07.07.03.05.07.15.11.31l1.03 4.66v.01c.06.24.13.45.23.64a1.37 1.37 0 0 0 .64.62c.27.12.55.15.84.15h5.7c.3 0 .6-.05.86-.23a.92.92 0 0 0 .32-.38c.08-.16.11-.33.11-.51.02-.13-.01-.29-.05-.46h0zm-13.23-23.51l2.13 10.7v.05l-.01.06h0-.01-4.23-.03l.01-.05v-.02l2.14-10.74zm25.27-7.15c.29-.55.66-.98 1.11-1.26.45-.29 1-.45 1.69-.45 1.13.01 1.86.43 2.41 1.09.54.66.87 1.58 1.02 2.51h0c.02.17.05.32.11.47.09.23.27.44.5.55s.47.15.73.15h5.92c.18 0 .35-.03.5-.09a1.02 1.02 0 0 0 .52-.48c.1-.2.12-.41.12-.61l-.01-.23h0c-.06-3.07-1.05-5.93-3.03-8.03s-4.93-3.41-8.8-3.4c-4.14-.01-7.27 1.43-9.31 3.98-2.04 2.54-3 6.13-3.01 10.4v13.79c0 4.27.96 7.86 3.01 10.4 2.04 2.55 5.17 3.99 9.31 3.98 3.87 0 6.82-1.3 8.8-3.41 1.98-2.1 2.97-4.96 3.03-8.03h0c.01-.08.01-.15.01-.23 0-.26-.04-.56-.25-.81a1 1 0 0 0-.39-.28c-.16-.06-.32-.09-.5-.09h-5.92c-.18 0-.34.02-.5.06-.24.06-.47.21-.62.42-.14.2-.2.44-.23.69h0c-.15.93-.48 1.85-1.02 2.51-.55.66-1.28 1.09-2.41 1.09-.69 0-1.24-.16-1.69-.45-.67-.43-1.17-1.17-1.49-2.18s-.47-2.27-.47-3.67v-13.8c.01-1.86.28-3.49.86-4.59zm43.66 30.66l-9.17-38.55h0a2.65 2.65 0 0 0-.24-.67c-.15-.29-.41-.52-.7-.62-.29-.11-.59-.13-.94-.13h-4.4c-.23 0-.44.01-.64.05-.3.05-.6.19-.81.43-.21.25-.34.55-.43.93h0l-9.17 38.55h0a2.14 2.14 0 0 0-.07.48c0 .18.03.36.11.51a.97.97 0 0 0 .53.49c.21.09.44.12.66.12h5.7c.2 0 .39-.01.57-.06a1.3 1.3 0 0 0 .74-.46c.19-.24.31-.53.41-.89h0l1.03-4.67c.04-.14.07-.24.1-.29l.05-.07c.02-.01.04-.03.12-.05s.22-.03.4-.03h5.81c.17 0 .29.01.37.02a.5.5 0 0 1 .12.03c.03.02.03.02.07.07.03.05.07.15.11.31l1.03 4.66v.01c.06.24.13.45.23.64a1.37 1.37 0 0 0 .64.62c.27.12.55.15.84.15h5.7c.3 0 .6-.05.86-.23a.92.92 0 0 0 .32-.38c.08-.16.11-.33.11-.51.01-.13-.01-.29-.06-.46h0zm-13.22-23.51l2.13 10.7v.05l-.01.06h0-.01-4.24-.03l.01-.05v-.02l2.15-10.74zM334.1 27.3c-.27-.15-.58-.2-.93-.2h-15.69c-.23 0-.44.02-.64.08-.3.08-.57.28-.72.56-.15.27-.2.58-.2.93v38.44c0 .23.02.44.08.64.08.3.28.57.56.72.27.15.58.2.93.2h5.54c.23 0 .44-.02.64-.08.3-.08.57-.28.72-.56.15-.27.2-.58.2-.93V52.07c0-.18.01-.32.03-.4l.04-.11c.02-.02.02-.03.1-.05s.22-.04.43-.04h5.27c.23 0 .44-.02.64-.08.3-.08.57-.28.72-.56.15-.27.2-.58.2-.93v-4.67c0-.23-.02-.44-.08-.64-.08-.3-.28-.57-.56-.72-.27-.15-.58-.2-.93-.2h-5.27c-.18 0-.32-.01-.4-.03l-.11-.04c-.02-.02-.03-.02-.05-.1s-.04-.22-.04-.43v-7.55c0-.18.01-.32.03-.4l.04-.11c.02-.02.02-.03.1-.05s.22-.04.43-.04h7.98c.23 0 .44-.02.64-.08.3-.08.57-.28.72-.56.15-.27.2-.58.2-.93v-4.67c0-.23-.02-.44-.08-.64-.07-.31-.27-.58-.54-.74zm6.48-5.66h0 0z"/><path d="M342.38 24.24h0c.16.24.31.45.5.6.19.16.44.27.7.27.32 0 .6-.14.9-.32h.01l9.84-6.63h0c.22-.15.4-.29.55-.47.15-.17.26-.41.26-.66 0-.17-.04-.33-.11-.49-.06-.16-.15-.31-.26-.48h0l-1.74-2.61h0c-.16-.23-.31-.42-.5-.58-.18-.15-.43-.27-.69-.27-.33 0-.61.15-.92.35h0l-9.83 6.57h0c-.23.16-.42.31-.58.5-.15.18-.27.43-.27.69 0 .33.15.62.36.92l1.78 2.61zm4.72 10.87l.04-.11c.02-.02.02-.03.1-.05s.22-.04.43-.04h7.82c.23 0 .44-.02.64-.08.3-.08.57-.28.72-.56.15-.27.2-.58.2-.93v-4.67c0-.23-.02-.44-.08-.64-.08-.3-.28-.57-.56-.72-.27-.15-.58-.2-.93-.2h-15.53c-.23 0-.44.02-.64.08-.3.08-.57.28-.72.56-.15.27-.2.58-.2.93v38.44c0 .23.02.44.08.64.08.3.28.57.56.72.27.15.58.2.93.2h15.53c.23 0 .44-.02.64-.08.3-.08.57-.28.72-.56.15-.27.2-.58.2-.93v-4.67c0-.23-.02-.44-.08-.64-.08-.3-.28-.57-.56-.72-.27-.15-.58-.2-.93-.2h-7.82c-.18 0-.32-.01-.4-.03l-.11-.04c-.02-.02-.03-.02-.06-.1-.02-.08-.04-.22-.04-.43v-8.2c0-.18.01-.32.03-.4l.04-.11c.02-.02.02-.03.1-.05s.22-.04.43-.04h7.82c.23 0 .44-.02.64-.08.3-.08.57-.28.72-.56.15-.27.2-.58.2-.93v-4.67c0-.23-.02-.44-.08-.64-.08-.3-.28-.57-.56-.72-.27-.15-.58-.2-.93-.2h-7.82c-.18 0-.32-.01-.4-.03l-.11-.04c-.02-.02-.03-.02-.06-.1-.02-.08-.04-.22-.04-.43v-7.55l.07-.42z"/></g><path d="M148.16 104.32V81.98c0-.47.19-.66.66-.66h.85c.47 0 .63.32.72.66l4.89 18.23c.06.19.32.19.38 0l4.92-18.23c.1-.35.25-.66.73-.66h.82c.47 0 .66.19.66.66v22.33c0 .47-.19.66-.66.66h-1.04c-.47 0-.66-.19-.66-.66V90.59c0-.28-.32-.32-.38-.03l-3.63 13.78c-.13.51-.32.63-.82.63h-.22c-.5 0-.69-.13-.82-.63l-3.63-13.78c-.06-.28-.38-.25-.38.03v13.72c0 .47-.19.66-.66.66h-1.07c-.47.01-.66-.18-.66-.65zm22.14-22.37c.09-.54.32-.63.82-.63h.88c.51 0 .69.09.82.63l4.73 22.39c.09.47-.13.63-.47.63h-1.17c-.41 0-.6-.16-.69-.63l-.98-4.64c-.09-.38-.22-.44-.63-.44h-4.1c-.41 0-.57.06-.63.44l-.98 4.64c-.09.47-.28.63-.69.63h-1.17c-.35 0-.57-.16-.47-.63l4.73-22.39zm-.63 15.21h3.79c.19 0 .28-.09.25-.35l-1.95-10.12c-.06-.22-.35-.22-.38 0l-1.95 10.12c-.08.25.08.35.24.35zm13.02-6.09c0 .47.13.6.6.6h4.64c.47 0 .66.19.66.66v.79c0 .47-.19.66-.66.66h-4.64c-.47 0-.6.13-.6.6v7.89c0 .47.13.6.6.6h4.64c.47 0 .66.19.66.66v.79c0 .47-.19.66-.66.66h-6.97c-.47 0-.66-.19-.66-.66V81.98c0-.47.19-.66.66-.66h6.97c.47 0 .66.19.66.66v.79c0 .47-.19.66-.66.66h-4.64c-.47 0-.6.13-.6.6v7.04zm14.6 14.16c-3.15 0-5.49-2.37-5.61-5.3 0-.28.03-.57.41-.57h1.26c.35 0 .54.13.57.44.22 1.73 1.48 3.28 3.41 3.28 1.83 0 3.15-1.39 3.19-3.34.09-4.89-8.42-8.04-8.42-13.69 0-2.84 2.11-4.98 4.98-4.98 2.9 0 4.76 2.18 4.98 4.7.03.32-.03.57-.41.57h-1.29c-.35 0-.47-.09-.54-.41-.28-1.54-1.23-2.68-2.68-2.68-1.51 0-2.68 1.2-2.65 2.74.13 3.97 8.42 7.6 8.42 13.59-.01 3.41-2.69 5.65-5.62 5.65zm17.62-23.25v.79c0 .47-.19.66-.66.66h-2.68c-.47 0-.6.13-.6.6v20.28c0 .47-.19.66-.66.66h-1.07c-.47 0-.66-.19-.66-.66V84.03c0-.47-.13-.6-.6-.6h-2.68c-.47 0-.66-.19-.66-.66v-.79c0-.47.19-.66.66-.66h8.96c.46 0 .65.19.65.66zm13.31 23h-1.36c-.38 0-.6-.13-.72-.44l-3.53-9.15h-.06-1.86c-.47 0-.6.13-.6.6v8.33c0 .47-.19.66-.66.66h-1.07c-.47 0-.66-.19-.66-.66V81.98c0-.47.19-.66.66-.66h4.19c3 0 5.14 2.08 5.14 5.93v2.21c0 2.78-1.1 4.6-2.84 5.46l3.72 9.43c.15.37-.01.63-.35.63zm-7.54-11.77h1.73c1.45 0 2.9-1.07 2.9-3.69v-2.37c0-2.62-1.45-3.72-2.9-3.72h-1.73c-.47 0-.6.13-.6.6v8.58c0 .48.13.6.6.6zm10.34 5.87V87.22c0-3.97 2.02-6.15 5.27-6.15 3.22 0 5.24 2.18 5.24 6.15v11.86c0 3.97-2.02 6.15-5.24 6.15-3.25 0-5.27-2.18-5.27-6.15zm8.14 0V87.22c0-2.65-1.29-3.91-2.87-3.91s-2.87 1.26-2.87 3.91v11.86c0 2.65 1.29 3.91 2.87 3.91 1.57 0 2.87-1.26 2.87-3.91zm11.06 6.15c-3.15 0-5.49-2.37-5.61-5.3 0-.28.03-.57.41-.57h1.26c.35 0 .54.13.57.44.22 1.73 1.48 3.28 3.41 3.28 1.83 0 3.15-1.39 3.19-3.34.09-4.89-8.42-8.04-8.42-13.69 0-2.84 2.11-4.98 4.98-4.98 2.9 0 4.76 2.18 4.98 4.7.03.32-.03.57-.41.57h-1.29c-.35 0-.47-.09-.54-.41-.28-1.54-1.23-2.68-2.68-2.68-1.51 0-2.68 1.2-2.65 2.74.13 3.97 8.42 7.6 8.42 13.59 0 3.41-2.68 5.65-5.62 5.65zm26.58-17.47v10.79c0 4.26-2.02 6.43-5.8 6.43h-4.16c-.47 0-.66-.19-.66-.66V81.98c0-.47.19-.66.66-.66H271c3.78 0 5.8 2.18 5.8 6.44zm-2.36-.16c0-2.9-1.29-4.16-3.53-4.16h-1.73c-.47 0-.6.13-.6.6v18.23c0 .47.13.6.6.6h1.73c2.24 0 3.53-1.26 3.53-4.16V87.6zm8.29 3.47c0 .47.13.6.6.6h4.64c.47 0 .66.19.66.66v.79c0 .47-.19.66-.66.66h-4.64c-.47 0-.6.13-.6.6v7.89c0 .47.13.6.6.6h4.64c.47 0 .66.19.66.66v.79c0 .47-.19.66-.66.66H281c-.47 0-.66-.19-.66-.66V81.98c0-.47.19-.66.66-.66h6.97c.47 0 .66.19.66.66v.79c0 .47-.19.66-.66.66h-4.64c-.47 0-.6.13-.6.6v7.04zm17.78 12.46v.79c0 .47-.19.66-.66.66h-7.06c-.47 0-.66-.19-.66-.66V81.98c0-.47.19-.66.66-.66h1.07c.47 0 .66.19.66.66v20.28c0 .47.13.6.6.6h4.73c.47 0 .66.19.66.67zm9.3-4.45V87.22c0-3.97 2.02-6.15 5.27-6.15 3 0 4.79 1.96 5.05 4.76.03.28-.03.57-.41.57h-1.32c-.35 0-.47-.1-.54-.41-.28-1.58-1.29-2.68-2.74-2.68-1.61 0-2.9 1.26-2.9 3.91v11.86c0 2.65 1.29 3.91 2.9 3.91 1.45 0 2.46-1.1 2.74-2.68.06-.32.19-.41.54-.41h1.32c.38 0 .44.28.41.57-.25 2.81-2.05 4.76-5.05 4.76-3.26 0-5.27-2.18-5.27-6.15zm17.31-17.13c.09-.54.32-.63.82-.63h.88c.51 0 .69.09.82.63l4.73 22.39c.09.47-.13.63-.47.63h-1.17c-.41 0-.6-.16-.69-.63l-.98-4.64c-.09-.38-.22-.44-.63-.44h-4.1c-.41 0-.57.06-.63.44l-.98 4.64c-.09.47-.28.63-.69.63h-1.17c-.35 0-.57-.16-.47-.63l4.73-22.39zm-.64 15.21h3.79c.19 0 .28-.09.25-.35l-1.95-10.12c-.06-.22-.35-.22-.38 0l-1.95 10.12c-.07.25.09.35.24.35zm18.96-15.18v.79c0 .47-.19.66-.66.66h-4.67c-.47 0-.6.13-.6.6v7.03c0 .47.13.6.6.6h3.09c.47 0 .66.19.66.66v.79c0 .47-.19.66-.66.66h-3.09c-.47 0-.6.13-.6.6v9.94c0 .47-.19.66-.66.66h-1.07c-.47 0-.66-.19-.66-.66V81.98c0-.47.19-.66.66-.66h7c.47 0 .66.19.66.66zm5.16 9.09c0 .47.13.6.6.6h4.64c.47 0 .66.19.66.66v.79c0 .47-.19.66-.66.66h-4.64c-.47 0-.6.13-.6.6v7.89c0 .47.13.6.6.6h4.64c.47 0 .66.19.66.66v.79c0 .47-.19.66-.66.66h-6.97c-.47 0-.66-.19-.66-.66V81.98c0-.47.19-.66.66-.66h6.97c.47 0 .66.19.66.66v.79c0 .47-.19.66-.66.66h-4.64c-.47 0-.6.13-.6.6v7.04zm4.73-14.89l-4.79 3.19c-.41.28-.6.19-.88-.22l-.35-.5c-.28-.41-.19-.6.22-.88l4.79-3.19c.41-.28.6-.19.88.22l.35.51c.29.4.19.59-.22.87z" fill="#d59024"/><path d="M131.8 58.32c-.1-.93-.34-1.87-.73-2.76-.4-.9-.97-1.72-1.63-2.41-1.34-1.36-2.89-2.17-4.38-2.85-5.93-2.48-12.13-3.87-18.35-4.54-6.22-.62-12.41-.98-18.65-.88-3.11.06-6.23.21-9.33.47l-4.64.46c-1.55.17-3.06.36-4.56.46-.75.05-1.5.09-2.23.09-.27 0-.55-.01-.82-.02l.45-.21c1.32-.58 2.75-1.06 4.2-1.52s2.92-.87 4.43-1.32c.76-.23 1.52-.46 2.34-.79.42-.19.82-.32 1.44-.81a2.33 2.33 0 0 0 .55-.66c.1-.19.2-.42.24-.71a2.15 2.15 0 0 0-.07-.88 2.1 2.1 0 0 0-.65-.97 4.43 4.43 0 0 0-.51-.37c-.57-.33-1.03-.46-1.38-.59l-1.13-.39c-.75-.26-1.52-.48-2.27-.72-3.06-.88-6.2-1.55-9.38-1.94-5.24-.64-10.48-.54-15.65-.15 3.69-.83 7.43-1.44 11.21-1.84 5.95-.61 11.98-.8 17.97-.32a86 86 0 0 1 17.79 3.21 96.54 96.54 0 0 1 8.63 2.96c2.84 1.13 5.62 2.41 8.42 3.72 1.41.65 2.79 1.32 4.27 1.92 1.51.61 3.13.99 4.77 1.02 1.64.04 3.29-.26 4.79-.95 1.49-.69 2.83-1.81 3.63-3.29 1.49-2.97 1.38-6.38.45-9.38a18.68 18.68 0 0 0-1.93-4.3c-.81-1.34-1.74-2.58-2.81-3.77h0l-.02-.02h0c-2.04-2.34-4.29-4.49-6.71-6.42-2.41-1.97-5.01-3.7-7.68-5.29-2.68-1.59-5.48-2.97-8.33-4.22a90.45 90.45 0 0 0-8.78-3.24C82.8.48 70.05-.8 57.41.49c-6.31.68-12.61 1.98-18.67 4.14-3.04 1.06-6.01 2.33-8.91 3.79-2.88 1.5-5.69 3.17-8.34 5.12-5.29 3.87-10.07 8.72-13.52 14.61-1.72 2.94-3.1 6.12-3.98 9.48-.89 3.35-1.29 6.85-1.16 10.33.24 6.99 2.72 13.78 6.51 19.4 3.8 5.66 8.77 10.27 14.23 13.94 10.95 7.35 23.65 11.24 36.38 12.59 6.38.66 12.81.69 19.18.07 6.36-.64 12.68-1.87 18.76-3.9 6.08-2 11.95-4.72 17.32-8.26 2.68-1.77 5.25-3.74 7.62-5.92l.87-.81c.29-.28.6-.57.88-.87a36.41 36.41 0 0 0 1.68-1.83c1.07-1.26 2.05-2.62 2.9-4.07s1.57-3 2.06-4.67c.49-1.66.77-3.45.58-5.31zM71.93 86.58c-3.75 0-7.55-.24-11.28-.71-5.87-.75-11.56-2.11-16.92-4.04-5.63-2.02-10.76-4.64-15.24-7.79-4.94-3.5-8.86-7.43-11.65-11.68-3.07-4.61-4.81-9.72-5.03-14.77-.27-5.06 1.01-10.29 3.7-15.11 2.47-4.45 6.13-8.61 10.89-12.37 2.16-1.71 4.54-3.32 7.09-4.79 2.52-1.47 5.13-2.78 7.76-3.89 5.48-2.29 11.14-4 16.84-5.05 5.44-1.03 10.98-1.55 16.46-1.55l1.28.01c3 .04 6.01.24 8.95.58 2.9.35 5.88.89 8.84 1.59 5.95 1.39 11.6 3.52 16.8 6.35 5.57 3.05 10.3 6.77 14.06 11.06l.05.05c2.13 2.45 3.57 4.94 4.26 7.39.41 1.44.58 2.83.52 4.13-.07 1.48-.42 2.79-.99 3.79-.57.98-1.55 1.8-2.76 2.31-.93.4-1.97.6-3.11.6a15.89 15.89 0 0 1-.69-.02c-1.29-.09-2.58-.44-3.83-1.04-1.04-.51-2.14-1.12-3.2-1.7l-.77-.43c-4.53-2.52-10.54-5.73-16.91-8.14-6.07-2.31-12.26-3.96-18.39-4.9a95.81 95.81 0 0 0-14.1-1.06c-1.67 0-3.35.05-5 .14-3.03.16-6.25.5-9.56 1.02-3.19.53-6.36 1.23-9.43 2.09-6.22 1.75-12.23 4.23-17.88 7.35l-2.07 1.17-2.05 1.19a19.12 19.12 0 0 0-1.25.8c-.45.33-.94.69-1.52 1.29l-.1.11c-.28.31-.63.71-1 1.45a5.84 5.84 0 0 0-.29.73c-.1.32-.16.65-.2.96a4.99 4.99 0 0 0 .02 1.15 4.62 4.62 0 0 0 .27 1.08c.13.35.28.61.42.85a5.4 5.4 0 0 0 .46.63c.28.31.52.55.87.8a4.69 4.69 0 0 0 1.28.65c.48.16.85.2 1.18.23a3.77 3.77 0 0 0 .31.01c.15 0 .27-.01.39-.02l.11-.01c.25-.02.35-.05.48-.07l.08-.02c.19-.04.33-.07.43-.1.03-.01.05-.02.07-.03l8.84-3.47c2.58-.97 5.39-1.97 8.33-2.72 2.5-.66 5.26-1.24 8.67-1.81 5.81-.95 10.28-1.37 14.47-1.37a54.26 54.26 0 0 1 3.16.09c2.39.14 4.74.44 7.01.9-1.96.67-3.97 1.37-5.96 2.33l-.15.08c-.72.37-1.47.75-2.3 1.45l-.06.06c-.21.19-.5.46-.79.94a2.82 2.82 0 0 0-.4 1.3c-.05.59.18 1.32.56 1.79.54.65 1.01.83 1.33.96l.17.07a5.31 5.31 0 0 0 .92.23 11.84 11.84 0 0 0 1.95.14l.77-.01a43.81 43.81 0 0 0 2.44-.15c1.21-.1 2.4-.26 3.56-.42l1.09-.14c1.44-.19 2.96-.36 4.51-.5 3.31-.3 6.27-.45 9.03-.46l1.1-.01c2.42 0 5.03.08 7.98.26 3.22.18 6.17.46 9.01.86 3.32.47 6.18 1.04 8.74 1.75 1.28.35 2.61.78 4.2 1.37 1.14.42 2.63 1 4.01 1.68 1.38.69 2.35 1.37 2.97 2.06.61.69.93 1.54.99 2.59.05 1.01-.16 2.21-.6 3.44-.41 1.14-1.01 2.31-1.78 3.48-.72 1.09-1.58 2.16-2.55 3.18-.46.49-.96.98-1.48 1.45-.19.18-.37.33-.55.49l-.24.21-.85.71c-2.15 1.78-4.55 3.45-7.12 4.95-2.45 1.43-5.08 2.74-7.82 3.87-2.58 1.09-5.36 2.06-8.26 2.89-7.56 2.12-15.48 3.21-23.55 3.21z" fill="#fff"/><defs ><path id="B" d="M499.06 31.85v1.67c0 .33-.13.47-.47.47-1.31 0-2.3.67-2.3 2.27v6.69c0 .33-.13.47-.47.47h-1.69c-.33 0-.47-.13-.47-.47V31.98c0-.33.13-.47.47-.47h1.25c.33 0 .45.16.51.49l.13.62c.74-.89 1.63-1.25 2.56-1.25.35.01.48.15.48.48z"/><path id="C" d="M459.44 66.3c0-3.25 2.63-3.88 5.35-4.19v-.69c0-1.05-.65-1.52-1.36-1.52-.69 0-1.14.45-1.27 1.09-.05.2-.18.27-.38.27h-1.6c-.27 0-.29-.2-.29-.4.07-2.23 1.83-3.19 3.7-3.19 1.92 0 3.81 1.14 3.81 4.19l.02 5.33c0 1.11.09 1.56.2 2.14.07.33-.11.45-.45.45h-1.6c-.33 0-.42-.11-.51-.82-.49.54-1.18.87-1.89.98-1.84.3-3.73-.97-3.73-3.64zm5.35-.4v-2.21c-1.76.27-2.76.69-2.72 2.36.02 1.11.69 1.6 1.38 1.56.67-.02 1.34-.53 1.34-1.71z"/><path id="D" d="M475.01 53.93c0-.89.73-1.63 1.65-1.63.89 0 1.61.74 1.61 1.63a1.62 1.62 0 0 1-1.61 1.63c-.91 0-1.65-.74-1.65-1.63zm2.97 4.41v10.97c0 .33-.13.47-.47.47h-1.69c-.33 0-.47-.13-.47-.47V58.34c0-.33.13-.47.47-.47h1.69c.33 0 .47.14.47.47z"/></defs></svg>