<svg xmlns="http://www.w3.org/2000/svg" viewBox="0 0 32 32" xmlns:v="https://vecta.io/nano"><path d="M0 32V0h32v32H0zm4.88-18.83c.17 2.48 1.45 4.08 3.83 4.83-.01.03-.02.06-.02.09H6.63c.81 2.1 2.32 3.2 4.52 3.48-2.13 1.62-4.47 2.24-7.06 2.05.1.1.2.18.31.24 2.67 1.56 5.55 2.15 8.62 1.87 2.69-.25 5.13-1.15 7.22-2.87 3.6-2.97 5.37-6.83 5.37-11.49 0-.21.06-.34.22-.47.4-.33.79-.66 1.15-1.03s.68-.8 1.02-1.21c-.02-.03-.04-.05-.06-.08l-.84.29c-.28.09-.56.17-.84.23s-.57.11-.85.16c1.1-.9 1.77-1.79 1.96-2.67-.09.04-.17.09-.26.12l-2.51.96c-.22.08-.38.03-.55-.14-2.57-2.46-6.89-1.4-8.06 1.96-.31.89-.35 1.8-.16 2.78-4.15-.29-7.52-2.03-10.23-5.19-1.19 2.62-.69 4.79 1.45 6.6-.03.03-.05.06-.07.09l-2.1-.6z" fill="#fff"/></svg>