<svg xmlns="http://www.w3.org/2000/svg" viewBox="0 0 215 215" fill="#ffb71b" xmlns:v="https://vecta.io/nano"><path d="M142.71 147.56c-4.19 1.49-8.99 2.62-14.1 3.45l.22-.18 1-1.32.56-1.16.39-.95.16-.99v-.97-5.08l13.61-14.2.43-.48.44-.83.35-.82.31-1.21.18-1.48v-1.4l-.29-1.62-.56-1.43-.71-1.16-.77-.93-.96-.54-1.03-.31-1.29-.18h-4.88-.9l-.9.15-.58.34-.46.32-2.01 2.01v-2.85H86.33v.17 31.15l.14 1.51.27 1.2.73 1.61 1.2 1.46.38.29c-5.35-.83-10.38-2-14.74-3.55l-16.51-5.85c9.36 11.66 28.06 19.62 49.61 19.62 20.86 0 39.04-7.46 48.67-18.5l-13.37 4.71zm-12.87-26.28l3.62-3.76.56-.35.84-.26 1.74-.11h2.43l1.39.4.7.51.52.71.38 1.16.12 1.33-.07.98-.35 1.14-.29.63-.58.82-11.01 11.57v-14.77zm-9.39-42.58c0-.25-.06-.38-.19-.51l-1.91-1.78c-.13-.19-.26-.38-.26-.52 0-.19.19-.25.38-.25h6.13c.19 0 .32.13.32.38v31.56c0 .26 0 .45.13.58l1.98 2.23c.13.13.25.32.25.44 0 .19-.13.26-.38.26h-8.42c-.19 0-.38-.06-.38-.26 0-.12.13-.32.26-.44l1.98-2.23c.13-.13.13-.32.13-.58V78.7zM45.03 97.26c0 8.03 1.08 11.1 4.02 11.1 2.1 0 3.12-1.02 4.46-3 .13-.19.25-.32.45-.32.19 0 .25.13.19.38-.77 3.06-2.74 5.67-5.86 5.67-5.8 0-8.23-5.74-8.23-20.03 0-9.69 2.81-15.43 7.27-15.43 3.69 0 6.88 2.68 6.88 11.99v3.95c0 .45-.13.77-.57.77h-8.61v4.92zm4.71-7.33v-6.38c0-3.38-.89-5.17-2.42-5.17-1.66 0-2.3 1.79-2.3 5.17v6.38h4.72zm13.27 17.66c0 .26 0 .45.12.58l1.98 2.23c.13.13.25.32.25.44 0 .19-.12.26-.38.26h-8.42c-.19 0-.38-.06-.38-.26 0-.12.13-.32.25-.44l1.97-2.23c.13-.13.13-.32.13-.58V66.33c0-.26-.07-.38-.19-.52l-1.91-1.85c-.13-.13-.25-.32-.25-.44 0-.19.19-.25.38-.25h6.12c.19 0 .32.13.32.38v43.94zm23.27-.83c0 .83.26 1.6.83 1.6.64 0 1.34-.32 1.85-1.09.13-.13.19-.25.32-.25.12 0 .19.13.19.32-.25 1.85-1.72 3.76-3.31 3.76-1.98 0-3-1.28-3.77-2.42-1.02 1.15-2.67 2.42-4.4 2.42-2.49 0-5.55-1.59-5.55-10.34 0-7.13 1.08-9.05 8.1-14.67 1.27-1.02 1.27-1.59 1.27-4.21 0-2.8-.64-3.51-2.67-3.51-1.85 0-4.53 1.47-5.67 2.62-.13.13-.32.19-.51.19-.13 0-.19-.13-.19-.32 0-.77 3.64-5.23 7.21-5.23 2.29 0 6.31 1.4 6.31 7.97v23.16zm-4.47-18.88h-.12c-3.51 3-4.53 5.23-4.53 11.73 0 7.27.71 8.74 2.11 8.74s2.55-1.98 2.55-3.77v-16.7zm14.79 19.71c0 .26 0 .45.07.58l2.17 2.23c.19.13.26.32.26.44 0 .19-.13.26-.38.26h-8.55c-.25 0-.38-.06-.38-.26a.53.53 0 0 1 .26-.44l1.98-2.23c.13-.13.13-.32.13-.58V78.7c0-.25-.07-.38-.26-.51l-1.85-1.78c-.19-.19-.26-.38-.26-.52 0-.19.13-.25.38-.25h6.12c.19 0 .32.13.32.38v2.16h.13c1.02-1.27 2.1-2.55 3.57-2.55 2.11 0 3.44 3.38 3.44 5.42 0 .33-.06.58-.31.58-.26 0-.38-.25-.51-.58-.7-1.72-1.98-2.42-3.32-2.42-1.85 0-3 2.61-3 5.87v23.09zm14.16 0c0 .26 0 .45.06.58l2.17 2.23c.19.13.25.32.25.44 0 .19-.12.26-.38.26h-8.55c-.25 0-.38-.06-.38-.26a.54.54 0 0 1 .25-.44l1.98-2.23c.13-.13.13-.32.13-.58V78.7a.52.52 0 0 0-.25-.51l-1.85-1.78c-.19-.19-.25-.38-.25-.52 0-.19.13-.25.38-.25h6.13c.19 0 .32.13.32.38v2.16h.13c1.02-1.27 2.11-2.55 3.57-2.55 2.11 0 3.44 3.38 3.44 5.42 0 .33-.06.58-.31.58-.26 0-.39-.25-.51-.58-.7-1.72-1.98-2.42-3.32-2.42-1.85 0-3 2.61-3 5.87v23.09zm23.47-10.33c0 8.03 1.09 11.1 4.02 11.1 2.11 0 3.13-1.02 4.47-3 .13-.19.25-.32.45-.32.19 0 .25.13.19.38-.77 3.06-2.74 5.67-5.87 5.67-5.81 0-8.23-5.74-8.23-20.03 0-9.69 2.81-15.43 7.27-15.43 3.7 0 6.88 2.68 6.88 11.99v3.95c0 .45-.13.77-.57.77h-8.61v4.92zm4.71-7.33v-6.38c0-3.38-.89-5.17-2.42-5.17-1.66 0-2.3 1.79-2.3 5.17v6.38h4.72z"/><path d="M152.21 107.59c0 .26 0 .45.06.58l2.17 2.23c.19.13.25.32.25.44 0 .19-.12.26-.38.26h-8.55c-.25 0-.38-.06-.38-.26 0-.12.07-.32.25-.44l1.98-2.23c.13-.13.13-.32.13-.58V78.7a.52.52 0 0 0-.25-.51l-1.85-1.78c-.19-.19-.25-.38-.25-.52 0-.19.13-.25.38-.25h6.12c.2 0 .32.13.32.38v2.16h.13c1.02-1.27 2.11-2.55 3.57-2.55 2.1 0 3.44 3.38 3.44 5.42 0 .33-.06.58-.32.58s-.38-.25-.51-.58c-.7-1.72-1.98-2.42-3.31-2.42-1.85 0-3 2.61-3 5.87v23.09zm23.27-15.75c0 15.75-3.44 19.26-7.59 19.26-4.08 0-7.53-3.51-7.53-19.26 0-12.56 3.45-16.2 7.53-16.2 4.15 0 7.59 3.63 7.59 16.2zm-4.97 0c0-11.1-.89-13.46-2.61-13.46-1.66 0-2.55 2.36-2.55 13.46 0 14.34.89 16.52 2.55 16.52 1.72 0 2.61-2.18 2.61-16.52zM99.19 54.48c0 .18-.07.32-.22.32-.18 0-.25-.18-.29-.39-.43-3.02-1.47-7.3-3.31-7.3-1.59 0-1.87 3.42-1.87 11.01 0 10.79.79 12.37 2.41 12.37 1.98 0 2.73-6.62 2.73-6.94 0-.18.11-.29.29-.29s.25.11.25.33c0 5.32-.79 8.71-3.96 8.71-4.21 0-4.68-8.2-4.68-14.21 0-4.42.18-12.77 4.68-12.77.57 0 1.19.32 1.73.75.22.18.43.22.61.22s.44-.14.68-.43c.22-.25.5-.54.68-.54.22 0 .25.25.25.61v8.55zm9.25 15.36c0 .47.14.9.46.9.36 0 .76-.18 1.04-.61.07-.07.11-.14.18-.14s.11.08.11.18c-.14 1.04-.97 2.12-1.87 2.12-1.12 0-1.69-.72-2.12-1.37-.57.65-1.51 1.37-2.48 1.37-1.4 0-3.13-.9-3.13-5.83 0-4.03.61-5.1 4.57-8.27.72-.58.72-.9.72-2.38 0-1.58-.36-1.98-1.51-1.98-1.04 0-2.55.83-3.2 1.48-.07.08-.18.11-.29.11-.07 0-.1-.07-.1-.18 0-.43 2.05-2.95 4.06-2.95 1.29 0 3.56.79 3.56 4.5v13.05zm-2.52-10.65h-.07c-1.98 1.69-2.55 2.95-2.55 6.62 0 4.1.39 4.93 1.18 4.93s1.44-1.12 1.44-2.12v-9.43zm8.34 11.12c0 .14 0 .25.04.32l1.33 1.26c.07.07.14.18.14.25 0 .11-.11.15-.22.15h-4.93c-.14 0-.21-.04-.21-.15 0-.07.04-.18.14-.25l1.12-1.26c.07-.07.07-.18.07-.32V54.48c0-.22-.18-.47-.33-.65l-1.08-1.11c-.22-.18-.18-.43 0-.43h1.12c.21 0 .29-.11.29-.32v-3.02c0-2.48 1.48-3.63 3.17-3.63 1.66 0 2.77 1.69 2.77 3.05 0 .11-.07.22-.14.22-.14 0-.25-.14-.36-.29-.58-.76-1.3-1.44-2.02-1.44-.65 0-.9.68-.9 1.51v3.6c0 .21.04.32.29.32h1.08c.18 0 .22.25 0 .43l-1.08 1.11c-.14.18-.29.43-.29.65v15.83zm5.61-5.83c0 4.53.61 6.26 2.27 6.26 1.19 0 1.76-.58 2.52-1.69.07-.11.14-.18.25-.18s.14.07.11.22c-.43 1.73-1.54 3.2-3.31 3.2-3.27 0-4.64-3.24-4.64-11.3 0-5.47 1.59-8.7 4.1-8.7 2.08 0 3.88 1.51 3.88 6.76v2.23c0 .25-.07.43-.32.43h-4.85v2.77zm0-13.88l4.07-3.27c.21-.22.43-.32.57-.14l.86 1.55c.11.18-.11.29-.36.39l-4.93 1.84-.21-.37zm2.66 9.74v-3.6c0-1.9-.5-2.91-1.36-2.91-.94 0-1.3 1.01-1.3 2.91v3.6h2.66z"/><path d="M125.11 68.27c.02 1.45-.94 2.97-2.17 2.99-1.29.02-2.29-1.48-2.31-2.93-.02-1.51.94-2.97 2.23-2.99 1.23-.01 2.23 1.42 2.25 2.93z"/></svg>