<svg xmlns="http://www.w3.org/2000/svg" xmlns:xlink="http://www.w3.org/1999/xlink" viewBox="0 0 215 215" xmlns:v="https://vecta.io/nano"><path d="M76.74 126.73c8.79 0 16-2.93 26.84-16.34 10.84-13.42 14.97-23.23 28.39-30.28 7.56-3.97 14.78-3.51 19.31-2.52-10-12.25-26.02-20.18-44.09-20.18-30.31 0-54.88 22.34-54.88 49.89a45.5 45.5 0 0 0 1.54 11.72c4.74 2.52 13.69 7.71 22.89 7.71m60.93-38.77c-8.75.79-15.97 3.09-26.67 16.62s-14.73 23.38-28.07 30.57c-7.52 4.05-14.75 3.66-19.29 2.72 10.13 12.14 26.23 19.92 44.3 19.73 30.31-.31 54.65-22.9 54.37-50.45-.04-4.04-.62-7.95-1.66-11.7-4.78-2.49-14.36-8.27-22.98-7.49" fill="#857225"/><g fill="#fff"><path d="M28.42 111.47l4.36.1 3.39-.1-.09.49c-.54.03-1.25.13-2.13.29-.04.13-.09 1.05-.15 2.79l.09 3.54c-2.46.55-4.61.82-6.46.82-1.88 0-3.52-.24-4.92-.72s-2.54-1.13-3.44-1.95c-.89-.82-1.55-1.73-1.97-2.73s-.64-2.04-.65-3.12c0-1.07.2-2.15.62-3.23.41-1.08 1.05-2.08 1.93-2.98.88-.91 2.04-1.64 3.47-2.19 1.44-.55 3.14-.83 5.09-.83 1.58 0 3.34.19 5.28.58l.44-2.22.56-.15c-.04.18-.1 1.01-.19 2.47l-.17 3.87c.03.28.05.66.05 1.14l-.58-.29c0-.14-.03-.47-.1-1.02l-.17-1.16c-.37-.48-.87-.9-1.5-1.26s-1.34-.63-2.13-.82a10.13 10.13 0 0 0-2.38-.29c-2.17 0-3.86.59-5.06 1.77-1.46 1.35-2.22 3.07-2.28 5.14.03 1.58.43 3.06 1.21 4.46.78 1.39 1.83 2.51 3.14 3.35 1.32.84 2.75 1.29 4.29 1.33.78-.02 1.49-.12 2.1-.29.62-.17.92-.29.92-.36l.09-2.79-.09-2.84-1.1-.12-1.35-.17-.12-.51zm8.86-8.58c-.18-.05-.42-.09-.69-.14l-.73-.12-.08-.34 1.3.04 1.37.04 1.65-.03 1.5-.04-.11.34-1.11.15c-.54.07-.81.12-.81.15l-.07 3.44.02 1.63.02 1.64c0 1.09.12 1.99.36 2.69s.55 1.22.92 1.57c.38.35.78.58 1.19.69a5.17 5.17 0 0 0 1.31.17c.87-.01 1.57-.21 2.1-.58.53-.38.91-.9 1.14-1.57s.36-1.49.39-2.45l.04-2.69-.11-4.57-.95-.12-1.01-.09-.15-.38 1.64.05 1.47.06 2.07-.11-.09.38-1.3.25-.04.86-.04.93v3.18l-.04 2.42c-.08 1.48-.55 2.67-1.42 3.59-.87.91-2.06 1.42-3.57 1.53l-.54.02c-.73 0-1.42-.1-2.07-.29-.65-.2-1.23-.5-1.74-.92-.51-.41-.92-.95-1.22-1.61s-.47-1.43-.5-2.32l-.04-3.5-.06-3.95"/><use xlink:href="#B"/><path d="M63.69 115.21l.07-.36c.04-.01.18-.03.44-.06l.66-.1.44-.11c.15-.6.32-4.47.5-11.61-.07-.03-.37-.08-.9-.13-.52-.06-.89-.08-1.1-.08l-.11-.38 1.25-.06 1.42-.04 1.51-.05c.57.81 1.28 1.73 2.12 2.77s1.75 2.14 2.75 3.3l2.46 2.87c.65.75 1.01 1.18 1.07 1.29l-.05-3.36a88.06 88.06 0 0 0-.09-3.8c-.04-.98-.13-1.77-.26-2.38-.16-.02-.46-.07-.9-.14a10 10 0 0 0-.95-.12l-.11-.34 1.3.04 1.3.04 1.24-.04c.55-.01.94-.02 1.19-.04l-.08.34c-.07.01-.31.06-.71.15l-.68.15c-.08.21-.16.78-.22 1.7l-.15 2.91-.14 4.45-.13 4.09-2.53-2.88-2.53-2.92-2.85-3.35-2.49-2.99.15 6.6c.08 2.33.16 3.68.25 4.04.12.05.46.11 1.01.17l.98.1.07.36-1.34-.04-1.43-.04-1.23.04c-.55.02-.95 0-1.2.01m16.07-9.51l.24-4.64.44.07.11 1.23 5.74.18 6.29-.18c0-.03.04-.2.12-.53l.14-.62c.05-.01.12-.03.23-.04.1-.02.18-.02.23-.03l-.2 1.35-.24 2-.16 1.36c-.15-.07-.28-.11-.4-.11l.02-.67.02-.79v-.38c-.13-.14-.48-.27-1.05-.39s-1.22-.22-1.94-.29l-1.78-.11c-.02.14-.04.42-.05.84l-.03 1.54-.03 2.19.11 6.89 2.34.24.08.4c-.32-.05-1.4-.07-3.24-.07l-2.22.02-1.68.05.11-.37 1.15-.13 1.17-.14.09-6.25-.09-5.21c-2.36 0-3.93.25-4.72.75-.06.1-.14.38-.23.84l-.17.88c0 .01-.06.03-.19.07-.13.02-.2.05-.21.05"/><use xlink:href="#B" x="42.64"/><path d="M106.33 115.21l.07-.36c.04-.01.18-.03.44-.06l.66-.1.44-.11c.15-.6.32-4.47.5-11.61-.08-.03-.37-.08-.9-.13a10.54 10.54 0 0 0-1.1-.08l-.11-.38 1.25-.06 1.42-.04 1.51-.05c.57.81 1.28 1.73 2.12 2.77s1.75 2.14 2.75 3.3l2.46 2.87c.65.75 1.01 1.18 1.07 1.29l-.05-3.36c-.01-1.56-.04-2.83-.08-3.8-.04-.98-.13-1.77-.26-2.38-.16-.02-.46-.07-.9-.14a10.41 10.41 0 0 0-.95-.12l-.11-.34 1.3.04 1.3.04 1.24-.04c.55-.01.94-.02 1.19-.04l-.08.34c-.07.01-.31.06-.71.15l-.68.15c-.08.21-.16.78-.22 1.7a62.73 62.73 0 0 0-.15 2.91l-.14 4.45-.13 4.09-2.53-2.88-2.53-2.92-2.85-3.35-2.49-2.99.15 6.6c.08 2.33.16 3.68.25 4.04.12.05.46.11 1.01.17l.98.1.07.36-1.34-.04-1.44-.04-1.23.04c-.55-.01-.95 0-1.2.01m14.85.04l.07-.41a14.54 14.54 0 0 1 .76-.12l.81-.15c.08-.1.32-.67.74-1.71l1.44-3.64 1.51-3.94.88-2.39c-.07-.08-.55-.16-1.42-.26l-.04-.38 2.65.11 2.85-.11-.04.38-1.39.26 1.47 4.31 1.79 4.76 1.17 2.61c.01.01.26.05.75.13l.82.11.08.4c.01 0-1.04-.02-3.15-.07l-1.59.03-1.4.04.11-.4c.38-.01.78-.06 1.2-.13l.65-.11c-.07-.27-.38-1.16-.92-2.67l-1-2.68-4.22.2c-.07.13-.21.59-.42 1.36l-.59 2.33-.27 1.45c.49.16 1 .24 1.53.24l.11.4c-.58-.05-1.39-.07-2.43-.07l-2.51.12m4.79-6.67l2.25.05 1.61.04c0-.01-.08-.24-.23-.69l-.65-1.91-.62-1.8-.37-1.08h-.02l-1.06 2.86-.91 2.53"/><path d="M137.87 102.63l-.11-.34 1.24.04 1.45.03 1.47-.03 1.24-.04-.08.34c-.16.01-.41.06-.77.14l-.62.12 1.32 3.81 1.39 3.65.66 1.57c.04-.07.22-.49.56-1.25l1.13-2.65 1.2-2.93.83-2.16c-.31-.13-.73-.22-1.26-.25l-.07-.38 1.36.04 1.4.04 1.18-.03 1.06-.04-.07.38c-.15 0-.66.07-1.53.22l.6 3.02.57 2.93.56 2.71.7 3.03c.16.07.66.16 1.5.27l.11.4c-.28-.03-1.3-.07-3.03-.11l-2.96.07.07-.36c.16-.03.52-.07 1.1-.14l.89-.1c0-.15-.06-.54-.17-1.17l-.53-2.79-.63-3.31-.53-2.98h-.1l-4.62 10.97-.74-1.93-1.24-3.21-1.3-3.38-.91-2.49h-.07l-.64 3.57-.62 3.82-.27 2.5.07.37c.23.06.76.15 1.61.27l.07.36c-.23 0-1.16-.02-2.8-.07l-1.01.04-.94.04.15-.36a8.03 8.03 0 0 1 .51-.09l.76-.15c.08-.23.31-1.13.68-2.71l1.16-5.05.85-3.95c-.08 0-.36-.03-.83-.1l-1-.2m20 .3c-.34-.08-.98-.18-1.92-.3l-.07-.35 1.93.04 2.03.04 4.68-.15c.01-.01.02-.11.05-.31l.08-.55.44-.08-.24 2.23-.16 1.6.04-.04-.38-.15v-1.28c-.07-.15-.34-.29-.83-.41s-1.06-.21-1.69-.28l-1.62-.1-.11 5.24 3.78-.31c.09-.27.15-.53.18-.79l.41-.04c-.03.13-.11.61-.22 1.42l-.29 2-.35-.15c.01 0 .02-.19.04-.57l.04-.63c-.54-.28-1.74-.42-3.58-.42 0 .26-.01.48-.04.68l.07 2.06.06 1.96.02 1.33c2.3-.04 3.76-.25 4.39-.66.09-.25.23-.78.4-1.59l.42-.11-.38 2.35-.23 1.86-.38-.07v-1.1c-.09-.02-.41-.05-.95-.07l-1.76-.06-2.61-.05-3.21.11.11-.41c.82-.06 1.45-.14 1.88-.24l.03-1.41.04-1.82.03-1.68.01-1.75-.14-4.99m13.79 6.32l.11 5.32c.17.06.54.12 1.09.18l.85.09.07.36-1.25-.04-1.36-.03-3.64.11.07-.44a7.33 7.33 0 0 0 1.14-.1l.78-.14.05-2.14.02-3.62-.07-5.92-1.95-.22-.04-.35 2.07-.02 2.28-.02h.9c2.24 0 3.7.26 4.37.77.68.52 1.03 1.12 1.06 1.82 0 .65-.29 1.32-.87 2.01s-1.16 1.18-1.75 1.46l1.64 2.64 1.93 2.76c.63.85 1.14 1.46 1.52 1.84l-.79.15c-.34-.21-.78-.56-1.31-1.05l-1.74-1.73-1.81-1.98-1.62-1.83a12.07 12.07 0 0 1-1.75.12m0-.58a7.55 7.55 0 0 0 1.82-.22c.6-.14 1.15-.44 1.63-.87.48-.44.78-1.05.89-1.83 0-.49-.12-.96-.37-1.4s-.69-.82-1.31-1.11c-.63-.3-1.46-.45-2.5-.45h-.07l-.01 1.61-.03 1.56-.03 1.39-.02 1.32m7.14 10.43l.09-.54c.04-.01.37-.06 1.01-.16l1.07-.2c.1-.13.43-.88.98-2.26l1.9-4.83 2-5.22 1.17-3.17c-.09-.1-.72-.22-1.88-.34l-.05-.51 3.51.15 3.78-.15-.05.51-1.84.34 1.94 5.71 2.38 6.31 1.54 3.45c.02.02.35.07.99.17l1.09.14.1.53c.01 0-1.38-.03-4.17-.09l-2.11.04-1.86.05.14-.53c.51-.02 1.04-.08 1.59-.17l.86-.14c-.09-.36-.5-1.53-1.22-3.54l-1.33-3.55-5.59.27c-.09.18-.28.78-.56 1.81l-.78 3.09-.36 1.93c.65.21 1.32.31 2.03.31l.14.53-3.22-.09-3.29.15m6.35-8.84l2.98.07 2.13.05a23.38 23.38 0 0 0-.3-.92l-.86-2.52-.82-2.39-.49-1.44h-.02l-1.4 3.79-1.22 3.36"/></g><defs ><path id="B" d="M48.9 115.25l.07-.41a14.54 14.54 0 0 1 .76-.12l.81-.15c.07-.1.32-.67.74-1.71l1.44-3.64 1.51-3.94.88-2.39c-.07-.08-.55-.16-1.42-.26l-.04-.38 2.65.11 2.85-.11-.04.38-1.39.26 1.47 4.31 1.79 4.76 1.17 2.61c.01.01.26.05.75.13l.82.11.08.4c.01 0-1.04-.02-3.15-.07l-1.59.03-1.4.04.11-.4c.38-.01.78-.06 1.2-.13l.65-.11c-.07-.27-.38-1.16-.92-2.67l-1-2.68-4.22.2c-.07.13-.21.59-.42 1.36l-.59 2.33-.27 1.45c.49.16 1 .24 1.53.24l.11.4c-.58-.05-1.39-.07-2.43-.07l-2.51.12m4.79-6.67l2.25.05 1.61.04c0-.01-.08-.24-.23-.69l-.65-1.91-.62-1.8-.37-1.08h-.02l-1.06 2.86-.91 2.53"/></defs></svg>