<svg xmlns="http://www.w3.org/2000/svg" viewBox="0 0 153 53" fill="#fff" xmlns:v="https://vecta.io/nano"><path d="M2.69 46.91h6.13l-.01-9.25 8.95-5.43 8.71 5.45v9.23h6.48V17.64L17.82 8.9 2.69 17.64v29.27zm7.46 2.68H0V16.1L17.82 5.8l17.81 10.3v33.49H23.79V39.16l-6.05-3.79-6.26 3.79.01 10.43h-1.34zM46.2 11.9c0 2.92.22 5.05 3.57 5.05.75-.06 1.52-.38 1.93-1.52h.03v1.25h1.53V10.8h-3.4v1.61h1.42c.04 1.65-.34 2.89-1.51 2.89-1.4 0-1.47-1.47-1.47-2.38V9.89c0-.84-.13-2.76 1.47-2.76 1.39.06 1.46.94 1.49 2.04h2.04c-.01-.43 0-.89-.1-1.33-.47-1.9-1.68-2.35-3.43-2.36-3.27 0-3.49 2.07-3.57 4.86v1.56zm10.62-3.44H55v8.23h1.9v-4.76c.03-1.21.83-1.47 1.88-1.37V8.32c-.28.01-.64-.02-1.18.43-.28.23-.51.57-.75 1.17h-.03V8.46zm6.46 8.23h1.81V8.46h-1.9v5.34c0 .64.01 1.65-.88 1.65-.25 0-.42-.09-.59-.26-.2-.32-.19-.73-.19-1.1V8.46h-1.9v6.31c0 1.37.34 2.14 1.84 2.14.92-.01 1.47-.47 1.76-1.44h.03v1.22zm5.37-5.17c-.02-.65 0-1.82.89-1.82s.8.78.86 1.59v2.74c-.05.79-.25 1.42-.83 1.42-.62 0-.92-.51-.92-1.46v-2.47zm0-3.06h-1.9v10.98h1.81v-3.59h.03c.47.83.99 1.02 1.74 1.06 1.6 0 1.92-1.43 1.97-2.74v-2.98c-.05-2.26-.75-2.92-1.97-2.94-.79-.02-1.3.28-1.65 1.08h-.03v-.87zm7.04 2.8c0-.77 0-1.56 1.01-1.56.95 0 .95.79.95 1.56v2.75c0 1-.07 1.44-.95 1.44-.92 0-1.01-.44-1.01-1.44v-2.75zm1.01 5.65c2.45.04 2.86-1.18 2.85-4.04-.01-2.82-.03-4.63-2.85-4.63-2.86 0-2.89 1.81-2.91 4.63-.01 2.86.42 4.08 2.91 4.04h0zm13.77-.22v-1.6h-3.7v-3.37h3.41v-1.6h-3.41V7.35h3.7v-1.6h-5.75v10.94h5.75zm3.29-8.23h-1.9v8.23h1.9v-5.41c0-.91.04-1.56.93-1.58.88-.01.94.6.94 1.33v5.66h1.9v-5.41c0-.97.15-1.54.96-1.58.83-.04.91.69.91 1.43v5.56h1.9v-6.7c0-.88-.61-1.75-2.01-1.75-.94 0-1.53.35-1.9 1.06h-.03c-.12-.78-1.05-1.08-1.75-1.06-.61.02-1.39.16-1.81 1.06h-.02v-.84zm11.04 3.06c-.02-.65 0-1.82.89-1.82s.8.78.86 1.59v2.74c-.05.79-.25 1.42-.83 1.42-.62 0-.92-.51-.92-1.46v-2.47zm0-3.06h-1.9v10.98h1.81v-3.59h.03c.47.83.99 1.02 1.74 1.06 1.6 0 1.92-1.43 1.97-2.74v-2.98c-.05-2.26-.75-2.92-1.97-2.94-.79-.02-1.3.28-1.65 1.08h-.03v-.87zm7.07 0h-1.82v8.23h1.9v-4.76c.03-1.21.83-1.47 1.88-1.37V8.32c-.28.01-.64-.02-1.18.43-.28.23-.51.57-.75 1.17h-.03V8.46zm2.75 4.99c-.04 2.42.85 3.46 3.04 3.46 1.94 0 2.7-1.17 2.63-3h-1.9c.03 1.03-.17 1.55-.88 1.55-.57 0-.97-.21-.99-1.29v-1.2h3.79v-1.11c0-2.25-.28-3.62-2.92-3.62-1.87 0-2.86 1.11-2.77 3.05v2.16zm1.9-1.94v-.34c0-.75-.04-1.47.91-1.47.76 0 .98.26.99 1.1v.72h-1.9zm4.86 2.47c-.22 2.51 1.66 2.93 2.67 2.93 2.63 0 2.98-1.49 2.82-2.92-.06-.55-.82-1.34-1.3-1.62l-1.54-1.05c-.37-.25-.72-.47-.72-.95 0-.47.35-.67.8-.67.65 0 .92.35.88 1.27h1.9c.04-1.77-.8-2.73-2.64-2.73-1.82 0-2.83.73-2.83 2 0 1.19.61 1.95 1.56 2.6l1.03.72c.37.24.91.51.94.97.13.53-.25.92-.79.92-.43 0-1.02.04-.88-1.47h-1.9zm12.29 2.71c-.1-.38-.16-.76-.16-1.15v-4.86c.03-1.08-.13-2.44-2.71-2.44-2.38 0-2.89 1.1-2.88 2.66h1.81c-.02-.75.13-1.2.99-1.2.51 0 .8.06.89.42.16.67-.13 1.04-.93 1.37-1.49.62-2.82 1.07-2.82 2.95 0 1.7.67 2.47 2.2 2.47.32 0 .63-.1.91-.28.29-.18.54-.45.76-.79h.03c-.03.29-.01.58.12.84h1.79zm-2.05-3.44c-.04.78.16 2.2-.96 2.2-.7 0-.89-.42-.89-1.05 0-.35.05-.76.32-.99.5-.41 1.06-.73 1.53-1.05v.89zm5.44-4.79h-1.82v8.23h1.9v-4.76c.03-1.21.83-1.47 1.88-1.37V8.32c-.28.01-.64-.02-1.18.43-.28.23-.51.57-.75 1.17h-.03V8.46zm4.95 8.23V8.46h-1.9v8.23h1.9zm0-9.22V5.75h-1.9v1.72h1.9zm7.32 9.22c-.1-.38-.16-.76-.16-1.15v-4.86c.02-1.08-.13-2.44-2.72-2.44-2.38 0-2.89 1.1-2.88 2.66h1.81c-.01-.75.13-1.2.99-1.2.51 0 .8.06.89.42.16.67-.13 1.04-.94 1.37-1.49.62-2.82 1.07-2.82 2.95 0 1.7.67 2.47 2.2 2.47.32 0 .62-.1.91-.28s.54-.45.76-.79h.02c-.02.29-.01.58.12.84h1.82zm-2.05-3.44c-.05.78.16 2.2-.97 2.2-.7 0-.89-.42-.89-1.05 0-.35.04-.76.32-.99.5-.41 1.06-.73 1.54-1.05v.89zm5.72 3.44V5.75h-1.9v10.94h1.9zM49.82 30.61c0 .95-.31 1.46-.92 1.46-.58 0-.79-.63-.83-1.42v-2.74c.06-.81-.03-1.59.86-1.59s.92 1.17.89 1.82v2.47zm0 2.7h1.9V22.36h-1.9v2.82c0 .25.02.48.06.73h-.03c-.38-.78-.89-1.06-1.7-1.05-1.22.03-1.94.65-1.98 2.92v2.97c.04 1.32.38 2.77 1.98 2.77.75-.04 1.27-.26 1.63-1.1h.03v.89zm3.46-3.24c-.04 2.42.84 3.46 3.04 3.46 1.94 0 2.7-1.17 2.63-3h-1.9c.03 1.03-.17 1.55-.88 1.55-.57 0-.98-.21-.99-1.29v-1.2h3.79v-1.11c0-2.25-.28-3.62-2.92-3.62-1.87 0-2.86 1.11-2.77 3.05v2.16zm1.9-1.94v-.34c0-.75-.04-1.47.91-1.47.76 0 .98.26.99 1.1v.72h-1.9zm11.06 5.18V22.36h-1.9V33.3h1.9zm7.32 0c-.1-.38-.17-.76-.17-1.15V27.3c.03-1.08-.13-2.44-2.71-2.44-2.38 0-2.89 1.1-2.88 2.66h1.81c-.02-.75.13-1.2.99-1.2.51 0 .8.06.89.42.17.67-.13 1.04-.93 1.38-1.49.61-2.82 1.06-2.82 2.94 0 1.7.67 2.47 2.21 2.47.32 0 .62-.1.9-.28.29-.18.54-.45.76-.79h.03c-.03.29-.01.59.12.84h1.8zm-2.06-3.44c-.04.78.17 2.2-.96 2.2-.7 0-.89-.42-.89-1.05 0-.35.05-.76.32-.99.5-.41 1.06-.73 1.53-1.05v.89zm9.45 3.44V22.36h-2.04V33.3h2.04zm3.61-8.23h-1.9v8.23h1.9v-5.32c-.03-.88.21-1.55.93-1.52s.8.56.8 1.36v5.48h1.9v-6.35c.06-1.47-.81-2.1-1.9-2.1-.43 0-1.29.12-1.71 1.06h-.02v-.84zm8.75 5.53c0 .95-.31 1.46-.92 1.46-.58 0-.78-.63-.83-1.42v-2.74c.06-.81-.02-1.59.86-1.59.89 0 .92 1.17.89 1.82v2.47zm0 2.7h1.9V22.36h-1.9v2.82c0 .25.01.48.06.73h-.03c-.38-.78-.89-1.06-1.69-1.05-1.23.03-1.94.65-1.99 2.92v2.97c.05 1.32.38 2.77 1.99 2.77.74-.04 1.27-.26 1.63-1.1h.03v.89zm7.16 0h1.81v-8.23h-1.9v5.34c0 .64.01 1.65-.88 1.65-.25 0-.42-.09-.59-.26-.2-.32-.19-.73-.19-1.1v-5.63h-1.9v6.3c0 1.37.34 2.14 1.84 2.14.92-.01 1.47-.47 1.76-1.44h.03v1.23zm3.06-2.72c-.22 2.51 1.66 2.93 2.67 2.93 2.63 0 2.97-1.49 2.82-2.92-.06-.55-.82-1.34-1.3-1.62l-1.55-1.05c-.37-.25-.72-.47-.72-.95 0-.47.35-.67.8-.67.65 0 .92.35.88 1.27h1.9c.04-1.77-.8-2.73-2.64-2.73-1.82 0-2.83.73-2.83 2 0 1.19.61 1.95 1.56 2.6l1.03.72c.37.24.91.51.94.98.13.52-.24.92-.79.92-.43 0-1.02.04-.88-1.47h-1.89zm9.54 1.26c-.23.03-.76.07-.8-.28v-5.11h.8v-1.38h-.8v-2.26h-1.91v2.26h-.76v1.38h.77v5.58c0 1.53 1.58 1.43 2.7 1.3v-1.49zm2.9-6.77h-1.82v8.23h1.9v-4.76c.03-1.21.83-1.47 1.88-1.37v-2.25c-.28.01-.64-.02-1.18.43-.28.23-.51.57-.75 1.17h-.03v-1.45zm4.95 8.23v-8.23h-1.9v8.23h1.9zm0-9.23v-1.72h-1.9v1.72h1.9zm7.32 9.23c-.1-.38-.17-.76-.17-1.15V27.3c.03-1.08-.13-2.44-2.71-2.44-2.38 0-2.89 1.1-2.88 2.66h1.81c-.02-.75.13-1.2.99-1.2.51 0 .8.06.89.42.17.67-.13 1.04-.93 1.38-1.49.61-2.82 1.06-2.82 2.94 0 1.7.67 2.47 2.2 2.47.32 0 .62-.1.91-.28s.54-.45.76-.79h.02c-.02.29-.01.59.12.84h1.81zm-2.06-3.44c-.04.78.17 2.2-.96 2.2-.7 0-.89-.42-.89-1.05 0-.35.04-.76.32-.99.5-.41 1.06-.73 1.53-1.05v.89z"/><path d="M47.72 49.76l.54-2.77h2.39l.54 2.77h2.19L50.9 38.81h-2.76l-2.61 10.94h2.19zm1.47-7.49c.1-.51.14-1 .2-1.52.01-.24.04-.5.07-.73h.03l.07.73.2 1.52.56 3.11h-1.76l.63-3.11zm8.56 2.32v2.47c0 .95-.31 1.46-.92 1.46-.58 0-.78-.63-.83-1.42v-2.74c.06-.81-.03-1.59.86-1.59s.91 1.17.89 1.82h0zm-3.56 6.09c.1 1.38 1.14 1.85 2.39 1.85 2.59 0 3.07-1.34 3.07-3.02v-7.99h-1.9v.85h-.03c-.26-.75-.79-1.08-1.65-1.06-1.22.02-1.92.67-1.96 2.93v2.97c.04 1.32.36 2.76 1.96 2.76.82-.04 1.36-.29 1.74-1.08l.03.02v.95c0 .64-.15 1.29-.95 1.29-.23 0-.44-.02-.58-.12-.13-.07-.22-.19-.22-.36h-1.9zm8.94-9.16h-1.82v8.23h1.9V45c.03-1.21.83-1.47 1.88-1.37v-2.25c-.28.01-.64-.02-1.18.43-.28.23-.51.57-.75 1.17h-.03v-1.46zm4.65 2.81c0-.77 0-1.56 1.01-1.56.95 0 .95.79.95 1.56v2.75c0 1-.07 1.44-.95 1.44-.92 0-1.01-.44-1.01-1.44v-2.75zm1.01 5.65c2.45.04 2.86-1.18 2.85-4.04-.02-2.82-.03-4.63-2.85-4.63-2.86 0-2.89 1.81-2.91 4.63-.01 2.86.41 4.08 2.91 4.04h0zm9.85-.22c-.1-.38-.16-.76-.16-1.15v-4.86c.03-1.08-.13-2.44-2.72-2.44-2.37 0-2.89 1.1-2.87 2.66h1.81c-.01-.75.13-1.2.99-1.2.51 0 .81.06.89.42.16.67-.13 1.04-.94 1.37-1.49.62-2.82 1.07-2.82 2.95 0 1.7.67 2.47 2.2 2.47.32 0 .63-.1.91-.28.29-.18.54-.45.76-.79h.03c-.03.29-.02.58.12.84h1.8zm-2.05-3.44c-.04.78.16 2.2-.96 2.2-.7 0-.89-.42-.89-1.05 0-.35.04-.76.32-.99.5-.41 1.06-.73 1.53-1.05v.89zm5.72 3.44V38.81h-1.9v10.94h1.9zm3.87 0v-8.23h-1.9v8.23h1.9zm0-9.23v-1.72h-1.9v1.72h1.9zm3.75.99h-1.9v8.23h1.9v-5.41c0-.91.05-1.56.94-1.58.88-.01.94.6.94 1.33v5.66h1.9v-5.41c0-.97.15-1.54.96-1.58.83-.04.91.69.91 1.43v5.56h1.9v-6.7c0-.88-.61-1.75-2.01-1.75-.94 0-1.54.35-1.9 1.06h-.03c-.12-.78-1.05-1.08-1.75-1.06-.61.02-1.39.16-1.81 1.06h-.03v-.84zm9.09 5c-.04 2.42.85 3.46 3.04 3.46 1.95 0 2.71-1.17 2.63-3h-1.9c.02 1.03-.18 1.55-.88 1.55-.57 0-.98-.21-1-1.29v-1.2h3.79v-1.11c0-2.25-.28-3.62-2.92-3.62-1.87 0-2.86 1.11-2.77 3.05v2.16zm1.89-1.94v-.34c0-.75-.04-1.47.91-1.47.76 0 .98.26.99 1.1v.72h-1.9zm7.23-3.06h-1.9v8.23h1.9v-5.32c-.02-.88.22-1.55.94-1.52s.8.56.8 1.36v5.48h1.9V43.4c.06-1.47-.81-2.1-1.9-2.1-.43 0-1.29.12-1.71 1.06h-.03v-.84zm8.01 6.78c-.23.03-.76.07-.8-.28v-5.11h.8v-1.39h-.8v-2.26h-1.92v2.26h-.76v1.39h.78v5.58c0 1.53 1.57 1.43 2.7 1.3V48.3zm6.61 1.46c-.1-.38-.16-.76-.16-1.15v-4.86c.02-1.08-.13-2.44-2.72-2.44-2.38 0-2.89 1.1-2.88 2.66h1.81c-.01-.75.13-1.2.99-1.2.51 0 .8.06.89.42.16.67-.13 1.04-.94 1.37-1.49.62-2.82 1.07-2.82 2.95 0 1.7.67 2.47 2.2 2.47.32 0 .62-.1.91-.28s.54-.45.76-.79h.02c-.02.29-.01.58.12.84h1.82zm-2.06-3.44c-.05.78.16 2.2-.97 2.2-.7 0-.89-.42-.89-1.05 0-.35.04-.76.32-.99.5-.41 1.06-.73 1.54-1.05v.89zm5.45-4.8h-1.82v8.23h1.9V45c.02-1.21.83-1.47 1.88-1.37v-2.25c-.28.01-.64-.02-1.18.43-.28.23-.51.57-.75 1.17h-.02v-1.46zm4.95 8.24v-8.23h-1.9v8.23h1.9zm0-9.23v-1.72h-1.9v1.72h1.9zm7.32 9.23c-.1-.38-.16-.76-.16-1.15v-4.86c.03-1.08-.13-2.44-2.72-2.44-2.37 0-2.89 1.1-2.87 2.66h1.81c-.01-.75.13-1.2.99-1.2.51 0 .81.06.89.42.16.67-.13 1.04-.94 1.37-1.49.62-2.82 1.07-2.82 2.95 0 1.7.67 2.47 2.2 2.47.32 0 .63-.1.91-.28.29-.18.54-.45.76-.79h.03c-.03.29-.02.58.12.84h1.8zm-2.06-3.44c-.04.78.16 2.2-.96 2.2-.7 0-.89-.42-.89-1.05 0-.35.04-.76.32-.99.5-.41 1.06-.73 1.53-1.05v.89z"/><path d="M23.57.89h12v3.13h-12zm0 4.9h12v7.1zm-5.83 35.83c1.57.01 2.85 1.84 2.85 4.09 0 1.48-.55 2.78-1.38 3.5l.02-.48c-.01-1.03-.32-2.11-1-3.27-.69-1.35-.67-2.66-.49-3.84h0zm.36 8.15a2.31 2.31 0 0 1-.37.03c-1.58 0-2.86-1.83-2.86-4.09 0-1.74.75-3.22 1.82-3.81-.14 1.22-.09 2.59.66 4.04l.01.02c.59 1.01.87 1.92.87 2.77 0 .35-.05.7-.13 1.04h0z" fill-rule="evenodd"/><path d="M14.54 30.93c-1.33.39-2.86.6-4.39.63-1.47.02-2.95-.13-4.24-.47v-1.74c1.22.39 2.71.56 4.2.54 1.58-.03 3.15-.28 4.42-.72v1.76zm0-3.69c-1.33.39-2.86.6-4.39.62-1.47.02-2.95-.12-4.24-.46v-1.74c1.22.39 2.71.56 4.2.53 1.58-.02 3.15-.28 4.42-.72v1.77zm0-3.76c-1.33.39-2.86.6-4.39.62-1.47.02-2.95-.12-4.24-.46V21.9c1.22.39 2.71.56 4.2.53 1.58-.02 3.15-.28 4.42-.72v1.77z"/><path d="M5.95 21.17c2.67-1.02 5.45-1.2 8.41 0-.17-4.05-7.97-4.16-8.41 0h0z" fill-rule="evenodd"/><path d="M24.09 30.1h2.94v-8.52c-.28-.21-.54-.37-.8-.47-.27-.11-.53-.16-.77-.16-.23.01-.47.06-.7.17-.22.1-.44.25-.67.44v8.54zm3.47-10.53v.34l.39.26.47.38.29.26v10.96h-6.29V20.84l.24-.24c.15-.15.31-.28.46-.41l.39-.29v-.31a.94.94 0 0 1-.45-.24c-.16-.16-.26-.38-.26-.62v-.09c0-.24.1-.46.26-.62h0c.16-.16.38-.26.62-.26h3.65c.24 0 .46.1.62.26s.26.38.26.62v.09c0 .24-.1.46-.26.62-.1.1-.24.18-.39.22h0z"/></svg>