<svg xmlns="http://www.w3.org/2000/svg" xmlns:xlink="http://www.w3.org/1999/xlink" viewBox="0 0 215 215" xmlns:v="https://vecta.io/nano"><style><![CDATA[.D{fill-rule:evenodd}]]></style><g fill="#fff"><path d="M33.22 126.51c-1.97.02-4.27-1.57-4.12-4.2l1.11-32.84c-2.06-.24-3.1-.22-5.02-.69-2.08-1.1-3.44-5.98-.03-7.66 5.81-.44 11.25-.22 16.75-.07 2.95 1.39 2.68 6.24.08 7.66-1.91.5-2.64.42-4.7.68v32.88c.18 2.62-2.16 4.2-4.07 4.24z" class="D"/><path d="M33.19 129.21c-1.84 0-3.69-.8-4.99-2.15a6.51 6.51 0 0 1-1.8-4.9l1.03-30.26a19.05 19.05 0 0 1-2.89-.51l-.32-.08-.29-.15c-2.1-1.11-3.59-3.92-3.55-6.69.04-2.58 1.35-4.68 3.59-5.78l.47-.23.52-.04c5.37-.41 10.46-.26 15.38-.12l2.21.06.51.24c2.22 1.05 3.59 3.27 3.66 5.95.08 2.78-1.27 5.34-3.45 6.52l-.29.16-.32.08c-1.13.3-1.92.42-2.69.5v30.36c.09 1.76-.5 3.43-1.69 4.73-1.28 1.4-3.16 2.26-5.02 2.31h-.03c0 0-.02 0-.04 0zm-6.85-42.94c.91.2 1.6.26 2.58.35.48.04 1 .09 1.6.16l2.48.29-1.2 35.33c-.02.41.08.68.31.92a1.61 1.61 0 0 0 1.08.48c.33-.01.82-.2 1.14-.55.22-.24.3-.49.28-.82l-.01-.18V87l2.36-.3c.71-.09 1.26-.14 1.76-.19.81-.07 1.34-.12 2.15-.31.26-.28.49-.85.47-1.49 0-.17-.04-.66-.29-.99l-.86-.02c-4.79-.14-9.32-.27-14.15.06-.12.13-.21.33-.24.66-.07.74.27 1.52.54 1.85z"/><path d="M48.02 97.72c-2.95 5.92-3.42 12.05-2.83 20.63.62 6.08 3.6 5.77 5.46 6.18 2.09.21 6.56-1.5 7.54-4.74.45 2.12 1.93 3.58 4.8 3.79 4.39.06 6.56-2.47 8.07-7.95l2.31-8.82c2.05-4.28 5.16-2.29 4.32.95-.66 3.15-1.29 4.14-1.36 8.16-.43 3.92 1.28 6.55 3.3 7.01 4.6 1.46 8.52-1.62 10.09-4.12 1.63 3.95 5.71 6.48 10.75 2.54-.04 3.57-.04 6.57.47 10.02.88 5.69 6.02 8.52 6.02 1.89l-.22-21.25c-.23-4.75 1.43-7.97 1.29-12.72-1.37-2.98-4.57-1.49-6.23-.02-9.43-3.42-11.76 3.87-12.64 12.47l-.29 4.78c-1.07 1.34-4.38 4.15-6.59-.12a11.73 11.73 0 0 1-.38-4.93c.31-3.89.99-7.25 2.77-10.43.67-1.16.11-3.29-2.56-2.56-1.98.54-2.94 1.04-5.28 1.12-.77-.05-2.14.06-2.04-1.45.16-6.02-5.15-6.88-4.66.1.12 5.01-.12 5.73 0 10.74.1 4.42-1.29 7.93-2.93 8.91-2.21 1.82-5.31 1.07-5.07-2.67.31-5.05 1.78-8.48 2.32-13.35-.02-2.98-3.95-5.32-6.37.16-.81 3.95-.65 8.59-.81 13.11-.21 2.25-.92 4.23-3.41 4.72-1.04-.07-2.52-.62-2.73-3.18-.43-6.48 1.3-10.24 2.05-16.5.24-2.95-1.55-5.97-5.16-2.47h0zm51.58 4.68c1.27.14 1.78 4.09 1.16 8.8-.63 4.71-2.18 8.43-3.44 8.29-1.27-.14-1.78-4.09-1.15-8.8.62-4.7 2.16-8.43 3.43-8.29z" class="D"/><path d="M105.01 139.81c-3.12 0-6.05-3.44-6.75-8.02a46.93 46.93 0 0 1-.49-6.04 8.33 8.33 0 0 1-4.28.02c-1.56-.41-2.97-1.29-4.13-2.53-2.68 2.23-6.44 3.54-10.46 2.3-2.89-.73-5.5-3.94-5.33-8.86-1.31 4.57-3.71 9.6-10.43 9.6h-.19l-.16-.01c-1.92-.14-3.53-.74-4.76-1.73-2.33 1.94-5.49 2.9-7.65 2.68l-.31-.05c-.17-.04-.36-.07-.55-.1-2.03-.33-6.26-1.01-7.01-8.45-.58-8.41-.27-15.34 3.1-22.1l.21-.41.33-.32c3.07-2.97 5.52-2.47 6.71-1.9 2.07.98 3.25 3.53 3.02 6.49 2.36-4.74 5.8-4.44 6.83-4.22 2.56.53 4.43 2.94 4.44 5.72v.16l-.02.16c-.26 2.34-.72 4.34-1.16 6.28-.51 2.25-1 4.38-1.15 6.94-.02.38.01.61.05.74.13-.03.35-.11.61-.32l.34-.24c.43-.31 1.69-2.53 1.61-6.52a108.58 108.58 0 0 1 0-5.48c.03-1.43.06-2.78 0-5.19-.3-4.58 1.49-6.42 2.58-7.11 1.33-.84 2.96-.86 4.36-.07 1.75.99 2.85 3.06 3.08 5.66.96-.09 1.6-.28 2.54-.57l1.41-.41c3.14-.86 4.76.73 5.32 1.45 1.1 1.43 1.22 3.47.28 5.08-1.36 2.43-2.09 5.22-2.42 9.29l-.01.14c-.16 1.23-.09 2.36.22 3.54.29.5.49.62.5.62.13-.02.53-.25.94-.61l.08-1.38.15-2.45c.58-5.67 1.76-11.75 6.15-14.5 2.36-1.48 5.27-1.74 8.69-.78 1.29-.84 3.27-1.73 5.39-1.29 1.66.35 3.01 1.48 3.79 3.18l.23.5.02.55c.08 2.62-.32 4.75-.7 6.81-.36 1.93-.69 3.75-.59 5.86l.22 21.36c-.01 5.78-3.31 6.48-4.32 6.56-.12-.04-.22-.03-.33-.03zm-1.79-24.05l-.06 5.62c-.04 3.74-.03 6.43.44 9.59a7.04 7.04 0 0 0 .65 2.1l-.22-21.03c-.13-2.64.28-4.86.68-7.01.29-1.58.57-3.08.61-4.74-.39.09-1.08.41-1.74.99l-.77.68c1.33 2.77.89 7.52.62 9.59-.16 1.23-.47 3.04-1.01 4.82l.8-.61zm-52.21 6.08c.07 0 .14 0 .22-.01-1.43-.82-2.59-2.38-2.8-4.93-.31-4.59.36-7.86 1.07-11.32.36-1.78.74-3.62.99-5.73a3.07 3.07 0 0 0-.02-.69c-.07.06-.15.12-.24.2-2.31 4.85-2.94 10.02-2.34 18.8.33 3.22 1.05 3.34 2.5 3.57l.62.11zm28.11-7.72c-.05.53-.08 1.13-.09 1.85l-.02.24c-.29 2.64.74 3.97 1.21 4.08l.21.06c.7.22 1.37.28 1.99.23-.89-.55-1.8-1.46-2.56-2.94l-.19-.48a15.3 15.3 0 0 1-.55-3.04zm12.47 2.15l.62 1.51c.49 1.18 1.24 2.09 2.08 2.53-1.57-2.69-1.1-7.8-.81-9.97.31-2.34 1.15-6.82 3.13-9.15a3.19 3.19 0 0 0-1.14.44c-2.74 1.72-3.41 8.25-3.63 10.39l-.14 2.28-.11 1.97zm-36.8-9.65c0 .01-.01.03-.01.04-.66 3.23-1.23 6.01-.97 9.83.02.21.05.37.08.49.29-.24.54-.76.66-2.02.04-1.07.06-2.15.07-3.23l.17-5.11zm5.86-3.74c-.41 2.19-.52 4.66-.58 7.28a90.22 90.22 0 0 1 .63-2.89c.41-1.81.8-3.52 1.03-5.47a.88.88 0 0 0-.11-.29c-.21.15-.57.55-.97 1.37zm17.52-.66c.98.56 1.7 1.49 2.07 2.6.32-1.18.71-2.27 1.17-3.32-.96.3-1.91.57-3.24.72zm-5.31-1.5l-.02 2.26a5.19 5.19 0 0 1 1.67-1.03c-.51-.19-1.02-.51-1.46-1-.07-.07-.13-.15-.19-.23zm9.45-1c0 .01-.01.02-.02.03.01-.01.01-.02.02-.03z"/><path d="M148.65 120.02c.71 4.23 1.83 6.23 4.44 5.12 3.26-1.89 5.19-9.9 6.17-13.14-.15 4.34-.33 11.77 5.75 12.04 2.56.12 4.19-.23 6.07-4.95.56-1.38-.36-1.93-1.83-.73-5.44 4.41-5.45-8.76-3.11-18.2 1-3.25-3.17-5.41-5.6.07-2.93 4.83-3.41 13-6.84 16.49-.38-6.39.59-7.93 1.25-14.38.34-3.67-4.4-6.14-6.03-.53-1.06 3.9-.96 5.64-.68 14.28-.39 2.19-5.94 5.56-6.74.09-.41-2.78 2.11-12 2.01-14.14-.21-4.19-4.63-4.09-5.99-1.7-2.42 4.21.34 9.98-2.36 16.65-2.48 3.8-6.52 2.03-6.28-1.71.31-5.05 1.72-8.22 1.61-13.2-.24-3.39-5.25-5.58-6.38.16-.8 3.94-.65 8.59-.8 13.11-.21 2.25-.92 4.23-3.41 4.72-1.04-.07-2.52-.62-2.73-3.18-.43-6.48 1.3-10.24 2.05-16.5.76-3.8-3.05-6.39-5.31-2.14-3.15 6.32-6.91 24.81 2.71 26.92 2.87.62 6.64-1.93 7.61-5.18.44 2.12 1.93 3.58 4.8 3.79 1.75.03 3.84.6 8.1-4.74 1.43 8.84 10.42 4.49 11.52.98z" class="D"/><path d="M151.79 128.14c-.94 0-1.68-.27-2.22-.56-.95-.52-1.64-1.32-2.16-2.27-1.8 1.12-3.95 1.76-5.95 1.62-1.21-.09-3.57-.58-5.27-2.94-2.78 2.4-4.88 2.59-6.82 2.5l-.53-.02c-1.8-.13-3.34-.67-4.54-1.57-2.24 2.25-5.44 3.5-8.24 2.9-2.98-.65-5.29-2.53-6.68-5.44-3.59-7.5-.33-20.39 2.12-25.32 1.93-3.65 4.89-4.11 6.84-3.41 2.4.86 3.85 3.38 3.68 6.21 1.2-2.96 3.52-3.95 5.49-3.83 2.97.19 5.46 2.77 5.68 5.89l.01.13c.07 3.07-.39 5.51-.83 7.87-.34 1.8-.66 3.5-.78 5.54-.04.65.2.93.29.96s.46-.1.89-.69c1.08-2.83 1.03-5.55.98-8.18-.05-2.88-.11-5.85 1.44-8.53 1.3-2.26 4.1-3.46 6.65-2.85 2.46.59 4.1 2.65 4.36 5.42l.12-.46c1.32-4.54 4.41-5.63 6.67-5.21 2.18.41 3.88 2.17 4.47 4.37a22.76 22.76 0 0 1 .69-1.3c.93-2.04 2.16-3.36 3.44-4.08l.71-.39.29-.06c1.14-.38 2.27-.34 3.26.03 2.46.92 3.7 3.66 2.89 6.4-1.6 6.49-1.66 12.86-.98 15.22 2.51-1.9 4.35-.83 4.87-.45 1.03.77 1.82 2.34.95 4.47-2.31 5.77-4.92 6.8-8.7 6.63-3.33-.15-5.35-1.74-6.57-3.86-1.04 2.05-2.29 3.69-3.87 4.6l-.3.15c-.88.37-1.66.51-2.35.51zm-35.2-29.09c-.09.12-.18.27-.29.46-2.39 4.8-4.46 15.49-2.05 20.51.67 1.41 1.61 2.2 2.96 2.5.29.06.64.04 1-.06-1.82-.64-3.48-2.27-3.73-5.35-.31-4.6.36-7.87 1.07-11.33.36-1.78.74-3.61.99-5.72l.03-.21c.08-.33.06-.6.02-.8zm35.39 23.27c.03.09.07.17.1.23.35-.32.7-.8 1.04-1.39l-1.14 1.16zm-11.88-2.46c.54 1.59 1.39 1.65 1.75 1.68.16.01.32.01.48-.01-.81-.31-1.6-.84-2.23-1.67zm21.84-7.4c-.19 6.35.68 8.77 3.19 8.88h.03c-.04-.02-.08-.05-.11-.07-2.29-1.44-3.04-4.99-3.11-8.81zm-35.36 5.5l.31 1.47c.15.71.46 1.48 2.25 1.64-1.19-.68-2.08-1.78-2.56-3.11zm44.57 2.35h0 0zm-20.3-3.51l.23 1.35-.07-1.27c-.27-4.52.1-6.82.57-9.72.22-1.4.48-2.98.7-5.09.03-.34-.08-.59-.19-.74-.14.18-.36.55-.56 1.24-.9 3.31-.86 4.71-.6 12.48l.04 1.24-.05.28c-.04.08-.05.15-.07.23zm-30-9.98c0 .01-.01.03-.01.04-.66 3.23-1.23 6.02-.98 9.85.02.21.05.37.08.49.29-.24.54-.76.66-2.02a116.01 116.01 0 0 0 .07-3.23l.18-5.13zm24.51.97l-.06.31c-.48 2.45-1.29 6.55-1.12 7.69a3.7 3.7 0 0 0 .14.62c.38-.11.93-.49 1.2-.81l-.01-.38-.15-7.43zm-19.34 7.51l.17.81a8.34 8.34 0 0 1 0-1c.15-2.38.51-4.32.86-6.2.42-2.26.79-4.21.74-6.68-.05-.39-.34-.69-.53-.79-.11.14-.33.51-.49 1.33-.56 2.75-.62 5.92-.68 9.27l-.07 3.26zm14.44-13.91c-.23 0-.5.13-.6.3-.8 1.39-.76 3.32-.72 5.75.03 1.6.06 3.41-.17 5.36.22-1.58.58-3.48 1.02-5.74.35-1.8.84-4.25.82-4.89-.02-.35-.11-.73-.25-.77-.03 0-.06-.01-.1-.01zm21.83 1.27l-.21 5.94c.25-3.14.78-6.05 1.12-7.7-.06.13-.13.26-.2.41l-.16.31a20.18 20.18 0 0 0-.55 1.04z"/><path d="M182.2 98.43c5.7.39 6.22 5.43 5.59 13.19-.23 2.83 2.01.46 2.94-2.63.38-1.25 1.23-.78 1.19.22-.31 8.63-4.33 7.49-4.73 8.74-.77 6.19-4.5 8.1-7.85 7.86-4.68-.33-7.1-4.58-7.01-14.55.1-9.98 4.17-13.22 9.87-12.83h0zm2.19 6.61c-.47.01-.8 1.58-.74 3.49s.48 3.46.94 3.45.8-1.58.74-3.49c-.05-1.92-.48-3.47-.94-3.45h0zm-3.98.11c-5.41 5.03-4.05 15.34-.79 15.58 2.78.17 3.32-2.18 3.51-4.16-2.79-1.71-3.46-5.75-2.72-11.42z" class="D"/><path d="M179.85 128.52c-.24 0-.48-.01-.71-.03-9.67-.69-9.55-13.17-9.51-17.27.06-6.04 1.46-10.24 4.27-12.84 2.16-2 5.02-2.89 8.49-2.65h0c2.52.17 4.51 1.09 5.91 2.72 1.53 1.78 2.19 4.19 2.35 7.17.41-.1.82-.11 1.21-.04 1.66.27 2.82 1.84 2.76 3.72-.24 6.68-2.57 8.97-4.94 10.19-1.29 6.67-5.87 9.03-9.83 9.03zm.03-11.21c.09.26.18.46.26.62a1.87 1.87 0 0 0 .08-.25 5.96 5.96 0 0 1-.34-.37zm5.24-2.68l.87.53-.02.18c.17-.12.34-.22.5-.3a2.78 2.78 0 0 1-.66-.63 3.68 3.68 0 0 1-.69.22zm-4.33-13.52c-1.36.08-2.42.49-3.23 1.24-1.21 1.12-2 3.13-2.34 5.89.74-1.9 1.85-3.67 3.36-5.07l2.21-2.06zm2.83.4l-.13.97a2.52 2.52 0 0 1 .82-.14h.15a2.36 2.36 0 0 0-.26-.36c-.12-.15-.3-.32-.58-.47z"/><use xlink:href="#B" class="D"/><path d="M141.66 97.02c-1.86 0-3.62-.71-4.98-2-1.41-1.34-2.21-3.14-2.27-5.09-.12-4.03 3.04-7.4 7.04-7.51h0c1.94-.05 3.79.65 5.2 2 1.41 1.34 2.21 3.15 2.27 5.09.11 4.03-3.04 7.39-7.04 7.51h-.22zm-.04-9.2c-1.02.03-1.83.91-1.8 1.96.01.51.23.98.59 1.33.36.34.79.52 1.31.51 1.02-.03 1.83-.91 1.8-1.96-.01-.51-.23-.98-.59-1.33s-.82-.53-1.31-.51h0z"/></g><g class="D"><g fill="#ea1d28"><path d="M33.38 126.65c-1.97.02-4.27-1.57-4.13-4.2l1.12-32.85c-2.06-.24-3.11-.22-5.03-.69-2.08-1.09-3.44-5.98-.03-7.66 5.81-.44 11.25-.22 16.75-.07 2.95 1.39 2.67 6.24.08 7.66-1.92.5-2.64.41-4.7.68v32.87c.18 2.64-2.15 4.22-4.06 4.26zm14.79-28.79c-2.95 5.92-3.42 12.05-2.83 20.63.62 6.08 3.6 5.77 5.46 6.18 2.09.21 6.57-1.5 7.54-4.74.44 2.12 1.93 3.58 4.8 3.79 4.39.06 6.56-2.47 8.07-7.95l2.31-8.82c2.05-4.28 5.16-2.28 4.33.95-.66 3.15-1.29 4.14-1.36 8.16-.43 3.92 1.28 6.55 3.29 7.01 4.6 1.46 8.52-1.62 10.09-4.12 1.63 3.95 5.72 6.48 10.74 2.54-.04 3.56-.05 6.56.47 10.02.88 5.7 6.02 8.52 6.03 1.89l-.22-21.25c-.24-4.76 1.43-7.97 1.29-12.73-1.37-2.98-4.58-1.49-6.23-.02-9.44-3.42-11.76 3.87-12.64 12.47l-.29 4.78c-1.07 1.34-4.38 4.15-6.59-.13-.48-1.63-.6-3.24-.38-4.92.31-3.89.99-7.25 2.77-10.43.67-1.16.11-3.29-2.56-2.56-1.98.54-2.93 1.04-5.28 1.12-.77-.05-2.14.06-2.04-1.45.16-6.03-5.16-6.88-4.67.1.12 5.01-.12 5.73 0 10.74.09 4.42-1.29 7.93-2.93 8.91-2.22 1.82-5.31 1.07-5.07-2.67.31-5.05 1.78-8.48 2.33-13.35-.02-2.98-3.95-5.32-6.38.16-.81 3.95-.65 8.6-.8 13.11-.21 2.25-.92 4.23-3.41 4.72-1.04-.07-2.52-.62-2.73-3.18-.43-6.48 1.3-10.24 2.05-16.5.24-2.94-1.55-5.96-5.16-2.46h0zm51.58 4.68c1.27.14 1.78 4.09 1.16 8.8-.63 4.71-2.18 8.43-3.45 8.29-1.26-.14-1.78-4.09-1.15-8.8.63-4.7 2.17-8.43 3.44-8.29zm49.05 17.61c.71 4.24 1.83 6.24 4.44 5.13 3.26-1.88 5.2-9.9 6.17-13.14-.15 4.33-.33 11.76 5.75 12.04 2.56.12 4.19-.24 6.08-4.95.57-1.38-.35-1.93-1.83-.74-5.44 4.42-5.45-8.76-3.11-18.2 1-3.25-3.17-5.41-5.6.07-2.93 4.82-3.41 13-6.84 16.49-.38-6.4.58-7.94 1.25-14.38.34-3.67-4.4-6.14-6.03-.53-1.06 3.9-.96 5.65-.68 14.28-.39 2.19-5.94 5.56-6.74.09-.41-2.78 2.12-12 2.01-14.14-.2-4.19-4.62-4.09-5.99-1.7-2.42 4.21.34 9.98-2.36 16.65-2.48 3.8-6.52 2.03-6.28-1.71.31-5.05 1.72-8.22 1.61-13.2-.24-3.39-5.25-5.58-6.37.16-.81 3.94-.65 8.59-.81 13.11-.21 2.25-.92 4.23-3.41 4.72-1.04-.07-2.52-.62-2.73-3.18-.44-6.48 1.3-10.24 2.05-16.5.76-3.8-3.05-6.39-5.31-2.14-3.15 6.31-6.91 24.81 2.71 26.91 2.86.62 6.64-1.93 7.61-5.17.45 2.11 1.93 3.58 4.8 3.79 1.75.02 3.84.6 8.1-4.74 1.42 8.85 10.41 4.5 11.51.98zm33.55-21.58c5.7.39 6.22 5.43 5.59 13.19-.23 2.83 2.01.46 2.94-2.63.38-1.25 1.23-.78 1.19.22-.31 8.63-4.33 7.49-4.73 8.74-.77 6.19-4.5 8.1-7.85 7.86-4.68-.34-7.1-4.58-7.01-14.55.1-9.98 4.17-13.22 9.87-12.83h0zm2.19 6.6c-.46.01-.8 1.58-.74 3.5.06 1.91.48 3.46.94 3.44.46-.01.8-1.58.74-3.49-.05-1.91-.47-3.46-.94-3.45h0zm-3.98.12c-5.41 5.03-4.05 15.34-.78 15.59 2.78.16 3.32-2.18 3.51-4.16-2.79-1.71-3.47-5.76-2.73-11.43z"/><use xlink:href="#B" x="0.15" y="0.14"/></g><path d="M182.96 139.17c0-.03.01-.04.05-.03.52.14.97.21 1.35.21.22 0 .42-.04.59-.12.22-.11.34-.26.34-.46a.66.66 0 0 0-.13-.4c-.09-.11-.42-.39-1-.83-.7-.52-1.04-1.01-1.04-1.47 0-.68.51-1.17 1.55-1.47.69-.2 1.47-.31 2.35-.31.27 0 .67.02 1.21.07l.81.07.87.18c.02 0 .03.01.04.03v.6c0 .03-.02.04-.06.03-.26-.08-.47-.12-.62-.12-.6 0-.9.21-.9.62 0 .17.13.38.4.62.12.11.28.23.49.38.7.54 1.06 1.05 1.06 1.53 0 .75-.57 1.29-1.72 1.62-.76.24-1.62.35-2.59.35-.88 0-1.66-.08-2.33-.24l-.69-.2c-.01-.01-.01-.02-.01-.03v-.63h-.02zm-.3-.52c.02.02.02.04-.01.06-1.52 1.07-3.15 1.6-4.89 1.6-1.16 0-2.11-.17-2.84-.5-1.39-.62-2.09-1.46-2.09-2.52 0-1.07.7-1.92 2.1-2.55.75-.34 1.72-.51 2.93-.51 1.17 0 2.18.23 3.02.69 1 .55 1.57 1.35 1.72 2.41.01.02 0 .03-.03.03h-5.49c.09.57.37 1.02.85 1.34.44.28.96.43 1.56.43.84 0 1.75-.32 2.72-.96.01-.01.02-.01.04 0l.41.48h0zm-5.69-1.98c-.01.02 0 .03.03.03h1.65c.02 0 .04-.01.05-.03 0-.71-.26-1.34-.8-1.87-.02-.01-.04-.01-.06 0-.51.48-.8 1.1-.87 1.87h0zm1.09-5.17c.01 0 .02-.01.03-.02h3.19c.02 0 .04.01.04.03s-.01.03-.03.05l-3.21 1.75h-1.56c-.06 0-.07-.02-.03-.06l1.57-1.75h0zm-15.32 2.93c0-.02.01-.04.03-.04h3.93c.02.01.03.02.04.04v.35c.88-.34 1.74-.51 2.58-.51 1.23 0 2.02.28 2.38.84.22.31.32.79.32 1.41v3.61c-.01.02-.02.03-.04.04h-4.02c-.02-.01-.03-.02-.03-.04v-3.8c0-.38-.07-.64-.22-.76-.11-.11-.27-.16-.5-.16-.1 0-.22.03-.38.09v4.64c-.01.02-.03.03-.05.04h-4.02c-.02-.01-.03-.02-.03-.04v-5.71h.01zm2.62-2.64c.15-.55.41-.81.79-.8v.01l.21.03.19.05.23.03 2.15.44.21-.75c0-.02.01-.02.03-.01l.74.15c.03 0 .04.01.03.04l-.38 1.6c-.07.31-.15.57-.25.76s-.28.29-.53.29c-.08 0-.13 0-.16-.01-.06 0-.21-.03-.46-.07l-2.27-.43-.18.57c0 .02-.02.02-.05.02l-.76-.16c-.02 0-.03-.01-.02-.04l.48-1.72h0zm-12.4 2.93c0-.02.06-.04.18-.06.57-.12 1.29-.21 2.16-.28.71-.07 1.43-.1 2.18-.1 2.31 0 3.65.27 3.99.82.13.19.19.48.19.88v4.14c-.01.02-.02.03-.04.04h-3.9c-.02-.01-.03-.02-.03-.04v-.27c-1.01.32-1.86.49-2.55.49-.76 0-1.43-.14-2.02-.43-.76-.35-1.14-.87-1.14-1.55 0-.82.48-1.41 1.45-1.8.69-.28 1.52-.43 2.49-.43.64 0 1.18.06 1.63.18l.02-.09v-.09c0-.64-.5-.96-1.5-.96-1.33 0-2.43.25-3.27.74-.02 0-.03-.01-.04-.03l.2-1.16h0zm3.28 3.4c0 .76.45 1.18 1.34 1.26.03.01.04 0 .04-.03v-2.49c0-.03-.02-.04-.04-.03-.38.04-.7.16-.94.36-.26.26-.4.56-.4.93h0zm-10.65-3.69c0-.02.01-.04.03-.04h.69l-.03-1.49c0-.02 0-.03.01-.03l4.23-1.9c.04-.02.06-.01.06.03v3.39h1.13c.02.01.04.02.05.04v.88c-.01.02-.02.03-.05.03h-1.13v3.87c.32.02.7-.03 1.12-.15.04-.01.06 0 .06.03v.74c-.01.02-.02.03-.03.03a10.58 10.58 0 0 1-2.9.41c-1.18 0-1.88-.2-2.11-.61-.21-.35-.33-.65-.38-.9-.03-.16-.04-.48-.04-.97l.02-2.46h-.69c-.02 0-.03-.01-.03-.03v-.87h-.01zm-9.95 0c0-.02.01-.04.03-.04h3.93c.02.01.03.02.04.04v.35c.88-.34 1.74-.51 2.58-.51 1.23 0 2.02.28 2.38.84.22.31.32.79.32 1.41v3.61c-.01.02-.02.03-.05.04h-4.02c-.02-.01-.03-.02-.03-.04v-3.8c0-.38-.07-.64-.22-.76-.11-.11-.28-.16-.5-.16-.1 0-.23.03-.38.09v4.64c-.01.02-.03.03-.04.04h-4.02c-.02-.01-.03-.02-.03-.04v-5.71h.01zm-10.4 4.23c-.35-.44-.52-.91-.52-1.42 0-1.05.61-1.84 1.84-2.37.93-.41 2-.62 3.19-.62s2.24.2 3.17.6c1.23.53 1.85 1.31 1.85 2.34 0 .54-.18 1.04-.53 1.49a3.19 3.19 0 0 1-1.28.94c-1.05.45-2.12.68-3.21.68-1.1 0-2.13-.2-3.08-.6-.61-.26-1.08-.6-1.43-1.04h0zm3.79-.14c.15.51.38.95.69 1.31.02.02.04.02.06 0 .57-.68.85-1.54.85-2.59 0-1-.29-1.84-.85-2.52-.02-.02-.04-.02-.06 0-.57.67-.85 1.51-.85 2.52 0 .48.05.91.16 1.28h0zm-17.16-4.09c0-.02.01-.04.03-.04h3.93c.02.01.04.02.04.04v.35c.57-.34 1.13-.51 1.66-.51.45 0 .83.17 1.15.5.7-.34 1.53-.5 2.49-.5.93 0 1.63.17 2.09.5.26.18.43.37.5.54.1.24.14.68.13 1.32v3.49c-.01.02-.03.03-.04.04h-4.02c-.02-.01-.03-.02-.03-.04v-4.36c0-.32-.15-.47-.44-.47-.16 0-.32.05-.47.15v4.68c-.02.02-.04.03-.07.04h-1.91c-.02-.01-.03-.02-.03-.04v-4.3c0-.32-.14-.49-.43-.49-.13 0-.29.06-.48.16v4.62c-.01.02-.03.03-.04.04h-4.02c-.02-.01-.03-.02-.03-.04v-5.68zm15.42-63.83l-2.41 2.72h2.36l4.96-2.72h-4.91 0zm7.25 11.54l-.55-.69c-1.57 1.03-3.05 1.55-4.43 1.55-1.02 0-1.89-.25-2.62-.74-.81-.56-1.28-1.32-1.41-2.29-.01-.05 0-.07.05-.07h8.89c-.26-1.65-1.18-2.91-2.79-3.77-1.33-.71-2.92-1.07-4.77-1.07-3.54 0-5.97.88-7.27 2.64-.51.7-.76 1.43-.76 2.19 0 1.67 1.11 3 3.31 3.98 1.18.53 2.69.79 4.55.79 2.79 0 5.39-.84 7.8-2.52h0zm-9.08-3.27c.11-1.24.58-2.25 1.41-3.03.03-.02.06-.02.1 0 .86.86 1.29 1.87 1.29 3.03-.02.03-.04.05-.07.05h-2.67c-.06 0-.08-.02-.06-.05h0zm-15.97-3.9l.03-3.77c2.94-1.84 5.6-2.76 7.98-2.76.84 0 1.48.13 1.92.39s.66.6.66 1.01c0 .33-.16.6-.48.79-.25.16-.56.24-.9.24-.48 0-.88-.1-1.22-.29-.21-.13-.52-.41-.95-.86-.16-.16-.26-.24-.29-.24-.01 0-.02.02-.02.07v5.77c0 .03.02.05.05.05h2.02v1.31h-2.02c-.03.01-.05.04-.05.07v8.79l-6.7 2.1V76.75c-.02-.03-.04-.06-.07-.07h-1.03l1.07-1.71h0zm-15.99.81l-.31 1.74c1.4-.76 3.14-1.14 5.24-1.14 1.7 0 2.55.56 2.55 1.67l-.03.14c0 .19-.03.28-.09.26-.73-.19-1.62-.29-2.67-.29-1.52 0-2.84.22-3.95.67-1.53.6-2.29 1.54-2.29 2.81 0 1.05.6 1.85 1.81 2.4.94.45 2 .67 3.17.67 1.11 0 2.5-.26 4.15-.79.06-.02.09 0 .09.05v.43h6.25l-.05-6.63c0-.72-.12-1.2-.35-1.45s-.72-.51-1.46-.76c-.83-.29-2.44-.43-4.84-.43-2.7 0-5.11.22-7.22.65h0zm5.22 5.45c0-.61.21-1.1.64-1.48.4-.33.91-.53 1.53-.6.05-.02.07 0 .07.05v4.03c0 .05-.02.07-.07.05-1.45-.14-2.17-.82-2.17-2.05h0zM91 82.52l-.52-.86c-1.24.54-2.31.81-3.19.81-1.73 0-3.1-.69-4.1-2.07-.89-1.26-1.33-2.78-1.33-4.58a10.12 10.12 0 0 1 .62-3.5c.46-1.22 1.1-2.22 1.93-2.98.05-.03.08-.03.1.02.43.97 1.02 1.76 1.76 2.36.83.67 1.73 1 2.72 1 1.16 0 1.74-.44 1.74-1.31 0-.67-.45-1.28-1.36-1.84-.68-.43-1.44-.75-2.26-.95-.91-.22-1.84-.33-2.81-.33-2.49 0-4.77.73-6.84 2.19-.95.68-1.72 1.58-2.29 2.69s-.86 2.26-.86 3.43c0 2.45.97 4.44 2.91 5.98 1.81 1.45 3.97 2.17 6.48 2.17 2.6.01 5.04-.74 7.3-2.23z" fill="#fff"/></g><defs ><path id="B" d="M141.54 85.12c2.51-.07 4.61 1.93 4.69 4.47.07 2.53-1.91 4.66-4.42 4.73-2.51.08-4.61-1.93-4.69-4.46-.07-2.54 1.91-4.67 4.42-4.74z"/></defs></svg>