<svg xmlns="http://www.w3.org/2000/svg" xmlns:xlink="http://www.w3.org/1999/xlink" viewBox="0 0 299 390" xmlns:v="https://vecta.io/nano"><path d="M57 234.84c.28-.54.64-.95 1.08-1.23s.97-.44 1.65-.44c1.11 0 1.82.42 2.36 1.07.53.64.85 1.54 1 2.45.02.17.05.32.1.46.09.23.27.43.49.54s.46.14.71.14h5.78c.17 0 .34-.02.49-.09.23-.09.42-.27.51-.47a1.43 1.43 0 0 0 .12-.6l-.01-.23c-.06-2.99-1.03-5.79-2.96-7.84s-4.81-3.33-8.59-3.33c-4.04 0-7.09 1.4-9.08 3.88s-2.93 5.98-2.93 10.15v13.46c0 4.16.94 7.67 2.93 10.15s5.04 3.89 9.08 3.88c3.77 0 6.66-1.27 8.59-3.32s2.9-4.85 2.96-7.84c0-.08.01-.15.01-.23 0-.26-.04-.54-.24-.79a.9.9 0 0 0-.38-.28c-.15-.06-.32-.09-.49-.09H64.4c-.17 0-.33.01-.49.06a1.04 1.04 0 0 0-.6.41c-.14.2-.2.43-.22.68-.15.91-.47 1.81-1 2.46-.54.64-1.25 1.06-2.36 1.06-.68 0-1.2-.16-1.65-.44-.66-.42-1.14-1.14-1.45-2.13-.32-.99-.46-2.22-.46-3.58V239.3c0-1.8.26-3.39.83-4.46m41.95-8.88c-.26-.15-.57-.2-.91-.2h-5.46c-.23 0-.43.02-.63.08-.29.08-.56.27-.7.54-.15.26-.2.57-.2.91v16.37 9.11c0 1.82-.24 3.41-.8 4.48-.28.54-.63.95-1.07 1.23-.43.28-.96.43-1.64.44-.68 0-1.2-.16-1.65-.44-.66-.42-1.14-1.14-1.45-2.13s-.45-2.22-.45-3.58v-6.04-19.44c0-.23-.02-.43-.08-.63-.08-.29-.27-.56-.54-.7-.26-.15-.57-.2-.9-.2h-5.41c-.22 0-.43.02-.62.08-.29.08-.56.27-.7.54-.15.26-.2.57-.2.91v16.42 9.06c0 4.17.94 7.67 2.93 10.15s5.04 3.89 9.08 3.88c4.02 0 7.07-1.4 9.06-3.88 2-2.48 2.95-5.98 2.96-10.15v-5.72-19.76c0-.23-.02-.43-.08-.63-.09-.28-.28-.55-.54-.7m13.54 23.59c0-.18.01-.32.03-.4.01-.06.03-.09.04-.1.01-.02.02-.03.09-.06a1.82 1.82 0 0 1 .42-.04h1.96c1.1 0 1.99.37 2.63 1.08s1.04 1.81 1.04 3.33v.95c0 1.49-.42 2.58-1.06 3.31-.65.72-1.54 1.1-2.61 1.1h-1.96c-.18 0-.31-.01-.39-.03-.06-.02-.09-.03-.1-.04s-.03-.02-.05-.09a1.82 1.82 0 0 1-.04-.42v-8.59zm5.48-11.88c0 1.22-.34 2.14-.88 2.74-.53.6-1.25.92-2.1.93h-1.91c-.18 0-.31-.01-.39-.03-.06-.01-.09-.03-.1-.04s-.03-.02-.05-.09a1.82 1.82 0 0 1-.04-.42v-6.57c0-.24.01-.42.04-.53.02-.09.04-.14.06-.17s.02-.03.09-.06a1.59 1.59 0 0 1 .41-.04h1.91c.88 0 1.59.32 2.12.92.52.6.86 1.52.86 2.74v.62zm4.49 7.37c2.06-1.59 3.81-4.53 3.81-8.21v-.64c0-2.85-1.03-5.46-2.82-7.36-1.79-1.89-4.35-3.07-7.34-3.07h-10.54c-.23 0-.43.02-.63.08-.29.09-.56.27-.7.54-.15.26-.2.57-.2.91v37.51c0 .23.02.43.08.63a1.15 1.15 0 0 0 .54.7c.26.15.57.19.91.19h10.7c3.36 0 6.1-1.2 7.99-3.19s2.91-4.77 2.91-7.87v-.79c0-2.16-.49-4.19-1.4-5.9-.8-1.49-1.92-2.72-3.31-3.53m20.08-3.23l2.08 10.44v.05.06h-.01-4.13-.03l.01-.05v-.01l2.08-10.49zm12.91 22.95l-8.96-37.61a2.75 2.75 0 0 0-.23-.65c-.15-.28-.4-.5-.68-.6s-.58-.12-.92-.12h-4.29c-.23 0-.43.01-.63.04-.29.05-.59.18-.79.43-.21.24-.33.54-.42.91l-8.95 37.61c-.04.17-.07.32-.07.47 0 .18.03.35.1.5a.99.99 0 0 0 .51.48c.21.09.43.12.64.12h5.56c.19 0 .38-.01.56-.06.27-.06.53-.21.72-.44s.31-.52.4-.87v-.01l1.01-4.55a1.03 1.03 0 0 1 .1-.29l.05-.07c.01-.01.03-.03.11-.05a3.31 3.31 0 0 1 .4-.02h5.67c.16 0 .28 0 .36.02a.5.5 0 0 1 .12.03c.03.01.03.02.07.07.03.05.07.15.11.31l1.01 4.55v.01c.06.24.13.44.23.62.15.27.36.49.62.6.26.12.53.15.83.15h5.56c.29 0 .59-.05.85-.23a1.05 1.05 0 0 0 .32-.37c.07-.15.1-.32.1-.5a1.99 1.99 0 0 0-.07-.48zm11.75-29.92c.28-.54.64-.95 1.08-1.23s.97-.44 1.65-.44c1.11 0 1.82.42 2.36 1.07.53.64.85 1.54 1 2.45.02.17.05.32.1.46.09.23.27.43.49.54s.46.14.71.14h5.78c.17 0 .34-.02.49-.09.23-.09.42-.27.51-.47a1.43 1.43 0 0 0 .12-.6l-.01-.23c-.06-2.99-1.03-5.79-2.96-7.84s-4.81-3.33-8.59-3.33c-4.04 0-7.09 1.4-9.08 3.88s-2.93 5.98-2.93 10.15v13.46c0 4.16.94 7.67 2.93 10.15s5.04 3.89 9.08 3.88c3.77 0 6.66-1.27 8.59-3.32s2.9-4.85 2.96-7.84c0-.08.01-.15.01-.23 0-.26-.04-.54-.24-.79a.9.9 0 0 0-.38-.28c-.15-.06-.32-.09-.49-.09h-5.78c-.17 0-.33.01-.49.06a1.04 1.04 0 0 0-.6.41c-.14.2-.2.43-.22.68-.15.91-.47 1.81-1 2.46-.54.64-1.25 1.06-2.36 1.06-.68 0-1.2-.16-1.65-.44-.66-.42-1.14-1.14-1.45-2.13-.32-.99-.46-2.22-.46-3.58V239.3c.01-1.8.26-3.39.83-4.46m29.7 6.97l2.08 10.44v.05.06h-.01-4.13-.03l.01-.05v-.01l2.08-10.49zm12.91 22.95l-8.95-37.61c-.06-.25-.13-.46-.24-.65-.15-.28-.4-.5-.69-.6-.28-.1-.58-.12-.92-.12h-4.29c-.23 0-.43.01-.63.04-.29.05-.59.18-.79.43-.21.24-.33.54-.42.91l-8.95 37.61c-.04.17-.07.32-.07.47 0 .18.03.35.1.5a.99.99 0 0 0 .51.48c.21.09.43.12.64.12h5.56c.19 0 .38-.01.56-.06.27-.06.53-.21.72-.44s.31-.52.4-.87h0l1.01-4.55a1.03 1.03 0 0 1 .1-.29l.05-.07c.01-.01.03-.03.11-.05a3.31 3.31 0 0 1 .4-.02h5.67c.16 0 .28 0 .36.02a.5.5 0 0 1 .12.03c.03.01.03.02.07.07.03.05.07.15.11.31l1 4.55v.01c.06.24.13.44.23.62.15.27.36.49.62.6.26.12.53.15.83.15h5.56c.29 0 .59-.05.85-.23a1.05 1.05 0 0 0 .32-.37c.07-.15.1-.32.1-.5.02-.17-.01-.33-.05-.49zm21.01-38.8c-.26-.15-.57-.2-.91-.2H214.6c-.23 0-.43.02-.63.08-.29.08-.56.27-.7.54-.15.26-.2.57-.2.91v37.51c0 .23.02.43.08.63a1.15 1.15 0 0 0 .54.7c.26.15.57.19.91.19h5.4c.23 0 .43-.02.63-.08a1.15 1.15 0 0 0 .7-.54c.15-.27.19-.57.19-.91v-14.68c0-.18.01-.31.03-.39.02-.06.03-.09.04-.1.01-.02.02-.03.09-.05a1.82 1.82 0 0 1 .42-.04h5.14c.23 0 .43-.02.63-.08.29-.08.56-.27.7-.54.15-.26.2-.57.2-.91v-4.55c0-.23-.02-.43-.08-.63-.08-.29-.27-.56-.54-.7-.26-.15-.57-.2-.91-.2h-5.14c-.18 0-.31-.01-.39-.03-.06-.01-.09-.03-.1-.04-.01-.02-.03-.02-.05-.1a1.82 1.82 0 0 1-.04-.42v-7.36c0-.18.01-.31.03-.39.02-.06.03-.09.04-.1.01-.02.02-.03.09-.05a1.82 1.82 0 0 1 .42-.04h7.79c.23 0 .43-.02.63-.08.29-.08.56-.27.7-.54.15-.26.19-.57.2-.91v-4.55c0-.23-.02-.43-.08-.63-.06-.3-.25-.57-.52-.72m8.07-2.99h0c.16.24.3.43.49.59.18.16.43.26.68.26.32 0 .59-.13.88-.31h0l9.6-6.47h0c.21-.15.39-.29.54-.46s.26-.4.25-.64c0-.17-.04-.33-.1-.48-.07-.15-.15-.3-.26-.47h0l-1.7-2.55h0c-.16-.23-.3-.41-.49-.57a1.05 1.05 0 0 0-.67-.26c-.33 0-.6.14-.9.34l-9.59 6.41h0c-.23.16-.42.31-.57.49s-.26.42-.26.68c0 .33.15.6.35.9l1.75 2.54zm4.61 10.6c.01-.06.03-.09.04-.1s.01-.03.09-.05a1.82 1.82 0 0 1 .42-.04h7.63c.23 0 .43-.02.63-.08.29-.08.56-.27.7-.54.15-.27.19-.57.2-.91v-4.56c0-.23-.02-.43-.08-.63-.08-.29-.27-.56-.54-.7-.26-.15-.57-.19-.91-.2h-15.15c-.23 0-.43.02-.63.08-.29.09-.55.27-.7.54s-.19.57-.19.91v37.51c0 .23.02.43.08.63.08.29.27.56.54.7.27.15.57.19.91.2h15.15c.23 0 .43-.02.63-.08.29-.09.56-.27.7-.54.15-.27.19-.57.2-.91v-4.56c0-.22-.02-.43-.08-.63a1.15 1.15 0 0 0-.54-.7c-.26-.15-.57-.2-.91-.2h-7.63c-.18 0-.31-.01-.39-.03-.06-.01-.09-.03-.1-.04-.02-.01-.03-.02-.05-.09a1.82 1.82 0 0 1-.04-.42v-8c0-.18.01-.31.03-.39.01-.06.03-.09.04-.1s.01-.03.09-.05a1.82 1.82 0 0 1 .42-.04h7.63c.23 0 .43-.02.63-.08.29-.08.56-.27.7-.54.15-.26.19-.57.2-.91v-4.55c0-.23-.02-.43-.08-.63-.08-.29-.27-.56-.54-.7-.26-.15-.57-.19-.91-.2h-7.63c-.18 0-.31-.01-.39-.03-.06-.01-.09-.03-.1-.04-.02-.01-.03-.02-.05-.1a1.82 1.82 0 0 1-.04-.42v-7.36c-.01-.2 0-.34.02-.42" fill="#fff"/><g fill="#ae841f"><path d="M0 314.52v-32c0-.68.27-.95.95-.95h1.22c.68 0 .9.45 1.04.95l7 26.12a.28.28 0 0 0 .54 0l7.05-26.12c.14-.5.36-.95 1.04-.95h1.17c.68 0 .95.27.95.95v32c0 .68-.27.95-.95.95h-1.49c-.68 0-.95-.27-.95-.95v-19.66c0-.41-.45-.45-.54-.05l-5.2 19.75c-.18.72-.45.9-1.17.9h-.32c-.72 0-.99-.18-1.17-.9l-5.2-19.75c-.09-.41-.54-.36-.54.05v19.66c0 .68-.27.95-.95.95H.95c-.68 0-.95-.27-.95-.95zm31.74-32.04c.14-.77.45-.9 1.18-.9h1.26c.72 0 .99.14 1.18.9l6.78 32.09c.14.68-.18.9-.68.9h-1.67c-.59 0-.86-.23-.99-.9l-1.4-6.64c-.14-.54-.32-.63-.9-.63h-5.88c-.59 0-.81.09-.9.63l-1.4 6.64c-.14.68-.41.9-.99.9h-1.67c-.5 0-.81-.23-.68-.9l6.76-32.09zm-.9 21.78h5.42c.27 0 .41-.13.36-.49l-2.8-14.51c-.09-.32-.5-.32-.54 0l-2.8 14.51c-.09.36.13.49.36.49z"/><use xlink:href="#B"/><path d="M70.45 315.83c-4.52 0-7.86-3.39-8.04-7.59 0-.41.04-.81.59-.81h1.81c.5 0 .77.18.81.63.32 2.49 2.12 4.7 4.88 4.7 2.62 0 4.52-1.99 4.56-4.79.14-7.01-12.06-11.52-12.06-19.61 0-4.07 3.03-7.14 7.14-7.14 4.16 0 6.82 3.12 7.14 6.73.05.45-.05.81-.59.81h-1.85c-.5 0-.68-.13-.77-.59-.41-2.21-1.76-3.84-3.84-3.84-2.17 0-3.84 1.72-3.79 3.93.18 5.7 12.07 10.89 12.07 19.48-.01 4.89-3.85 8.09-8.06 8.09zm25.28-33.3v1.13c0 .68-.27.95-.95.95h-3.84c-.68 0-.86.18-.86.86v29.06c0 .68-.27.95-.95.95H87.6c-.68 0-.95-.27-.95-.95v-29.06c0-.68-.18-.86-.86-.86h-3.84c-.68 0-.95-.27-.95-.95v-1.13c0-.68.27-.95.95-.95h12.84c.67 0 .94.27.94.95zm19.09 32.94h-1.94c-.54 0-.86-.18-1.04-.63l-5.06-13.11h-.09-2.67c-.68 0-.86.18-.86.86v11.93c0 .68-.27.95-.95.95h-1.54c-.68 0-.95-.27-.95-.95v-32c0-.68.27-.95.95-.95h6.01c4.29 0 7.37 2.98 7.37 8.5v3.16c0 3.98-1.58 6.6-4.07 7.82l5.33 13.51c.23.55 0 .91-.49.91zm-10.8-16.85h2.49c2.08 0 4.16-1.54 4.16-5.29v-3.39c0-3.75-2.08-5.33-4.16-5.33h-2.49c-.68 0-.86.18-.86.86v12.29c0 .68.18.86.86.86zm14.83 8.4v-16.99c0-5.69 2.89-8.81 7.55-8.81 4.61 0 7.5 3.12 7.5 8.81v16.99c0 5.69-2.89 8.81-7.5 8.81-4.66 0-7.55-3.12-7.55-8.81zm11.66 0v-16.99c0-3.8-1.85-5.6-4.11-5.6s-4.11 1.8-4.11 5.6v16.99c0 3.8 1.85 5.6 4.11 5.6 2.26.01 4.11-1.8 4.11-5.6zm15.88 8.81c-4.52 0-7.86-3.39-8.04-7.59 0-.41.04-.81.59-.81h1.81c.5 0 .77.18.81.63.32 2.49 2.12 4.7 4.88 4.7 2.62 0 4.52-1.99 4.56-4.79.14-7.01-12.07-11.52-12.07-19.61 0-4.07 3.03-7.14 7.14-7.14 4.16 0 6.82 3.12 7.14 6.73.05.45-.05.81-.59.81h-1.85c-.5 0-.68-.13-.77-.59-.41-2.21-1.76-3.84-3.84-3.84-2.17 0-3.84 1.72-3.79 3.93.18 5.7 12.07 10.89 12.07 19.48-.01 4.89-3.85 8.09-8.05 8.09zm38.12-25.03v15.45c0 6.1-2.89 9.22-8.32 9.22h-5.96c-.68 0-.95-.27-.95-.95v-32c0-.68.27-.95.95-.95h5.96c5.43.01 8.32 3.12 8.32 9.23zm-3.39-.23c0-4.16-1.85-5.96-5.06-5.96h-2.49c-.68 0-.86.18-.86.86v26.12c0 .68.18.86.86.86h2.49c3.21 0 5.06-1.81 5.06-5.97v-15.91z"/><use xlink:href="#B" x="143.5"/><path d="M218.52 313.39v1.13c0 .68-.27.95-.95.95h-10.12c-.68 0-.95-.27-.95-.95v-32c0-.68.27-.95.95-.95h1.54c.68 0 .95.27.95.95v29.06c0 .68.18.86.86.86h6.78c.67.01.94.27.94.95zm13.35-6.37v-16.99c0-5.69 2.89-8.81 7.55-8.81 4.29 0 6.87 2.8 7.23 6.82.04.41-.05.82-.59.82h-1.9c-.5 0-.68-.14-.77-.59-.41-2.26-1.85-3.84-3.93-3.84-2.3 0-4.16 1.8-4.16 5.6v16.99c0 3.8 1.85 5.6 4.16 5.6 2.08 0 3.53-1.58 3.93-3.84.09-.45.27-.59.77-.59h1.9c.54 0 .63.41.59.81-.36 4.02-2.94 6.82-7.23 6.82-4.66.01-7.55-3.11-7.55-8.8zm24.87-24.54c.14-.77.45-.9 1.18-.9h1.26c.72 0 .99.14 1.18.9l6.78 32.09c.14.68-.18.9-.68.9h-1.67c-.59 0-.86-.23-.99-.9l-1.4-6.64c-.14-.54-.32-.63-.9-.63h-5.88c-.59 0-.81.09-.9.63l-1.4 6.64c-.14.68-.41.9-.99.9h-1.67c-.5 0-.81-.23-.68-.9l6.76-32.09zm-.91 21.78h5.42c.27 0 .41-.13.36-.49l-2.8-14.51c-.09-.32-.5-.32-.54 0l-2.8 14.51c-.09.36.14.49.36.49zm27.18-21.73v1.13c0 .68-.27.95-.95.95h-6.69c-.68 0-.86.18-.86.86v10.08c0 .68.18.86.86.86h4.43c.68 0 .95.27.95.95v1.13c0 .68-.27.95-.95.95h-4.43c-.68 0-.86.18-.86.86v14.24c0 .68-.27.95-.95.95h-1.54c-.68 0-.95-.27-.95-.95v-32c0-.68.27-.95.95-.95h10.03c.69-.01.96.26.96.94zm7.42 13.01c0 .68.18.86.86.86h6.64c.68 0 .95.27.95.95v1.13c0 .68-.27.95-.95.95h-6.64c-.68 0-.86.18-.86.86v11.3c0 .68.18.86.86.86h6.64c.68 0 .95.27.95.95v1.13c0 .68-.27.95-.95.95h-9.99c-.68 0-.95-.27-.95-.95v-32c0-.68.27-.95.95-.95h9.99c.68 0 .95.27.95.95v1.13c0 .68-.27.95-.95.95h-6.64c-.68 0-.86.18-.86.86v10.07zm6.78-21.33l-6.87 4.57c-.59.41-.86.27-1.26-.32l-.5-.72c-.41-.59-.27-.86.32-1.27l6.87-4.56c.59-.41.86-.27 1.26.31l.5.72c.4.59.27.86-.32 1.27z"/></g><g fill="#fff"><path d="M33.45 341.01c0 .39.11.5.5.5h3.78c.39 0 .55.16.55.55v1.84c0 .39-.16.55-.55.55h-3.78c-.39 0-.5.11-.5.5v4.65c0 .39.11.5.5.5h3.78c.39 0 .55.16.55.55v1.84c0 .39-.16.55-.55.55H30.7c-.39 0-.55-.16-.55-.55V333.9c0-.39.16-.55.55-.55h7.03c.39 0 .55.16.55.55v1.84c0 .39-.16.55-.55.55h-3.78c-.39 0-.5.11-.5.5v4.22zm23.19 2.1v9.37c0 .39-.16.55-.55.55h-2.02c-.39 0-.55-.16-.55-.55v-8.9c0-1.52-.84-2.05-1.63-2.02s-1.57.63-1.57 2.07v8.85c0 .39-.16.55-.55.55h-1.99c-.39 0-.55-.16-.55-.55v-8.9c0-1.52-.87-2.05-1.65-2.02-.81.03-1.57.63-1.57 2.02v8.9c0 .39-.16.55-.55.55h-1.99c-.39 0-.55-.16-.55-.55v-12.92c0-.39.16-.55.55-.55h1.47c.39 0 .52.18.6.58l.18.81c.53-.68 1.29-1.34 2.36-1.55 1.44-.26 2.91.39 3.68 1.81.6-.84 1.5-1.57 2.63-1.81 2.12-.39 4.25 1.19 4.25 4.26zm12.08 0v5.83c0 3.07-2.18 4.65-4.3 4.25-.89-.18-1.6-.68-2.13-1.23v5.99c0 .39-.16.55-.55.55h-1.99c-.39 0-.55-.16-.55-.55v-18.38c0-.39.16-.55.55-.55h1.47c.39 0 .52.18.6.58l.18.84c.55-.71 1.34-1.37 2.42-1.57 2.12-.41 4.3 1.17 4.3 4.24zm-3.1.47c0-1.52-.92-2.05-1.71-2.02-.81.03-1.63.63-1.63 2.02v4.38.5c0 1.39.81 1.99 1.63 2.02.79.03 1.71-.5 1.71-2.02v-4.88zm11.89-4.17v1.97c0 .39-.16.55-.55.55-1.55 0-2.7.79-2.7 2.68v7.88c0 .39-.16.55-.55.55h-1.99c-.39 0-.55-.16-.55-.55v-12.92c0-.39.16-.55.55-.55h1.47c.39 0 .52.18.6.58l.16.73c.87-1.05 1.92-1.47 3.02-1.47.39 0 .54.15.54.55zm10.88 4.64v.45c0 .55-.03.87-.08 1.37-.03.39-.16.55-.55.55h-5.38c-.21 0-.26.05-.26.26v1.84c0 1.44.92 1.97 1.71 1.97s1.29-.53 1.5-1.13c.08-.24.21-.31.45-.31h2.02c.32 0 .37.24.34.47-.32 2.81-2.42 3.75-4.31 3.75-2.28 0-4.73-1.37-4.73-5.72v-3.05c0-4.36 2.44-5.72 4.73-5.72 2.09 0 4.56 1.18 4.56 5.27zm-4.49-2.65c-.76 0-1.79.53-1.79 2.02v.58c0 .21.05.26.26.26h3.05c.21 0 .26-.05.26-.26v-.58c0-1.49-1.02-2.02-1.78-2.02zm6.54 8.11c-.03-.24.03-.47.34-.47h2.07c.24 0 .39.08.45.31.21.76.68 1.29 1.47 1.29.73 0 1.37-.45 1.37-1.26.08-2.31-5.28-2.55-5.51-6.56-.13-2.44 1.76-4.04 4.07-4.04 1.94 0 3.99 1.18 4.07 3.75.03.24-.03.47-.34.47h-1.89c-.24 0-.39-.08-.45-.31-.13-.58-.47-1.26-1.26-1.29-.73-.03-1.23.53-1.23 1.1-.05 2.05 5.78 2.65 5.7 6.85-.05 2.49-2.1 3.91-4.44 3.91-2.38.01-4.08-1.38-4.42-3.75zm10.74-.57c0-3.83 3.1-4.57 6.3-4.94v-.81c0-1.23-.76-1.79-1.6-1.79-.81 0-1.34.53-1.5 1.29-.05.24-.21.31-.45.31h-1.89c-.32 0-.34-.24-.34-.47.08-2.63 2.15-3.75 4.36-3.75 2.26 0 4.49 1.34 4.49 4.94l.03 6.27c0 1.31.11 1.84.24 2.52.08.39-.13.53-.53.53h-1.89c-.39 0-.5-.13-.6-.97-.58.63-1.39 1.02-2.23 1.15-2.16.36-4.39-1.13-4.39-4.28zm6.3-.48v-2.6c-2.07.31-3.26.81-3.2 2.78.03 1.31.81 1.89 1.63 1.84.78-.02 1.57-.63 1.57-2.02zm20.72-14.57v18.59c0 .39-.16.55-.55.55h-1.5c-.39 0-.5-.18-.58-.58l-.18-.87c-.55.71-1.34 1.39-2.42 1.6-2.15.39-4.31-1.18-4.31-4.25v-5.83c0-3.07 2.15-4.65 4.31-4.25.89.18 1.6.68 2.13 1.26v-6.22c0-.39.16-.55.55-.55h2c.39 0 .55.16.55.55zm-3.1 14.57v-4.38-.5c0-1.39-.84-1.99-1.63-2.02s-1.71.5-1.71 2.02v4.88c0 1.5.92 2.05 1.71 2.02.79-.02 1.63-.63 1.63-2.02zm14.83-4.41v.45c0 .55-.03.87-.08 1.37-.03.39-.16.55-.55.55h-5.38c-.21 0-.26.05-.26.26v1.84c0 1.44.92 1.97 1.71 1.97s1.29-.53 1.5-1.13c.08-.24.21-.31.45-.31h2.02c.32 0 .37.24.34.47-.32 2.81-2.42 3.75-4.31 3.75-2.28 0-4.73-1.37-4.73-5.72v-3.05c0-4.36 2.44-5.72 4.73-5.72 2.1 0 4.56 1.18 4.56 5.27zm-4.49-2.65c-.76 0-1.79.53-1.79 2.02v.58c0 .21.05.26.26.26h3.05c.21 0 .26-.05.26-.26v-.58c.01-1.49-1.01-2.02-1.78-2.02zm22.35-7.51v1.84c0 .39-.16.55-.55.55h-2.31c-.39 0-.5.11-.5.5v15.7c0 .39-.16.55-.55.55h-2.18c-.39 0-.55-.16-.55-.55v-15.7c0-.39-.11-.5-.5-.5h-2.31c-.39 0-.55-.16-.55-.55v-1.84c0-.39.16-.55.55-.55h8.9c.39 0 .55.16.55.55zm.92 14.1v-3.94c0-3.86 2.52-5.28 4.75-5.28 2.26 0 4.78 1.42 4.78 5.28v3.94c0 3.86-2.52 5.28-4.78 5.28-2.23 0-4.75-1.42-4.75-5.28zm4.75-6.43c-.76 0-1.65.5-1.65 2.02v4.88c0 1.5.89 2.02 1.65 2.02s1.68-.53 1.68-2.02v-4.88c0-1.52-.92-2.02-1.68-2.02zm13.58-2.15v1.97c0 .39-.16.55-.55.55-1.55 0-2.7.79-2.7 2.68v7.88c0 .39-.16.55-.55.55h-2c-.39 0-.55-.16-.55-.55v-12.92c0-.39.16-.55.55-.55h1.47c.39 0 .53.18.6.58l.16.73c.87-1.05 1.92-1.47 3.02-1.47.39 0 .55.15.55.55zm8.06 0v1.97c0 .39-.16.55-.55.55-1.55 0-2.7.79-2.7 2.68v7.88c0 .39-.16.55-.55.55h-1.99c-.39 0-.55-.16-.55-.55v-12.92c0-.39.16-.55.55-.55h1.47c.39 0 .52.18.6.58l.16.73c.87-1.05 1.92-1.47 3.02-1.47.38 0 .54.15.54.55zm10.87 4.64v.45c0 .55-.03.87-.08 1.37-.03.39-.16.55-.55.55h-5.38c-.21 0-.26.05-.26.26v1.84c0 1.44.92 1.97 1.71 1.97s1.29-.53 1.5-1.13c.08-.24.21-.31.45-.31h2.02c.31 0 .37.24.34.47-.31 2.81-2.42 3.75-4.31 3.75-2.28 0-4.72-1.37-4.72-5.72v-3.05c0-4.36 2.44-5.72 4.72-5.72 2.09 0 4.56 1.18 4.56 5.27zm-4.49-2.65c-.76 0-1.78.53-1.78 2.02v.58c0 .21.05.26.26.26H193c.21 0 .26-.05.26-.26v-.58c.01-1.49-1.02-2.02-1.78-2.02zm7.78 11.08v-10.55c0-.31-.08-.39-.39-.39h-.5c-.39 0-.55-.16-.55-.55v-1.42c0-.39.16-.55.55-.55h.52c.32 0 .39-.08.39-.34v-1.44c0-2.7 1.63-3.89 4.7-3.89.39 0 .55.16.55.55v1.55c0 .39-.16.55-.55.55-1.08 0-1.68.45-1.68 1.23v1.44c0 .24.08.34.34.34h1.34c.39 0 .55.16.55.55v1.42c0 .39-.16.55-.55.55h-1.21c-.32 0-.42.08-.42.39v10.55c0 .39-.16.55-.55.55h-1.99c-.4.01-.55-.15-.55-.54zm7.09-3.54c0-3.83 3.1-4.57 6.3-4.94v-.81c0-1.23-.76-1.79-1.6-1.79-.81 0-1.34.53-1.5 1.29-.05.24-.21.31-.45.31h-1.89c-.32 0-.34-.24-.34-.47.08-2.63 2.15-3.75 4.36-3.75 2.26 0 4.49 1.34 4.49 4.94l.03 6.27c0 1.31.11 1.84.24 2.52.08.39-.13.53-.52.53h-1.89c-.39 0-.5-.13-.6-.97-.58.63-1.39 1.02-2.23 1.15-2.17.36-4.4-1.13-4.4-4.28zm6.3-.48v-2.6c-2.07.31-3.26.81-3.2 2.78.03 1.31.81 1.89 1.63 1.84.78-.02 1.57-.63 1.57-2.02zm14.23 1.05c-.31 2.81-2.39 3.75-4.3 3.75-2.39 0-4.65-1.37-4.65-5.28v-3.94c0-3.91 2.26-5.28 4.65-5.28 1.92 0 3.99.95 4.3 3.75.03.24-.03.47-.34.47h-1.94c-.24 0-.37-.08-.45-.31-.21-.63-.68-1.13-1.47-1.13s-1.65.53-1.65 1.97v4.99c0 1.44.87 1.97 1.65 1.97.79 0 1.29-.53 1.47-1.13.08-.24.21-.31.45-.31h1.94c.31.01.37.25.34.48zm11.26 0c-.32 2.81-2.39 3.75-4.31 3.75-2.39 0-4.65-1.37-4.65-5.28v-3.94c0-3.91 2.26-5.28 4.65-5.28 1.92 0 3.99.95 4.31 3.75.03.24-.03.47-.34.47h-1.94c-.24 0-.37-.08-.45-.31-.21-.63-.68-1.13-1.47-1.13s-1.65.53-1.65 1.97v4.99c0 1.44.87 1.97 1.65 1.97.79 0 1.29-.53 1.47-1.13.08-.24.21-.31.45-.31h1.94c.32.01.37.25.34.48zm2.06-15.14c0-1.05.87-1.92 1.94-1.92 1.05 0 1.89.87 1.89 1.92s-.84 1.92-1.89 1.92c-1.08-.01-1.94-.87-1.94-1.92zm3.49 5.19v12.92c0 .39-.16.55-.55.55h-2c-.39 0-.55-.16-.55-.55v-12.92c0-.39.16-.55.55-.55h2c.39 0 .55.16.55.55zm2.41 8.43v-3.94c0-3.86 2.52-5.28 4.75-5.28 2.26 0 4.78 1.42 4.78 5.28v3.94c0 3.86-2.52 5.28-4.78 5.28-2.23 0-4.75-1.42-4.75-5.28zm5.52-16.3c.29-.29.5-.29.79 0l1 1.05c.29.29.29.47 0 .76l-3.44 3.26c-.29.29-.52.26-.79 0l-1.05-1.02c-.26-.26-.26-.53 0-.79l3.49-3.26zm-.76 9.87c-.76 0-1.65.5-1.65 2.02v4.88c0 1.5.89 2.02 1.65 2.02s1.68-.53 1.68-2.02v-4.88c0-1.52-.92-2.02-1.68-2.02zm16.75 1.55v9.37c0 .39-.16.55-.55.55h-1.99c-.39 0-.55-.16-.55-.55v-8.9c0-1.52-.92-2.05-1.71-2.02-.81.03-1.63.63-1.63 2.02v8.9c0 .39-.16.55-.55.55h-1.99c-.39 0-.55-.16-.55-.55v-12.92c0-.39.16-.55.55-.55h1.47c.39 0 .52.18.6.58l.18.84c.55-.71 1.34-1.37 2.42-1.57 2.12-.4 4.3 1.18 4.3 4.25zM15.05 389.45v-1.68c0-.39.16-.52.55-.55.84-.08 1.68-.24 2-1.26.52-1.71.52-1.92.26-2.7l-3.7-12.21c-.08-.34.05-.53.34-.53h2.18c.34 0 .53.18.6.53l2.13 8.01c.05.18.26.18.32 0l2.07-8.01c.1-.34.26-.53.6-.53h2.18c.29 0 .47.18.34.53l-5.04 16.35c-.63 2.07-2.55 2.6-4.28 2.6-.4 0-.55-.18-.55-.55zm17.22-11v-7.51c0-3.88 1.81-6.33 5.38-6.33 3.33 0 5.07 2.23 5.17 4.96 0 .26-.03.47-.34.47h-2.39c-.29 0-.42-.1-.45-.37-.18-1.08-.79-1.99-1.99-1.99-1.42 0-2.07 1.31-2.07 3.26v7.51c0 1.94.66 3.26 2.07 3.26 1.21 0 1.81-.92 1.99-1.99.03-.26.16-.37.45-.37h2.39c.32 0 .34.21.34.47-.1 2.73-1.84 4.96-5.17 4.96-3.57 0-5.38-2.44-5.38-6.33zm13 1.05v-3.94c0-3.86 2.52-5.28 4.75-5.28 2.26 0 4.78 1.42 4.78 5.28v3.94c0 3.86-2.52 5.28-4.78 5.28-2.23 0-4.75-1.42-4.75-5.28zm4.75-6.43c-.76 0-1.65.5-1.65 2.02v4.88c0 1.5.89 2.02 1.65 2.02s1.68-.52 1.68-2.02v-4.88c0-1.52-.92-2.02-1.68-2.02zM73 374.62v9.37c0 .39-.16.55-.55.55h-2.02c-.39 0-.55-.16-.55-.55v-8.9c0-1.52-.84-2.05-1.63-2.02s-1.57.63-1.57 2.07v8.85c0 .39-.16.55-.55.55h-1.99c-.39 0-.55-.16-.55-.55v-8.9c0-1.52-.87-2.05-1.65-2.02-.81.03-1.57.63-1.57 2.02v8.9c0 .39-.16.55-.55.55H57.8c-.39 0-.55-.16-.55-.55v-12.92c0-.39.16-.55.55-.55h1.47c.39 0 .52.18.6.58l.18.81c.53-.68 1.29-1.34 2.36-1.55 1.44-.26 2.91.39 3.68 1.81.6-.84 1.5-1.57 2.63-1.81 2.15-.39 4.28 1.19 4.28 4.26zm11.71.94v.45c0 .55-.03.87-.08 1.37-.03.39-.16.55-.55.55H78.7c-.21 0-.26.05-.26.26v1.84c0 1.44.92 1.97 1.71 1.97s1.29-.52 1.5-1.13c.08-.24.21-.31.45-.31h2.02c.32 0 .37.24.34.47-.32 2.81-2.42 3.75-4.31 3.75-2.28 0-4.73-1.36-4.73-5.72v-3.05c0-4.36 2.44-5.72 4.73-5.72 2.09 0 4.56 1.18 4.56 5.27zm-4.49-2.65c-.76 0-1.79.53-1.79 2.02v.58c0 .21.05.26.26.26h3.05c.21 0 .26-.05.26-.26v-.58c.01-1.49-1.02-2.02-1.78-2.02zm13.29-1.99v1.97c0 .39-.16.55-.55.55-1.55 0-2.7.79-2.7 2.68V384c0 .39-.16.55-.55.55h-2c-.39 0-.55-.16-.55-.55v-12.92c0-.39.16-.55.55-.55h1.47c.39 0 .53.18.6.58l.16.73c.87-1.05 1.92-1.47 3.02-1.47.39-.01.55.15.55.55zm10.53 10.1c-.31 2.81-2.39 3.75-4.3 3.75-2.39 0-4.65-1.36-4.65-5.28v-3.94c0-3.91 2.26-5.28 4.65-5.28 1.92 0 3.99.95 4.3 3.75.03.24-.03.47-.34.47h-1.94c-.24 0-.37-.08-.45-.31-.21-.63-.68-1.13-1.47-1.13s-1.65.53-1.65 1.97v4.99c0 1.44.87 1.97 1.65 1.97.79 0 1.29-.52 1.47-1.13.08-.24.21-.31.45-.31h1.94c.31.01.36.25.34.48zm2.05-15.14c0-1.05.87-1.92 1.94-1.92 1.05 0 1.89.87 1.89 1.92s-.84 1.92-1.89 1.92c-1.08-.01-1.94-.88-1.94-1.92zm3.49 5.19v12.92c0 .39-.16.55-.55.55h-1.99c-.39 0-.55-.16-.55-.55v-12.92c0-.39.16-.55.55-.55h1.99c.39 0 .55.16.55.55zm2.42 9.38c0-3.83 3.1-4.57 6.3-4.94v-.81c0-1.23-.76-1.79-1.6-1.79-.81 0-1.34.53-1.5 1.29-.05.24-.21.31-.45.31h-1.89c-.32 0-.34-.24-.34-.47.08-2.63 2.15-3.75 4.36-3.75 2.26 0 4.49 1.34 4.49 4.94l.03 6.27c0 1.31.11 1.84.24 2.52.08.39-.13.52-.53.52h-1.89c-.39 0-.5-.13-.6-.97-.58.63-1.39 1.02-2.23 1.16-2.16.36-4.39-1.13-4.39-4.28zm6.3-.48v-2.6c-2.07.31-3.26.81-3.2 2.78.03 1.31.81 1.89 1.63 1.84.78-.02 1.57-.63 1.57-2.02zm10.47 2.47v1.55c0 .39-.16.55-.55.55-3.26 0-4.52-1.23-4.52-4.59V365.4c0-.39.16-.55.55-.55h1.99c.39 0 .55.16.55.55v14.83c0 1.18.63 1.63 1.42 1.65.41.03.56.17.56.56zm1.58-16.56c0-1.05.87-1.92 1.94-1.92 1.05 0 1.89.87 1.89 1.92s-.84 1.92-1.89 1.92c-1.07-.01-1.94-.88-1.94-1.92zm3.49 5.19v12.92c0 .39-.16.55-.55.55h-1.99c-.39 0-.55-.16-.55-.55v-12.92c0-.39.16-.55.55-.55h1.99c.4 0 .55.16.55.55zm2.05 11.5c0-.24.05-.42.18-.66l4.49-8.56c.08-.11.03-.24-.11-.24h-4.02c-.39 0-.55-.16-.55-.55v-1.5c0-.39.16-.55.55-.55h7.04c.42 0 .55.16.55.55v1.39c0 .24-.03.45-.18.68l-4.49 8.56c-.05.11-.03.24.13.24h3.99c.39 0 .55.16.55.55v1.5c0 .39-.16.55-.55.55h-7.04c-.42 0-.55-.16-.55-.55v-1.41z"/><use xlink:href="#C"/><path d="M166.51 381.02c-.32 2.81-2.39 3.75-4.31 3.75-2.39 0-4.65-1.36-4.65-5.28v-3.94c0-3.91 2.26-5.28 4.65-5.28 1.92 0 3.99.95 4.31 3.75.03.24-.03.47-.34.47h-1.94c-.24 0-.37-.08-.45-.31-.21-.63-.68-1.13-1.47-1.13s-1.65.53-1.65 1.97v4.99c0 1.44.87 1.97 1.65 1.97.79 0 1.29-.52 1.47-1.13.08-.24.21-.31.45-.31h1.94c.31.01.37.25.34.48zm2.05-15.14c0-1.05.87-1.92 1.94-1.92 1.05 0 1.89.87 1.89 1.92s-.84 1.92-1.89 1.92c-1.07-.01-1.94-.88-1.94-1.92zm3.49 5.19v12.92c0 .39-.16.55-.55.55h-2c-.39 0-.55-.16-.55-.55v-12.92c0-.39.16-.55.55-.55h2c.39 0 .55.16.55.55zm2.42 8.43v-3.94c0-3.86 2.52-5.28 4.75-5.28 2.26 0 4.78 1.42 4.78 5.28v3.94c0 3.86-2.52 5.28-4.78 5.28-2.23 0-4.75-1.42-4.75-5.28zm5.51-16.3c.29-.29.5-.29.79 0l1 1.05c.29.29.29.47 0 .76l-3.44 3.26c-.29.29-.52.26-.79 0l-1.05-1.02c-.26-.26-.26-.53 0-.79l3.49-3.26zm-.76 9.87c-.76 0-1.65.5-1.65 2.02v4.88c0 1.5.89 2.02 1.65 2.02s1.68-.52 1.68-2.02v-4.88c0-1.52-.92-2.02-1.68-2.02zm16.75 1.55v9.37c0 .39-.16.55-.55.55h-1.99c-.39 0-.55-.16-.55-.55v-8.9c0-1.52-.92-2.05-1.71-2.02-.81.03-1.63.63-1.63 2.02v8.9c0 .39-.16.55-.55.55H187c-.39 0-.55-.16-.55-.55v-12.92c0-.39.16-.55.55-.55h1.47c.39 0 .52.18.6.58l.18.84c.55-.71 1.34-1.37 2.42-1.57 2.12-.4 4.3 1.18 4.3 4.25zm17.89-9.22v18.59c0 .39-.16.55-.55.55h-1.5c-.39 0-.5-.18-.58-.58l-.18-.87c-.55.71-1.34 1.39-2.42 1.6-2.15.39-4.31-1.18-4.31-4.25v-5.83c0-3.07 2.15-4.65 4.31-4.25.89.18 1.6.68 2.13 1.26v-6.22c0-.39.16-.55.55-.55h1.99c.4 0 .56.16.56.55zm-3.1 14.57v-4.38-.5c0-1.39-.84-1.99-1.63-2.02s-1.71.5-1.71 2.02v4.88c0 1.5.92 2.05 1.71 2.02.79-.02 1.63-.63 1.63-2.02zm14.83-4.41v.45c0 .55-.03.87-.08 1.37-.03.39-.16.55-.55.55h-5.38c-.21 0-.26.05-.26.26v1.84c0 1.44.92 1.97 1.71 1.97s1.29-.52 1.5-1.13c.08-.24.21-.31.45-.31H225c.32 0 .37.24.34.47-.32 2.81-2.42 3.75-4.31 3.75-2.28 0-4.73-1.36-4.73-5.72v-3.05c0-4.36 2.44-5.72 4.73-5.72 2.1 0 4.56 1.18 4.56 5.27zm-4.48-2.65c-.76 0-1.79.53-1.79 2.02v.58c0 .21.05.26.26.26h3.05c.21 0 .26-.05.26-.26v-.58c0-1.49-1.02-2.02-1.78-2.02zm12.84 5.54v-7.51c0-3.88 1.81-6.33 5.38-6.33 3.34 0 5.07 2.23 5.17 4.96 0 .26-.03.47-.34.47h-2.39c-.29 0-.42-.1-.45-.37-.18-1.08-.79-1.99-2-1.99-1.42 0-2.07 1.31-2.07 3.26v7.51c0 1.94.66 3.26 2.07 3.26 1.21 0 1.81-.92 2-1.99.03-.26.16-.37.45-.37h2.39c.31 0 .34.21.34.47-.11 2.73-1.84 4.96-5.17 4.96-3.57 0-5.38-2.44-5.38-6.33z"/><use xlink:href="#C" x="100.97"/><path d="M259.5 383.99v-10.55c0-.31-.08-.39-.39-.39h-.5c-.39 0-.55-.16-.55-.55v-1.42c0-.39.16-.55.55-.55h.52c.32 0 .39-.08.39-.34v-1.44c0-2.7 1.63-3.89 4.7-3.89.39 0 .55.16.55.55v1.55c0 .39-.16.55-.55.55-1.08 0-1.68.45-1.68 1.23v1.44c0 .24.08.34.34.34h1.34c.39 0 .55.16.55.55v1.42c0 .39-.16.55-.55.55h-1.21c-.32 0-.42.08-.42.39v10.55c0 .39-.16.55-.55.55h-1.99c-.39.01-.55-.15-.55-.54zm16.38-8.43v.45c0 .55-.03.87-.08 1.37-.03.39-.16.55-.55.55h-5.38c-.21 0-.26.05-.26.26v1.84c0 1.44.92 1.97 1.71 1.97s1.29-.52 1.5-1.13c.08-.24.21-.31.45-.31h2.02c.31 0 .37.24.34.47-.31 2.81-2.42 3.75-4.31 3.75-2.28 0-4.72-1.36-4.72-5.72v-3.05c0-4.36 2.44-5.72 4.72-5.72 2.09 0 4.56 1.18 4.56 5.27zm-3.78-12.36c.29-.29.5-.29.79 0l1 1.05c.29.29.29.47 0 .76l-3.44 3.26c-.29.29-.53.26-.79 0l-1.05-1.02c-.26-.26-.26-.53 0-.79l3.49-3.26zm-.71 9.71c-.76 0-1.78.53-1.78 2.02v.58c0 .21.05.26.26.26h3.04c.21 0 .26-.05.26-.26v-.58c.01-1.49-1.02-2.02-1.78-2.02zm21.52-242.08c-.21-2.05-.75-4.14-1.63-6.12s-2.15-3.81-3.61-5.32c-2.97-3.01-6.4-4.8-9.69-6.3-13.12-5.49-26.84-8.56-40.62-10.05-13.77-1.37-27.46-2.18-41.28-1.95-6.89.13-13.78.46-20.65 1.04l-10.27 1.01c-3.44.38-6.77.8-10.09 1.03-1.66.11-3.32.21-4.94.19-.61 0-1.21-.02-1.81-.05a22.23 22.23 0 0 1 1-.46c2.93-1.29 6.09-2.35 9.29-3.36 3.21-1.01 6.47-1.94 9.81-2.91 1.68-.51 3.35-1.01 5.17-1.74.94-.42 1.82-.7 3.19-1.79a5.28 5.28 0 0 0 1.23-1.46 4.58 4.58 0 0 0 .54-1.57c.1-.64.03-1.37-.16-1.96-.41-1.21-1.02-1.76-1.43-2.15a6.48 6.48 0 0 0-1.13-.81c-1.26-.72-2.27-1.02-3.05-1.3l-2.49-.86c-1.66-.58-3.35-1.06-5.03-1.59-6.77-1.95-13.72-3.43-20.76-4.29-11.59-1.42-23.2-1.19-34.63-.32 8.16-1.84 16.45-3.19 24.82-4.08 13.17-1.36 26.52-1.77 39.78-.71 13.27.98 26.48 3.35 39.37 7.1 6.45 1.87 12.82 4.08 19.1 6.56 6.27 2.51 12.44 5.34 18.62 8.23 3.11 1.44 6.17 2.91 9.45 4.25 3.35 1.34 6.93 2.19 10.56 2.26 3.62.09 7.28-.58 10.6-2.11 3.3-1.52 6.27-4 8.03-7.28 3.3-6.57 3.05-14.12 1-20.76-1.02-3.35-2.46-6.55-4.27-9.52-1.79-2.97-3.86-5.7-6.22-8.35l.01.01-.03-.03c0-.01-.01-.01-.01-.02h0c-4.51-5.18-9.5-9.93-14.86-14.21-5.33-4.37-11.08-8.18-16.99-11.71-5.93-3.51-12.12-6.57-18.44-9.34-6.34-2.73-12.83-5.11-19.44-7.17-26.48-8.03-54.7-10.86-82.66-8-13.96 1.51-27.9 4.38-41.32 9.16a167.01 167.01 0 0 0-19.73 8.38c-6.37 3.31-12.59 7.03-18.46 11.32-11.72 8.57-22.29 19.3-29.92 32.34-3.81 6.5-6.87 13.56-8.81 20.98-1.98 7.41-2.85 15.16-2.57 22.86.52 15.47 6.03 30.49 14.42 42.94 8.41 12.52 19.42 22.74 31.48 30.86 24.24 16.27 52.34 24.88 80.52 27.86 14.13 1.47 28.35 1.53 42.44.16 14.08-1.43 28.07-4.14 41.53-8.64 13.46-4.43 26.46-10.45 38.34-18.29 5.94-3.91 11.61-8.27 16.85-13.1l1.92-1.8 1.96-1.92a67.67 67.67 0 0 0 3.71-4.05c2.38-2.8 4.55-5.8 6.42-9.01s3.46-6.65 4.56-10.33c1.09-3.68 1.71-7.63 1.28-11.75zm-132.5 62.54c-8.3 0-16.7-.53-24.96-1.57-12.98-1.67-25.58-4.67-37.45-8.94-12.47-4.47-23.81-10.27-33.72-17.24-10.93-7.75-19.61-16.45-25.79-25.86-6.79-10.21-10.64-21.51-11.12-32.68-.59-11.21 2.24-22.77 8.18-33.44 5.46-9.84 13.56-19.05 24.09-27.38 4.77-3.78 10.05-7.35 15.68-10.61 5.59-3.26 11.36-6.15 17.17-8.6 12.12-5.08 24.66-8.84 37.26-11.18a196.23 196.23 0 0 1 36.43-3.43l2.84.02a197.06 197.06 0 0 1 19.81 1.29c6.42.78 13 1.96 19.56 3.52 13.16 3.07 25.66 7.8 37.18 14.06 12.33 6.75 22.8 14.99 31.12 24.49.03.04.07.08.11.11 4.72 5.43 7.89 10.93 9.43 16.36.91 3.18 1.29 6.25 1.14 9.15-.16 3.28-.92 6.18-2.19 8.39-1.27 2.18-3.43 3.99-6.1 5.11-2.06.88-4.37 1.33-6.88 1.33-.51 0-1.02-.02-1.53-.05-2.85-.2-5.7-.97-8.48-2.29-2.31-1.14-4.74-2.48-7.08-3.77l-1.71-.94c-10.02-5.58-23.34-12.67-37.42-18.02-13.43-5.12-27.13-8.77-40.69-10.84-10.37-1.56-20.87-2.35-31.2-2.35-3.69 0-7.41.1-11.07.3-6.71.35-13.83 1.11-21.15 2.26a200.91 200.91 0 0 0-20.88 4.61A184.34 184.34 0 0 0 51.4 81.42l-4.58 2.59-4.53 2.64a45.23 45.23 0 0 0-2.76 1.77c-1 .72-2.07 1.52-3.36 2.85l-.21.23c-.62.7-1.38 1.56-2.2 3.21-.24.5-.46 1.06-.64 1.61-.21.71-.36 1.43-.44 2.13-.06.72-.1 1.59.04 2.55.11.83.32 1.65.61 2.4.29.78.61 1.36.92 1.88a12.68 12.68 0 0 0 1.01 1.4c.62.69 1.15 1.22 1.92 1.78.93.66 1.88 1.14 2.84 1.44a10.19 10.19 0 0 0 2.62.5 9.05 9.05 0 0 0 .69.02c.34 0 .59-.02.87-.04l.24-.02c.54-.05.78-.1 1.05-.16l.19-.04c.43-.09.72-.16.95-.23.06-.02.11-.04.17-.06l19.56-7.67c5.71-2.14 11.93-4.35 18.43-6.03 5.54-1.47 11.63-2.74 19.19-4.02 12.86-2.1 22.74-3.03 32.03-3.03 2.38 0 4.73.07 6.99.2 5.29.32 10.49.98 15.5 1.98-4.33 1.48-8.79 3.04-13.2 5.16l-.34.17c-1.6.81-3.25 1.65-5.1 3.21-.02.02-.12.1-.14.12a8.67 8.67 0 0 0-1.75 2.09c-.54.94-.83 1.86-.89 2.87-.11 1.31.39 2.92 1.25 3.96 1.19 1.43 2.25 1.85 2.94 2.13l.37.15c.82.28 1.51.42 2.03.5 1.37.22 2.69.31 4.31.31l1.71-.02c1.92-.07 3.68-.18 5.41-.34 2.67-.23 5.32-.59 7.88-.93l2.41-.32a245.72 245.72 0 0 1 9.98-1.1c7.34-.67 13.88-1 19.99-1.02l2.43-.01c5.36 0 11.14.19 17.65.57 7.13.4 13.66 1.02 19.95 1.9 7.35 1.03 13.68 2.29 19.35 3.86 2.83.77 5.78 1.73 9.29 3.03 2.52.94 5.82 2.21 8.87 3.73 3.05 1.53 5.2 3.02 6.56 4.56 1.35 1.53 2.06 3.41 2.18 5.74.11 2.24-.35 4.88-1.33 7.62-.9 2.52-2.23 5.12-3.94 7.71-1.59 2.42-3.49 4.78-5.64 7.04a58.55 58.55 0 0 1-3.28 3.2c-.42.39-.82.73-1.23 1.08l-.54.46-1.87 1.57c-4.76 3.94-10.07 7.63-15.76 10.96-5.43 3.18-11.25 6.06-17.3 8.56-5.71 2.41-11.85 4.56-18.29 6.4-16.67 4.74-34.18 7.15-52.05 7.15z"/></g><defs ><path id="B" d="M49.52 295.54c0 .68.18.86.86.86h6.64c.68 0 .95.27.95.95v1.13c0 .68-.27.95-.95.95h-6.64c-.68 0-.86.18-.86.86v11.3c0 .68.18.86.86.86h6.64c.68 0 .95.27.95.95v1.13c0 .68-.27.95-.95.95h-9.99c-.68 0-.95-.27-.95-.95v-32c0-.68.27-.95.95-.95h9.99c.68 0 .95.27.95.95v1.13c0 .68-.27.95-.95.95h-6.64c-.68 0-.86.18-.86.86v10.07z"/><path id="C" d="M145.98 380.45c0-3.83 3.1-4.57 6.3-4.94v-.81c0-1.23-.76-1.79-1.6-1.79-.81 0-1.34.53-1.5 1.29-.05.24-.21.31-.45.31h-1.89c-.32 0-.34-.24-.34-.47.08-2.63 2.15-3.75 4.36-3.75 2.26 0 4.49 1.34 4.49 4.94l.03 6.27c0 1.31.11 1.84.24 2.52.08.39-.13.52-.52.52h-1.89c-.39 0-.5-.13-.6-.97-.58.63-1.39 1.02-2.23 1.16-2.17.36-4.4-1.13-4.4-4.28zm6.3-.48v-2.6c-2.07.31-3.26.81-3.2 2.78.03 1.31.81 1.89 1.63 1.84.78-.02 1.57-.63 1.57-2.02z"/></defs></svg>