<svg xmlns="http://www.w3.org/2000/svg" viewBox="0 0 29 29" xmlns:v="https://vecta.io/nano"><path d="M26.95 7.29c.65.76.92 1.71 1.26 2.6.76 2.01.83 4.13.66 6.24-.11 1.31-.46 2.58-.97 3.8-.28.66-.62 1.29-.95 1.93-.2-.29-.5-.14-.75-.14l-24.18-.01c-.51-.62-.75-1.38-1.05-2.1-.38-.93-.6-1.91-.83-2.88-.11-.47-.04-.98-.06-1.48-.11-2.35.28-4.58 1.26-6.74.19-.43.39-.84.64-1.23l24.97.01z" fill="#fee102"/><path d="M26.95 7.29H1.97c.31-.65.75-1.21 1.2-1.76 1.14-1.42 2.48-2.6 4.09-3.48 5.47-2.99 10.77-2.62 15.86.88 1.52 1.05 2.72 2.45 3.7 4.02.06.09.09.22.13.34zM2.02 21.71l24.18.01c.25 0 .55-.15.75.14-.93 1.49-2.03 2.79-3.43 3.9-1.28 1.02-2.64 1.82-4.17 2.35-3.95 1.38-7.81 1.1-11.52-.77-2.4-1.21-4.29-3.03-5.71-5.32-.05-.09-.07-.21-.1-.31z" fill="#e40215"/></svg>