<svg xmlns="http://www.w3.org/2000/svg" xmlns:xlink="http://www.w3.org/1999/xlink" viewBox="0 0 215 215" xmlns:v="https://vecta.io/nano"><style><![CDATA[.I{fill:#fff}.J{fill:#231f20}.K{fill:#8c734b}.L{fill:#ce0e2d}]]></style><path d="M60.23 149.8c-.92 0-1.75-.14-2.47-.42-.74-.28-1.3-.64-1.69-1.06l-.1-.11.03-.14.42-2.22.29-2.18.03-.25h.97l.03.25c.06.48.18.95.35 1.38a4.56 4.56 0 0 0 .64 1.13c.25.32.56.56.91.74s.76.27 1.2.27c.89 0 1.53-.3 1.94-.92.43-.65.65-1.44.65-2.35 0-.82-.17-1.5-.49-2.01a5.75 5.75 0 0 0-1.29-1.41 22.21 22.21 0 0 0-1.74-1.24c-.66-.42-1.27-.93-1.82-1.53-.56-.6-1.03-1.35-1.41-2.23-.37-.88-.56-2.02-.56-3.37 0-1.24.16-2.35.47-3.3.31-.96.74-1.78 1.27-2.43a5.53 5.53 0 0 1 1.85-1.51 5.07 5.07 0 0 1 2.23-.52c.92 0 1.74.16 2.44.48a5.28 5.28 0 0 1 1.8 1.33l.1.12-.04.15-.38 1.54-.45 2.12h-.82l-.05-.21c-.49-1.88-1.37-2.79-2.7-2.79-.67 0-1.2.27-1.62.83-.44.57-.66 1.26-.66 2.03 0 .8.17 1.46.5 1.95.35.52.8 1 1.33 1.42.54.43 1.14.85 1.77 1.26.66.42 1.28.94 1.85 1.54.58.61 1.06 1.37 1.44 2.24.38.88.58 2.02.58 3.37 0 1.19-.16 2.29-.48 3.28-.32 1-.79 1.86-1.38 2.57a6.05 6.05 0 0 1-2.15 1.65c-.84.36-1.77.55-2.79.55h0z" class="I"/><path d="M61.92 124.65c.88 0 1.66.15 2.32.45a5.07 5.07 0 0 1 1.71 1.26l-.38 1.55-.41 1.9h-.36c-.52-2-1.52-3-2.97-3-.75 0-1.37.32-1.84.94-.47.63-.71 1.36-.71 2.2 0 .86.19 1.57.55 2.11.37.55.83 1.04 1.39 1.48l1.79 1.27a9.32 9.32 0 0 1 1.79 1.5c.56.59 1.02 1.31 1.39 2.16s.55 1.94.55 3.26c0 1.16-.16 2.23-.47 3.19s-.75 1.79-1.33 2.47a5.69 5.69 0 0 1-2.05 1.57c-.8.36-1.68.54-2.67.54-.89 0-1.68-.13-2.37-.4-.7-.27-1.23-.6-1.59-.99l.42-2.23.29-2.2h.47c.06.51.19.99.37 1.45a4.7 4.7 0 0 0 .69 1.2 3.07 3.07 0 0 0 1.01.82c.39.2.83.3 1.33.3.98 0 1.71-.35 2.18-1.05s.7-1.53.7-2.51c0-.88-.18-1.6-.54-2.16s-.81-1.05-1.35-1.48-1.13-.85-1.77-1.26a8.81 8.81 0 0 1-1.77-1.48c-.54-.58-.99-1.3-1.35-2.14-.36-.85-.54-1.94-.54-3.26 0-1.21.15-2.28.45-3.21s.71-1.71 1.22-2.34 1.09-1.1 1.76-1.43c.65-.31 1.35-.48 2.09-.48m0-.56a5.2 5.2 0 0 0-2.35.55c-.74.36-1.39.89-1.95 1.58-.55.68-.99 1.52-1.31 2.52-.32.98-.48 2.12-.48 3.38 0 1.4.2 2.57.58 3.48.38.9.87 1.68 1.46 2.31.57.61 1.2 1.14 1.88 1.58.62.39 1.2.81 1.72 1.22a5.62 5.62 0 0 1 1.23 1.35c.3.46.45 1.09.45 1.86 0 .86-.2 1.6-.61 2.2-.36.53-.92.8-1.71.8-.41 0-.76-.08-1.07-.24a2.4 2.4 0 0 1-.82-.67c-.24-.3-.45-.66-.6-1.06a5.59 5.59 0 0 1-.33-1.31l-.06-.49h-.5-.47-.51l-.05.51-.29 2.16-.42 2.21-.06.28.19.21c.42.46 1.02.84 1.8 1.14.76.29 1.62.44 2.57.44 1.06 0 2.03-.2 2.9-.59a6.19 6.19 0 0 0 2.25-1.72c.61-.73 1.1-1.63 1.43-2.66.33-1.02.49-2.15.49-3.36 0-1.4-.2-2.57-.6-3.49-.39-.91-.9-1.69-1.5-2.32a10.09 10.09 0 0 0-1.9-1.59l-1.75-1.24c-.51-.4-.94-.86-1.27-1.36-.3-.45-.46-1.05-.46-1.8a3 3 0 0 1 .6-1.86c.37-.49.81-.72 1.39-.72.43 0 1.75 0 2.43 2.58l.11.42h.43.37.46l.09-.45.41-1.9.37-1.52.08-.29-.2-.23a5.5 5.5 0 0 0-1.9-1.39c-.7-.35-1.56-.52-2.52-.52h0z" class="J"/><path d="M69.35 149.05l.13-4.41.04-5.14v-4.74l-.04-5.14-.13-4.51-.01-.3.3.01 2.2.1 2.17.07 3.22-.05 1.87-.12.39-.06-.07.38c-.06.35-.09.83-.09 1.42l.02.85.07.68.04.35-.35-.04-1.56-.14-1.65-.14-1.43-.11-.63-.03-.1 3.52-.01 3.51 2.59-.1 2.69-.17.34-.02-.04.34-.1.89c-.02.2-.02.42-.02.64a3.44 3.44 0 0 0 .04.54l.09.87.03.34-.34-.04a48.98 48.98 0 0 0-5.26-.31l-.01 1.95-.01 2.23.06 4.08 2.51-.1 2.8-.34.38-.07-.05.38-.07.68c-.02.21-.02.49-.02.85l.02.85a2.74 2.74 0 0 0 .07.48l.09.37-.38-.02-1.62-.05-2.66-.02h-3.89l-.82.02a4.09 4.09 0 0 0-.45.05l-.35.06v-.34z" class="I"/><path d="M79.15 125.11c-.07.37-.1.86-.1 1.47l.02.87.07.7-1.56-.14-1.65-.14-1.44-.11-.91-.04-.11 3.8-.01 3.8 2.89-.11 2.69-.17-.1.91c-.02.21-.02.43-.02.66a3.73 3.73 0 0 0 .04.57l.09.85c-1.87-.21-3.73-.31-5.58-.31l-.01 2.23-.01 2.23.07 4.36 2.8-.1 2.83-.35-.07.7c-.02.21-.02.5-.02.87l.02.87.07.53-1.63-.05-2.67-.01h-2.43-1.46l-.84.02c-.19.01-.35.03-.48.05l.13-4.41.04-5.14v-4.74l-.04-5.14-.13-4.52 2.19.11 2.19.07 3.23-.05 1.9-.14m.69-.68l-.77.11c-.3.04-.92.08-1.84.12l-3.21.05a30.28 30.28 0 0 1-2.15-.07l-2.2-.11-.6-.02.02.6.13 4.5.04 5.13v4.74l-.04 5.13-.13 4.4-.03.7.69-.13a3.32 3.32 0 0 1 .42-.04l.8-.02h1.46 2.43l2.66.02 1.61.05.75.04-.17-.73a2.22 2.22 0 0 1-.06-.43l-.02-.83.02-.83.07-.67.1-.76-.75.13-2.77.34-2.21.1-.06-3.79.01-2.22.01-1.67c1.64.02 3.3.12 4.95.31l.69.08-.06-.69-.09-.87a4.07 4.07 0 0 1-.03-.5l.02-.62.1-.88.08-.68-.69.05-2.68.17-2.29.09.01-3.22.08-3.22c.1 0 .22.01.34.02l1.42.1 1.65.14 1.55.14.71.07-.09-.7-.07-.67-.02-.83c0-.57.03-1.03.09-1.37l.12-.76h0z" class="J"/><path d="M95.45 149.34l-1.07-.07h-2.22c-.35 0-.72.02-1.08.07l-.22.03-4.16-10.38v.52l.05 5.14.15 4.41.02.35-.34-.06a5.65 5.65 0 0 0-.86-.07h-2.21c-.31 0-.6.02-.86.07l-.34.06.02-.35.15-4.41.05-5.14v-4.74l-.05-5.14-.15-4.51-.02-.35.35.06.89.12 1.08.05a16.41 16.41 0 0 0 1.48-.08c.59-.06 1.3-.09 2.13-.09l1.63.07c.46.05.86.12 1.19.22.35.1.65.24.91.4a4.26 4.26 0 0 1 .72.58c.52.54.93 1.21 1.23 2 .3.78.45 1.73.45 2.8 0 1.74-.34 3.19-1.02 4.3-.64 1.04-1.55 1.81-2.7 2.28l2.42 5.63 2.7 5.84.22.46-.54-.07zm-8.72-12.99l.22.02c.99 0 1.73-.37 2.25-1.12.54-.77.81-1.98.81-3.59 0-1-.07-1.8-.21-2.37-.14-.55-.34-.97-.6-1.25-.26-.27-.6-.45-1.03-.53-.4-.08-.87-.12-1.4-.13l-.07 8.97c0 0 .02 0 .03 0z" class="I"/><path d="M88.21 125.11l1.6.07c.44.05.82.12 1.14.21a2.93 2.93 0 0 1 .84.37 4.24 4.24 0 0 1 .68.54c.49.51.88 1.15 1.17 1.9.29.76.43 1.66.43 2.7 0 1.7-.33 3.08-.98 4.15-.66 1.07-1.6 1.82-2.83 2.27l2.53 5.91 2.7 5.84c-.38-.05-.75-.07-1.11-.07h-1.11-1.12c-.37 0-.74.02-1.12.07l-4.4-10.99h-.22v1.43l.05 5.14.15 4.41c-.28-.05-.58-.07-.91-.07h-1.11-1.11c-.33 0-.63.02-.91.07l.15-4.41.05-5.14v-4.74l-.05-5.14-.15-4.52.91.12 1.11.05c.44 0 .95-.03 1.51-.09l2.11-.08m-1.25 11.54c1.08 0 1.91-.41 2.48-1.24.57-.82.86-2.07.86-3.75 0-1.02-.07-1.84-.22-2.44s-.37-1.06-.68-1.38c-.3-.31-.7-.52-1.18-.61s-1.06-.14-1.73-.14l-.07 9.49.28.05.26.02m-4.97-12.22l.03.7.15 4.5.05 5.13v4.74l-.05 5.13-.15 4.4-.03.7.69-.11c.25-.04.52-.06.82-.06h1.11 1.11c.29 0 .57.02.82.06l.69.11-.03-.7-.15-4.4-.05-4.18 3.53 8.82.16.4.43-.05 1.05-.07h1.12 1.11a7.57 7.57 0 0 1 1.04.07l1.01.12-.45-.91-2.7-5.84-2.31-5.37a5.88 5.88 0 0 0 2.58-2.28c.71-1.16 1.07-2.65 1.07-4.45 0-1.11-.16-2.08-.47-2.9-.31-.83-.75-1.53-1.29-2.09a4.42 4.42 0 0 0-.78-.62c-.28-.18-.61-.32-.98-.43-.35-.1-.77-.18-1.24-.23s-1.03-.07-1.66-.07l-2.16.09a13.02 13.02 0 0 1-1.45.08 10.88 10.88 0 0 1-1.05-.05l-.87-.12-.7-.12h0zm4.99 11.65l.06-8.41c.4.02.76.06 1.07.12.37.07.66.22.88.45.23.24.41.61.53 1.12.14.55.2 1.33.2 2.31 0 1.55-.25 2.7-.76 3.43-.44.65-1.1.98-1.98.98h0z" class="J"/><path d="M110.46 149.34l-1.07-.07h-2.22c-.35 0-.72.02-1.08.07l-.22.03-4.16-10.38v.52l.05 5.14.15 4.41.02.35-.34-.06a5.65 5.65 0 0 0-.86-.07h-2.21c-.31 0-.6.02-.86.07l-.34.06.02-.35.15-4.41.05-5.14v-4.74l-.05-5.14-.15-4.51-.01-.35.34.06.89.12 1.08.05a16.41 16.41 0 0 0 1.48-.08c.59-.06 1.3-.09 2.13-.09l1.63.07c.46.05.86.12 1.19.22.35.1.65.24.91.4a4.26 4.26 0 0 1 .72.58c.52.54.93 1.21 1.23 2 .3.78.45 1.73.45 2.8 0 1.74-.34 3.19-1.02 4.3-.64 1.04-1.55 1.81-2.7 2.28l2.42 5.63 2.7 5.84.22.46-.54-.07zm-8.71-12.99l.22.02c.99 0 1.73-.37 2.25-1.12.54-.77.81-1.98.81-3.59 0-1-.07-1.8-.21-2.37-.14-.55-.34-.97-.6-1.25a1.89 1.89 0 0 0-1.03-.53c-.39-.08-.87-.12-1.4-.13l-.07 8.97c-.01 0 .02 0 .03 0z" class="I"/><path d="M103.23 125.11l1.6.07c.44.05.82.12 1.14.21a2.93 2.93 0 0 1 .84.37 4.24 4.24 0 0 1 .68.54c.49.51.88 1.15 1.17 1.9.29.76.43 1.66.43 2.7 0 1.7-.33 3.08-.98 4.15-.66 1.07-1.6 1.82-2.83 2.27l2.53 5.91 2.7 5.84c-.38-.05-.75-.07-1.11-.07h-1.1-1.12c-.37 0-.74.02-1.12.07l-4.4-10.99h-.22v1.43l.05 5.14.15 4.41c-.28-.05-.58-.07-.91-.07h-1.1-1.11c-.33 0-.63.02-.91.07l.15-4.41.05-5.14v-4.74l-.05-5.14-.15-4.52.91.12 1.11.05a14.57 14.57 0 0 0 1.51-.09 23.64 23.64 0 0 1 2.09-.08m-1.26 11.54c1.08 0 1.91-.41 2.48-1.24.57-.82.86-2.07.86-3.75 0-1.02-.07-1.84-.22-2.44s-.37-1.06-.67-1.38c-.3-.31-.7-.52-1.18-.61s-1.06-.14-1.73-.14l-.07 9.49.28.05.25.02M97 124.43l.03.7.15 4.5.05 5.13v4.74l-.05 5.13-.15 4.4-.03.7.69-.11c.25-.04.52-.06.82-.06h1.11 1.1c.3 0 .57.02.82.06l.69.11-.03-.7-.15-4.4-.05-4.19 3.53 8.82.16.4.43-.05 1.05-.07h1.12 1.1a7.57 7.57 0 0 1 1.04.07l1.01.12-.43-.92-2.7-5.84-2.31-5.37a5.88 5.88 0 0 0 2.58-2.28c.71-1.16 1.07-2.65 1.07-4.45 0-1.11-.16-2.08-.47-2.9-.31-.83-.75-1.53-1.29-2.09a4.42 4.42 0 0 0-.78-.62c-.28-.18-.61-.32-.98-.43-.35-.1-.77-.18-1.24-.23s-1.02-.07-1.66-.07l-2.16.09a13.02 13.02 0 0 1-1.45.08 10.88 10.88 0 0 1-1.05-.05l-.87-.12-.7-.1h0zm5 11.65l.06-8.41c.4.02.76.06 1.07.12.37.07.66.22.88.45.23.24.41.62.54 1.12.13.55.2 1.33.2 2.31 0 1.55-.26 2.7-.76 3.43-.46.65-1.11.98-1.99.98h0z" class="J"/><path d="M110.7 148.98l.79-2.51 1.08-3.63 1.26-4.34 1.35-4.69 1.33-4.67 1.19-4.29.07-.27.28.08.46.12c.12.03.26.04.4.04s.28-.02.4-.04c.14-.03.29-.07.45-.12l.28-.08 1.76 6.63 1.81 6.64 1.77 6.19 1.57 4.94.15.43-.45-.05-1.08-.07h-2.09a6.86 6.86 0 0 0-1.01.07l-.25.03-.06-.25-.81-3.49-.83-3.35-1.36-.04-1.56-.02-1.27.02-1.07.04-.85 3.35-.76 3.48-.06.29-.28-.07c-.18-.04-.35-.06-.51-.06h-1.17a3.09 3.09 0 0 0-.58.06l-.47.1.12-.47zm9.09-9.3l-.98-3.82-.86-3.19-.92 3.2-1.02 3.81h3.78z" class="I"/><path d="M119.84 124.93l1.68 6.35 1.81 6.64 1.77 6.19 1.57 4.95c-.39-.05-.77-.07-1.12-.07h-1.04-1.05c-.35 0-.7.02-1.04.07l-.81-3.49-.88-3.56-1.57-.05-1.57-.02-1.28.02-1.28.05-.91 3.56-.76 3.49c-.2-.05-.39-.07-.58-.07h-.58-.59a2.98 2.98 0 0 0-.64.07l.79-2.51 1.08-3.63 1.26-4.34 1.35-4.69 1.33-4.67 1.19-4.29a4.64 4.64 0 0 0 .47.12c.15.03.3.05.47.05.16 0 .32-.02.47-.05l.46-.12m-4.18 15.03h4.5l-1.07-4.17-1.12-4.13-1.2 4.13-1.11 4.17m4.58-15.73l-.55.16-.44.12c-.1.02-.21.03-.33.03a1.22 1.22 0 0 1-.34-.04l-.44-.12-.55-.16-.15.55-1.19 4.28-1.33 4.67-1.35 4.69-1.26 4.34-1.08 3.62-.78 2.5-.3.92.94-.19a2.61 2.61 0 0 1 .53-.06h.59.58a1.8 1.8 0 0 1 .45.06l.57.13.11-.57.76-3.47.79-3.14.86-.03 1.26-.02 1.56.02 1.14.04.77 3.14.81 3.49.12.5.51-.07a7.77 7.77 0 0 1 .97-.07h1.05 1.04c.33 0 .68.02 1.05.07l.9.1-.3-.85-1.56-4.92-1.77-6.18-1.81-6.64-1.06-4-.62-2.35-.15-.55h0zm-3.85 15.17l.92-3.45.64-2.24.59 2.24.89 3.46h-3.04v-.01z" class="J"/><path d="M129.53 149.34c-.16-.04-.33-.06-.49-.06h-.54c-.34 0-.69.02-1.04.07l-.38.05.06-.38c.02-.1.05-.49.11-1.95l.15-4.16.14-5.33.06-5.52-.05-4.04-.07-2.9-.01-.38.36.1c.41.11.74.16.98.16s.57-.06.98-.16l.21-.06.11.18 5.03 8.3 4.57 7.45v-5.43l-.01-3.36-.02-3.05-.05-2.4-.08-1.33-.05-.42.41.11c.41.11.73.16.98.16.24 0 .57-.06.98-.16l.37-.1-.01.38-.19 5.74-.12 4.83-.06 4.48-.01 4.72v4.51l-.32-.05a6.86 6.86 0 0 0-.92-.07c-.32 0-.61.02-.86.07l-.19.03-.1-.17a439.09 439.09 0 0 0-9.69-16.05l-.01 1.09-.01 2.05v4.05l.01 3.56.03 2.47a51.99 51.99 0 0 0 .05 1.65l.05 1.02.02.38-.38-.08z" class="I"/><path d="M141.94 125.11l-.19 5.74-.12 4.83-.06 4.48-.01 4.73v4.19c-.31-.05-.63-.07-.96-.07-.34 0-.64.02-.91.07-3.2-5.58-6.6-11.2-10.2-16.85l-.04 2.02-.01 2.06v4.05l.01 3.56.04 2.48c.01.68.03 1.23.05 1.66a19.15 19.15 0 0 0 .05 1.03 2.15 2.15 0 0 0-.56-.07h-.54a7.59 7.59 0 0 0-1.07.07c.03-.19.07-.85.12-1.99l.15-4.17.14-5.34.06-5.53-.05-4.04-.07-2.89c.44.12.79.17 1.05.17.27 0 .61-.06 1.05-.17l5.03 8.3 5.1 8.3v-3.03-3.38l-.01-3.37-.02-3.05-.05-2.41c-.02-.67-.05-1.13-.08-1.36.44.12.79.17 1.05.17.26-.02.61-.08 1.05-.19m-2.77-.77l.11.84c.02.15.05.5.08 1.31a77.08 77.08 0 0 1 .05 2.39l.02 3.05.01 3.36v3.38 1.05l-4.05-6.61-5.03-8.3-.22-.36-.41.11c-.48.13-.76.16-.9.16-.15 0-.43-.03-.9-.16l-.73-.19.01.75.07 2.9.05 4.03-.06 5.52-.14 5.33-.15 4.16c-.06 1.51-.1 1.84-.11 1.92l-.12.75.75-.1c.33-.04.67-.07 1-.07h.54c.14 0 .28.02.42.05l.75.19-.05-.77a20.05 20.05 0 0 1-.04-1.01l-.05-1.65-.04-2.47-.01-3.55v-4.05l.01-2.05v-.14a436.32 436.32 0 0 1 9.17 15.23l.2.34.39-.07a4.87 4.87 0 0 1 .81-.06c.3 0 .59.02.88.06l.65.1v-.65-4.19l.01-4.72.06-4.47.12-4.83.19-5.73.03-.76-.74.2c-.48.13-.75.15-.9.15s-.43-.03-.9-.15l-.83-.22h0z" class="J"/><path d="M151.75 149.8c-1.23 0-2.4-.24-3.49-.7-1.09-.47-2.06-1.24-2.87-2.28-.8-1.03-1.44-2.37-1.9-3.97-.46-1.59-.69-3.51-.69-5.71 0-1.74.21-3.4.64-4.92.42-1.54 1.03-2.9 1.8-4.06.78-1.17 1.74-2.1 2.84-2.77 1.12-.68 2.38-1.02 3.74-1.02 1.25 0 2.43.27 3.52.8 1.08.53 2.03 1.33 2.83 2.38.79 1.05 1.42 2.39 1.88 3.98.45 1.59.68 3.46.68 5.57 0 1.76-.22 3.43-.66 4.96-.44 1.54-1.06 2.89-1.84 4.04-.79 1.16-1.74 2.07-2.83 2.72a7.08 7.08 0 0 1-3.65.98h0zm0-22.88c-.71 0-1.33.25-1.89.78-.58.54-1.09 1.29-1.49 2.22-.42.95-.73 2.09-.95 3.37-.22 1.29-.32 2.69-.32 4.16 0 1.84.13 3.4.38 4.65s.59 2.26 1.02 3.01c.41.73.89 1.27 1.43 1.59a3.19 3.19 0 0 0 1.67.48c.62 0 1.23-.21 1.79-.61.58-.42 1.1-1.06 1.54-1.92.45-.88.82-2.02 1.09-3.38.27-1.37.42-3.02.42-4.9 0-1.48-.12-2.83-.36-4.01-.24-1.17-.57-2.17-.99-2.98-.41-.79-.91-1.41-1.49-1.84-.58-.41-1.18-.62-1.85-.62h0z" class="I"/><path d="M151.82 124.65c1.22 0 2.35.26 3.39.77 1.05.51 1.96 1.28 2.73 2.3s1.38 2.32 1.83 3.89.67 3.4.67 5.49c0 1.74-.22 3.37-.65 4.88s-1.03 2.83-1.8 3.96-1.68 2-2.74 2.63-2.23.94-3.51.94a8.54 8.54 0 0 1-3.38-.68c-1.05-.45-1.97-1.18-2.75-2.2-.78-1.01-1.4-2.3-1.85-3.87-.46-1.57-.68-3.45-.68-5.63 0-1.72.21-3.34.63-4.85s1.01-2.84 1.76-3.98c.76-1.14 1.68-2.03 2.75-2.68 1.08-.64 2.28-.97 3.6-.97m-.23 22.81c.68 0 1.34-.22 1.96-.66s1.16-1.12 1.63-2.02c.46-.91.84-2.06 1.12-3.45.28-1.4.42-3.05.42-4.95 0-1.51-.12-2.87-.36-4.06s-.58-2.21-1.01-3.05-.96-1.48-1.57-1.94c-.61-.45-1.29-.68-2.01-.68-.77 0-1.47.28-2.08.85-.62.57-1.13 1.34-1.56 2.32-.42.98-.75 2.12-.97 3.44-.22 1.31-.33 2.72-.33 4.2 0 1.86.13 3.43.39 4.71s.61 2.31 1.05 3.09.95 1.34 1.52 1.69c.55.34 1.16.51 1.8.51m.23-23.37c-1.42 0-2.73.36-3.89 1.06-1.14.69-2.13 1.65-2.93 2.85-.79 1.18-1.41 2.58-1.84 4.14-.43 1.55-.65 3.23-.65 5 0 2.23.24 4.17.71 5.79.47 1.63 1.13 3 1.95 4.06.84 1.08 1.84 1.88 2.98 2.37 1.12.48 2.33.73 3.6.73 1.37 0 2.65-.34 3.79-1.02 1.13-.67 2.11-1.61 2.92-2.8.8-1.17 1.43-2.56 1.88-4.12.44-1.55.67-3.25.67-5.04 0-2.14-.23-4.04-.69-5.65-.47-1.63-1.12-3-1.93-4.07-.83-1.09-1.81-1.92-2.93-2.47-1.13-.55-2.35-.83-3.64-.83h0zm-.23 22.81c-.53 0-1.04-.15-1.53-.44-.49-.3-.94-.8-1.32-1.48-.41-.72-.74-1.7-.98-2.92-.25-1.23-.38-2.78-.38-4.6 0-1.45.11-2.83.32-4.11.21-1.26.52-2.37.93-3.3.39-.9.87-1.62 1.43-2.13.51-.47 1.06-.7 1.7-.7a2.77 2.77 0 0 1 1.68.57c.54.4 1.01.99 1.4 1.74.4.78.73 1.76.96 2.9.23 1.16.35 2.49.35 3.95 0 1.86-.14 3.49-.41 4.84-.27 1.34-.63 2.45-1.07 3.31-.42.82-.91 1.43-1.45 1.82-.53.36-1.06.55-1.63.55h0z" class="J"/><path d="M170.88 151.33l-126.73-.03-1.48 2.63 129.68.04z" class="K"/><path d="M172.83 154.82l-130.69.05-1.47 2.64 133.64-.06z" class="J"/><path d="M174.83 158.39l-134.66.01-1.47 2.64 137.6-.02zm-102.9-36.85l36.24-65.52 35.15 65.52h2.99L108.2 50.51l-39.28 71.03z" class="K"/><path d="M67.86 121.54l40.31-72.76 39.14 72.76h2.99l-42.1-78.25-43.35 78.25z" class="J"/><path d="M63.73 121.54l44.44-79.77 43.34 79.77h3L108.2 36.3l-47.49 85.24z" class="K"/><g class="I"><path d="M59.89 164.69a2.39 2.39 0 0 0-.46-.29 3.08 3.08 0 0 0-.56-.2c-.21-.05-.42-.08-.66-.08-.38 0-.73.06-1.06.18a2.41 2.41 0 0 0-.86.54c-.24.24-.43.55-.57.92s-.21.81-.21 1.32c0 .45.06.85.18 1.21s.3.67.54.92.52.44.86.57.73.2 1.15.2c.13 0 .26-.01.4-.02a2.7 2.7 0 0 0 .41-.06c.13-.02.25-.06.37-.09.11-.04.21-.08.29-.13l.01-.55v-.56l-.01-.64-.03-.62c.15.03.3.05.44.05.07 0 .13 0 .2-.01s.13-.02.19-.04l-.03.67-.01 1.2v.37.37a4.68 4.68 0 0 1-.48.15 5.2 5.2 0 0 1-.62.13l-.65.09c-.22.03-.42.04-.59.04-.55 0-1.04-.07-1.48-.2a2.96 2.96 0 0 1-1.12-.61c-.31-.28-.54-.62-.71-1.03s-.25-.89-.25-1.43c0-.52.09-.99.26-1.39.17-.41.41-.75.73-1.03.31-.28.69-.5 1.14-.64a4.6 4.6 0 0 1 1.48-.22 6.73 6.73 0 0 1 .83.05c.24.03.46.08.64.13l.49.17.38.17c-.05.09-.09.2-.13.33-.04.14-.07.26-.08.38h-.11c-.06-.1-.17-.21-.31-.32zm2.21.38l-.05-1.18.82.03.82.01.82-.01.82-.03c-.02.09-.03.18-.03.28 0 .09.01.18.03.28l-.54-.04-.51-.04-.59-.03-.77-.01-.02.56-.01.61v.7.51l.73-.01.59-.02.49-.03.43-.03c-.02.09-.03.19-.03.29 0 .09.01.18.03.28l-.56-.05-.63-.02c-.21 0-.41-.01-.6-.01h-.45v.18.24.36.55.87l.01.52h.64l.69-.01.63-.04c.2-.01.37-.04.52-.07a.59.59 0 0 0-.02.14v.14a.78.78 0 0 0 .03.24l-.82-.02h-.83-.84l-.84.02.05-1.17.02-1.19v-1.58l-.03-1.22z"/><use xlink:href="#B"/><path d="M78.66 164.87l-.05-.98.19.03c.06.01.12.01.18.01.08 0 .17-.02.28-.05l-.06.77-.05.96-.04 1.05-.03 1.04c-.01.41-.07.78-.19 1.1-.12.33-.29.6-.51.83s-.49.4-.81.52-.69.17-1.11.17c-.92 0-1.59-.21-2.01-.63s-.63-1.08-.63-1.98l.02-.77c.02-.22.02-.45.02-.69l-.02-1.37-.04-1.01.24.03c.09.01.17.01.24.01s.13 0 .2-.01l.2-.03-.04.53-.04.74-.03.89-.01.99.01.65.06.65a3.28 3.28 0 0 0 .18.61c.08.19.2.36.35.51.15.14.35.26.58.34s.52.12.86.12.62-.05.85-.15.42-.23.57-.39a1.64 1.64 0 0 0 .34-.55c.08-.21.14-.43.18-.65.04-.23.06-.45.06-.68l.01-.63.05-1.98zm2.35.22l-.05-1.19.23.03a1.62 1.62 0 0 0 .22.01l.22-.01.23-.03-.05 1.19-.02 1.19v1.58l.02 1.2.05 1.16-.45-.02-.45.02.05-1.16.02-1.2v-1.58l-.02-1.19z"/><use xlink:href="#B" x="16.87"/><use xlink:href="#C"/><path d="M100.95 165.09l-.05-1.19.69.03.69.01.69-.02c.23-.02.46-.02.69-.02.54 0 1 .07 1.38.21s.7.34.94.6c.25.26.43.58.54.96s.17.8.17 1.27c0 .61-.11 1.13-.32 1.55s-.48.76-.81 1.02-.69.44-1.09.55-.77.16-1.14.16c-.21 0-.41 0-.62-.01l-.62-.01h-.62l-.62.02.05-1.16.02-1.2v-1.58c.05-.41.04-.8.03-1.19zm.83 4.72c.13.03.3.05.52.07s.45.02.68.02c.34 0 .67-.04 1.01-.12s.64-.23.91-.45.48-.52.65-.91c.17-.38.25-.88.25-1.49 0-.53-.07-.97-.2-1.32-.13-.34-.31-.61-.54-.81a1.82 1.82 0 0 0-.82-.41 4.34 4.34 0 0 0-1.05-.11l-.77.03-.64.06-.04.92-.01.98v1.58l.05 1.96zm6.33-4.74l-.05-1.18.82.03.82.01.82-.01.82-.03c-.02.09-.03.18-.03.28 0 .09.01.18.03.28l-.54-.04-.52-.04-.59-.03-.77-.01-.02.56-.01.61v.7.51l.73-.01.59-.02.49-.03.43-.03c-.02.09-.03.19-.03.29 0 .09.01.18.03.28l-.56-.05-.64-.02c-.21 0-.41-.01-.6-.01h-.45v.18.24.36.55.87l.01.52h.64l.69-.01.63-.04c.2-.01.37-.04.52-.07a.59.59 0 0 0-.02.14v.14a.78.78 0 0 0 .03.24l-.82-.02h-.83-.84l-.84.02.05-1.17.02-1.19v-1.58l-.01-1.22zm9.05 1.25l1.36 2.53.27-.5.4-.75.49-.92.53-1 .54-.99.5-.91h.12l.19 1.71.18 1.62.18 1.57.2 1.54c-.07-.01-.15-.02-.22-.02h-.22-.22c-.07 0-.14.01-.22.02l-.2-2.37-.25-2.35h-.02l-1.25 2.3-1.16 2.4h-.08l-1.15-2.32-1.21-2.38h-.02l-.14 1.24-.14 1.32-.11 1.22-.05.94-.32-.02c-.12 0-.22.01-.32.02l.25-1.57.25-1.66.22-1.65.17-1.55h.16l1.29 2.53z"/><use xlink:href="#C" x="32.71"/><use xlink:href="#B" x="64.4"/><path d="M139.53 164.37h-.5l-.52.02-.51.03c-.16.01-.31.03-.44.05.03-.11.05-.21.05-.29 0-.07-.01-.16-.05-.29l1.19.03 1.19.01 1.19-.01 1.19-.03c-.03.12-.05.22-.05.29a.88.88 0 0 0 .05.29l-.44-.05-.51-.03-.52-.02h-.5l-.03 1.9v1.58l.02 1.2.05 1.16-.45-.02-.45.02.05-1.16.02-1.2v-1.58l-.03-1.9zm8.26 5.85l-.24-.02h-.24-.24a1.94 1.94 0 0 0-.24.02l-.17-.51-.24-.63-.27-.66-.26-.64-.6-.01h-.61-.56l-.56.01-.53 1.37-.36 1.07-.34-.02a3.46 3.46 0 0 0-.34.02l1.45-3.2 1.43-3.24h.17l.48 1.15.53 1.26.53 1.26.5 1.16.42.96.29.65zm-4.07-2.86l.5.01.5.01h.52l.52-.01-1.02-2.34-1.02 2.33zm8.06.47l-2.39-2.55-.02.69-.01 1.18v.48l.01.6.01.64.02.6.02.48.02.28-.32-.02a3.46 3.46 0 0 0-.34.02c.01-.06.03-.17.04-.34l.04-.59.04-.75.04-.81.02-.79.01-.69v-1.52l-.02-.95h.15l1.2 1.3 1.27 1.37 1.2 1.28.99 1.03v-1.25l-.01-1.88-.06-1.72c.12.03.23.05.31.05.07 0 .17-.02.3-.05l-.04.61-.05.86-.04.9-.02.71v.55.65l.01.69.01.64v.52.3h-.13l-2.26-2.52zm-1.52-4.92c.05-.11.11-.21.19-.3s.17-.17.28-.23.24-.09.39-.09a.93.93 0 0 1 .29.05c.08.03.21.09.39.17.17.09.3.14.37.17a.62.62 0 0 0 .23.04.46.46 0 0 0 .34-.14c.09-.09.15-.2.18-.32h.27c-.01.07-.04.17-.07.28-.04.11-.09.22-.17.33a.97.97 0 0 1-.3.27.92.92 0 0 1-.46.11c-.08 0-.18-.02-.29-.05s-.23-.09-.37-.17c-.16-.09-.28-.14-.36-.17s-.16-.04-.23-.04c-.14 0-.24.03-.31.09-.06.06-.12.17-.18.33h-.28c.02-.11.05-.22.09-.33zm10.83 7.31l-.24-.02h-.24-.24a1.94 1.94 0 0 0-.24.02l-.17-.51-.24-.63-.27-.66-.26-.64-.6-.01h-.61-.56l-.56.01-.53 1.37-.36 1.07-.34-.02a3.46 3.46 0 0 0-.34.02l1.45-3.2 1.43-3.24h.18l.48 1.15.52 1.26.53 1.26.5 1.16.42.96c.1.28.21.5.29.65zm-4.08-2.86l.5.01.5.01h.52l.52-.01-1.02-2.34-1.02 2.33z"/></g><path d="M80.73 116.95a.72.72 0 0 0-.25-.27v-.06l.97-.42.92-.44.06.04-.05 1.08-.02 1.08v1.39l.02 1.07.05 1.03c-.07-.01-.13-.01-.19-.01h-.19-.19l-.2.01.05-1.04.01-1.07v-2.95l-.99.56zm4.05.67a2.81 2.81 0 0 1 .33-.9 1.67 1.67 0 0 1 .6-.61c.25-.15.55-.23.91-.23.4 0 .72.08.97.23s.45.36.59.61a2.72 2.72 0 0 1 .29.9 7.83 7.83 0 0 1 .08 1.11c0 .38-.04.74-.12 1.08s-.2.64-.35.91c-.16.26-.36.46-.6.61s-.53.22-.87.22c-.4 0-.72-.07-.97-.22a1.48 1.48 0 0 1-.59-.6 2.72 2.72 0 0 1-.29-.9c-.05-.35-.08-.71-.08-1.11 0-.38.03-.75.1-1.1zm.64 2.13c.04.31.11.59.21.82s.23.41.39.55c.16.13.36.2.6.2s.44-.07.6-.2.29-.32.39-.55.17-.51.21-.82.06-.66.06-1.02c0-.37-.02-.71-.06-1.02-.04-.32-.11-.59-.21-.82s-.23-.41-.39-.55c-.16-.13-.36-.2-.6-.2s-.44.06-.6.18-.29.3-.39.52c-.1.23-.17.5-.21.82s-.06.68-.06 1.07c0 .36.02.7.06 1.02zm3.97-2.13c.07-.35.17-.65.33-.9a1.67 1.67 0 0 1 .6-.61c.25-.15.55-.23.91-.23.4 0 .72.08.97.23s.45.36.59.61a2.98 2.98 0 0 1 .3.9 7.83 7.83 0 0 1 .08 1.11c0 .38-.04.74-.12 1.08s-.19.64-.35.91c-.16.26-.36.46-.6.61-.25.15-.53.22-.87.22-.4 0-.72-.07-.97-.22a1.48 1.48 0 0 1-.59-.6 2.72 2.72 0 0 1-.29-.9c-.05-.35-.08-.71-.08-1.11-.01-.38.02-.75.09-1.1zm.64 2.13c.04.31.11.59.21.82s.23.41.39.55c.16.13.36.2.6.2s.44-.07.6-.2.29-.32.39-.55.17-.51.21-.82.06-.66.06-1.02c0-.37-.02-.71-.06-1.02-.04-.32-.11-.59-.21-.82s-.23-.41-.39-.55c-.16-.13-.36-.2-.6-.2s-.44.06-.6.18-.29.3-.39.52c-.1.23-.17.5-.21.82s-.06.68-.06 1.07c0 .36.02.7.06 1.02zm3.95-3.04c.06-.16.15-.31.27-.43.12-.13.26-.22.42-.29.17-.07.35-.1.55-.1s.38.03.55.1.31.17.42.29c.12.12.21.27.27.43s.09.35.09.55-.03.38-.09.55-.15.31-.27.44a1.37 1.37 0 0 1-.42.29 1.42 1.42 0 0 1-.55.11 1.26 1.26 0 0 1-.97-.4c-.12-.12-.21-.27-.27-.44-.07-.17-.1-.35-.1-.55s.03-.39.1-.55zm.56.99c.03.14.07.27.13.37a.83.83 0 0 0 .23.26.51.51 0 0 0 .32.1c.13 0 .24-.03.32-.1.09-.07.16-.15.23-.26.06-.11.1-.23.13-.37a2.12 2.12 0 0 0 .04-.44 2.12 2.12 0 0 0-.04-.44c-.03-.14-.07-.27-.13-.37a.73.73 0 0 0-.23-.26.51.51 0 0 0-.32-.1.51.51 0 0 0-.32.1c-.09.07-.16.15-.23.26-.06.11-.1.23-.13.37a2.12 2.12 0 0 0-.04.44c-.01.15.01.3.04.44zm4.22-1.97c.04 0 .11-.02.19-.04l-3.09 6.06a.58.58 0 0 0-.19-.04c-.05 0-.12.01-.2.04l3.09-6.06c.08.02.15.04.2.04zm-.78 3.93c.06-.17.15-.31.27-.44a1.37 1.37 0 0 1 .42-.29c.16-.07.35-.1.55-.1s.38.03.55.1a1.26 1.26 0 0 1 .42.29c.12.12.21.27.27.44a1.63 1.63 0 0 1 .1.55c0 .2-.03.38-.1.55-.06.17-.15.31-.27.43s-.26.21-.42.27c-.17.06-.35.09-.55.09s-.38-.03-.55-.09-.31-.15-.42-.27c-.12-.12-.21-.26-.27-.43a1.63 1.63 0 0 1-.1-.55c.01-.2.04-.39.1-.55zm.56.99c.03.14.07.27.13.37a.83.83 0 0 0 .23.26.51.51 0 0 0 .32.1.49.49 0 0 0 .32-.1.8.8 0 0 0 .22-.26c.06-.11.1-.23.13-.37a2.12 2.12 0 0 0 .04-.44c0-.15-.02-.3-.04-.44-.03-.14-.07-.27-.13-.37-.06-.11-.14-.19-.22-.26a.51.51 0 0 0-.32-.1.51.51 0 0 0-.32.1.83.83 0 0 0-.23.26c-.06.11-.11.23-.13.37a2.12 2.12 0 0 0-.04.44 2.12 2.12 0 0 0 .04.44zm9.75.81c-.08-.01-.15-.01-.22-.01h-.22-.22l-.22.01-.16-.46-.22-.56-.24-.6-.23-.58c-.18 0-.36-.01-.54-.01h-.55-.5l-.51.01-.48 1.23-.32.97c-.09-.01-.2-.01-.3-.01l-.31.01 1.31-2.88 1.29-2.92h.16l.43 1.04.47 1.13.48 1.14.45 1.05.38.87.27.57zm-3.67-2.57l.45.01.45.01h.46l.46-.01-.92-2.11-.9 2.1zm4.61-2.05l-.04-1.07.47.03.47.01.47-.02.47-.02c.23 0 .45.02.66.07.21.04.39.12.55.22a1.09 1.09 0 0 1 .37.4c.09.17.14.37.14.62 0 .27-.06.49-.18.68s-.26.35-.44.47c-.17.12-.35.22-.55.29s-.38.12-.54.14a5.77 5.77 0 0 1 .27.35l.39.49.45.56.45.56.41.49.31.34c-.08-.01-.17-.01-.25-.01h-.25-.24l-.24.01-.38-.52-.56-.75-.63-.79-.58-.67h-.32v.6l.02 1.08.05 1.04c-.13-.01-.26-.01-.41-.01l-.41.01.04-1.04.02-1.08v-1.43c.03-.34.02-.7.01-1.05zm.95 1.58l.3.01a2.46 2.46 0 0 0 .53-.06 1.75 1.75 0 0 0 .51-.2c.15-.09.28-.23.38-.39s.15-.37.15-.62c0-.22-.04-.39-.12-.53a1.01 1.01 0 0 0-.31-.34 1.28 1.28 0 0 0-.42-.17c-.15-.03-.3-.05-.44-.05l-.48.01-.32.03-.03.9-.02.9v.47c.09.03.18.04.27.04zm6.65-1.72l.47 1.13.48 1.14.45 1.05.38.87.28.58c-.08-.01-.15-.01-.22-.01h-.22-.22l-.22.01-.16-.46-.22-.56-.24-.6-.23-.58c-.18 0-.36-.01-.54-.01h-.55-.51l-.51.01-.48 1.23-.32.97c-.09-.01-.2-.01-.31-.01l-.31.01 1.31-2.88 1.29-2.92h.16l.44 1.03zm-1.61 2.19l.45.01.45.01h.46l.46-.01-.92-2.11-.9 2.1zm2.07-4.94c.06 0 .11.02.18.07.06.05.09.11.09.2 0 .1-.03.18-.1.23-.07.06-.13.11-.2.15l-1.22.78h-.35l1.22-1.23c.14-.13.27-.2.38-.2zm2.53 2.88l-.05-1.06.44.03.44.01.44-.02.44-.02a4.68 4.68 0 0 1 .67.05c.21.04.4.1.56.19s.28.21.38.37c.09.15.14.35.14.58 0 .41-.13.73-.39.96s-.59.4-1.01.49v.02c.49.02.88.14 1.17.36.28.22.43.56.43 1.04 0 .31-.07.57-.19.78-.13.21-.29.38-.5.51-.2.13-.43.22-.67.27-.25.05-.49.08-.73.08-.13 0-.27 0-.4-.01s-.27-.01-.4-.01h-.4l-.4.01.05-1.06.02-1.07v-1.43l-.04-1.07zm1.73 1.43c.19-.04.36-.1.51-.19s.27-.21.36-.37c.09-.15.13-.34.13-.58 0-.23-.04-.41-.12-.54a.95.95 0 0 0-.31-.32 1.46 1.46 0 0 0-.43-.15l-.48-.04-.37.01-.26.03-.03.79-.02.79v.62h.45c.19 0 .38-.01.57-.05zm-1.01 2.05l.03.83.37.03.44.01a1.44 1.44 0 0 0 .51-.09 1.3 1.3 0 0 0 .43-.27 1.35 1.35 0 0 0 .29-.44c.07-.17.11-.37.11-.6 0-.24-.04-.43-.13-.58s-.21-.27-.37-.36-.35-.15-.58-.18a5.54 5.54 0 0 0-.75-.05h-.37v.84l.02.86zm4.35-3.47l-.05-1.07.21.03a1.34 1.34 0 0 0 .2.01c.07 0 .13 0 .2-.01l.21-.03-.04 1.07-.02 1.07v1.43l.02 1.08.04 1.04c-.13-.01-.26-.01-.41-.01l-.41.01.05-1.04.02-1.08v-1.43l-.02-1.07zm6.38 4.43a2.49 2.49 0 0 1-.39.14l-.51.11c-.19.03-.38.05-.59.05-.44 0-.84-.06-1.21-.19s-.69-.31-.96-.57c-.27-.25-.48-.57-.63-.93a3.33 3.33 0 0 1-.23-1.26 3.33 3.33 0 0 1 .23-1.26c.15-.37.37-.68.64-.93s.6-.45.98-.58a3.87 3.87 0 0 1 1.26-.2 4.44 4.44 0 0 1 1 .11c.3.07.57.16.8.27-.04.08-.08.18-.11.32l-.07.33-.05.02c-.06-.07-.13-.14-.23-.22s-.22-.16-.35-.24-.28-.14-.45-.19a1.92 1.92 0 0 0-.55-.08c-.33 0-.63.05-.91.16-.28.1-.52.27-.73.48-.21.22-.37.5-.49.83s-.17.73-.17 1.19.06.85.17 1.19c.12.33.28.61.49.83a1.86 1.86 0 0 0 .73.48c.28.1.58.16.91.16a1.92 1.92 0 0 0 .55-.08 2.45 2.45 0 0 0 .46-.18 2.73 2.73 0 0 0 .38-.23l.29-.21.03.03-.07.49c-.04.06-.12.11-.22.16zm5.68.19c-.08-.01-.15-.01-.22-.01h-.22-.22l-.22.01-.16-.46-.22-.56-.25-.6-.23-.58c-.18 0-.36-.01-.54-.01h-.55-.5l-.51.01-.48 1.23-.32.97c-.09-.01-.2-.01-.31-.01l-.31.01 1.31-2.88 1.29-2.92h.16l.43 1.04.47 1.13.48 1.14.45 1.05.38.87.29.57zm-3.67-2.57l.45.01.45.01h.47l.46-.01-.92-2.11-.91 2.1z" class="K"/><g fill-rule="evenodd"><path d="M139.49 63.53s6.66-3.64 15.79-2.28c0 0 2.93.47 4.63 1.54-3.54.88-9.15 3.16-11.44 7.25 4.92 1.02 7.58 3.24 8.84 4.5 1.3 1.31 2.54 3.1 3.01 4.23-11.38-2.08-17.16.61-22.92 5.7-1.28 1.13-2.03 1.82-2.8.47s-5.19-9.63-5.19-9.63-4.77-.72-10.07.25c-5.3.96-10.13 3.78-12.64 4.64s-9.19 3.12-15.62 1.88-9.2-2.83-9.59-3.57c0 0-.03-1.02-.02-1.9-2.47 1.34-10.65 8.51-12.08 9.5-.05-1.72.1-3.85.61-6.35.54-2.66 1.95-6.07 4.84-8.7 0 0-.85-1.32-6.58-1.29-2.15.01-3.41-.12-5.85.09 0 0 1.37-1.29 2.92-2.47 1.3-.99 8.15-5.6 13.28-7.95 5.52-2.52 12.51-4.39 18.03-1.35 0 0 1 .6.38 1.98l-2.57 5.83s3.56.26 9.12-1.66c5.69-1.97 12.16-5.77 20.34-5.53 0 0 6.57-.05 13.55 1.91 0 0 1.98.38 2.02 1.43l.01 1.48z" class="I"/><path d="M82.19 63.27l.32 14.47s4.19 3.06 11.2 3.31 10.51-1.34 13.84-2.71c3.87-1.6 8.98-5.18 20.43-4.51 0 0 4.76.18 10.71 3.49L138.18 62s-9.23-3.77-19.97-1.83c0 0-4.37.88-10.07 3.27-5.7 2.4-9.86 3.7-14.62 3.35.01 0-7-.14-11.33-3.52z" class="L"/><path d="M95 61.51l-2.01 4.2s-4-.11-7.96-2.1l-2.78-1.68s.17-1.64 2.89-.61c2.71 1.02 7.41 2.03 9.86.19zm36.08 14.07l2.85 5.63s.25-1.63 1.44-1.49c1.19.13 3.53.87 3.28-1.16-.01 0-3.71-2.4-7.57-2.98z" class="K"/><path d="M65.18 68.81c2.7-.25 10.1-.26 10.87 2.25 0 0-3.61 3.24-4.73 7.5-.71 2.72-.98 5.5-.98 5.5s6.9-5.92 11.12-8.86l-.17-13.8s.55-2.04 3.49-1.06 9.24 2.63 10.51-.83c.1-.29.61-.87-1.69-1.6-2.3-.72-8.23-1.08-15.63 2.85-7.43 3.95-10.41 6.27-12.79 8.05z" fill="#932949"/><path d="M83.96 59.25c.35.05.71.12 1.09.25 5.44 1.81 8.51 1.71 9.42-.29-.17-.11-.49-.28-1.14-.48-1.61-.5-5-.74-9.37.52zm-5.59 2.28h0a81.12 81.12 0 0 0-8.65 5.24l-1.6 1.06 1.36.08c2.29.04 6.55.11 7.4 2.9l.15.51-.38.37c-.04.04-3.45 3.21-4.49 7.06-.37 1.38-.48 2.32-.63 3.15 2.24-1.88 6.13-5.08 9.04-7.15l-.17-13.47.03-.12c.02-.06.15-.42.44-.82-.8.35-1.64.73-2.5 1.19z" class="L"/><path d="M139.42 64.55l.39 14.41s-.28 1.73-1.93 1.97-2.99-.51-3.11 1.34l1.1 1.85s5-5 10.43-6.34c4.47-1.1 8.58-1.08 11.98-.47 0 0-4.17-5.95-11.73-6.42 0 0 3.03-6.62 10.16-8.19 0 0-6.7-2.36-17.29 1.85z" fill="#932949"/><path d="M140.31 65.15l.35 14c1.66-1.03 3.62-1.81 5.6-2.35 3.67-.98 7.42-.9 9.77-.69-1.77-1.69-5.03-4.07-9.54-4.35l-1.27-.08.53-1.15c.11-.24 2.38-5.03 7.52-7.53-2.77-.22-7.26-.01-12.96 2.15zm-3.78 16.64c-.3-.01-.66-.11-.76-.05-.13.08-.15.21-.08.34l.38.63c.27-.25.79-.64 1.17-.98-.3.08-.71.06-.71.06z" class="L"/></g><path d="M88.83 69.47c-.39-.04-.72.02-.96.2a.85.85 0 0 0-.36.71c.01.3.11.56.31.78s.44.42.74.61a9.46 9.46 0 0 0 .95.54 6.57 6.57 0 0 1 .95.59 2.93 2.93 0 0 1 .74.79c.2.3.3.68.31 1.14 0 .4-.07.77-.23 1.1a2.19 2.19 0 0 1-.68.83c-.29.22-.64.38-1.05.47s-.87.1-1.37.04c-.46-.06-.86-.17-1.22-.33s-.64-.33-.83-.5l.2-.73a6.63 6.63 0 0 0 .13-.74c.08.02.16.03.24.04.04.19.11.37.2.54a2.37 2.37 0 0 0 .37.48c.14.15.32.27.53.37.2.1.43.16.69.19.51.06.88-.02 1.12-.25a1.08 1.08 0 0 0 .35-.84c-.01-.31-.1-.56-.29-.77s-.43-.4-.71-.58l-.93-.55c-.34-.19-.65-.41-.93-.66s-.53-.54-.72-.88c-.2-.33-.3-.73-.31-1.2-.01-.42.06-.78.21-1.07a1.8 1.8 0 0 1 .62-.69 2.37 2.37 0 0 1 .91-.35 4.01 4.01 0 0 1 1.1-.03c.46.05.87.14 1.22.27a3.43 3.43 0 0 1 .91.49l-.19.53-.2.65-.19-.01c-.34-.71-.86-1.09-1.63-1.18zm4.03 1.82l-.09-1.54h1.08l1.08-.04 1.59-.17.94-.16c-.03.13-.05.3-.05.51l.01.3.04.23-.77.05-.81.04-.71.03-.45.02-.04 1.3.01 1.3L96.1 73l1.32-.22-.05.32c-.01.07-.01.15-.01.23l.02.2.05.28-2.73.18.01.76v.76l.05 1.49c.45-.03.9-.09 1.36-.16a13.96 13.96 0 0 0 1.37-.29c-.02.09-.03.17-.04.24s-.01.17-.01.3l.01.3c.01.07.02.13.04.17l-.79.09-1.29.13-1.18.09-.71.03-.4.02c-.09 0-.17.01-.23.02l.04-1.51-.01-1.76-.03-1.62-.03-1.76zm6.4-.51l-.12-1.53.45-.05.55-.09.54-.13.45-.14-.04 1.56.02 1.76.03 1.62.03 1.31.04 1.09 1.35-.36 1.37-.47c-.02.09-.03.17-.03.25l-.01.3c0 .12.01.22.02.3a.71.71 0 0 0 .04.17l-.79.19-1.29.31-1.17.27-.71.15-.4.09-.23.06.03-1.52-.02-1.76-.04-1.62-.07-1.76zm5.79-1.73l-.08-1.53 1.08-.27 1.08-.29 1.59-.49.94-.32c-.03.14-.05.31-.05.52l.01.3.04.23-.77.18-.81.19-.71.17-.45.12-.04 1.32v1.31l1.41-.45 1.31-.45-.05.32c-.01.08-.01.15-.01.23l.02.19.04.28-2.72.7v.77.77l.05 1.48 1.36-.43 1.37-.53-.04.25c-.01.08-.01.18-.01.3l.01.3c.01.07.02.13.04.17l-.79.22-1.29.38-1.17.34-.71.2-.4.12-.23.08.04-1.53v-1.77l-.02-1.62-.04-1.76zm12.54 2.14c-.05.19-.09.36-.11.54-.65.49-1.46.87-2.43 1.14-.69.19-1.3.27-1.84.23s-1-.18-1.37-.42c-.38-.24-.66-.58-.86-1.01s-.29-.93-.29-1.49c0-.83.13-1.57.4-2.23.26-.66.61-1.23 1.06-1.72.44-.49.96-.91 1.54-1.25s1.19-.59 1.83-.77a4.42 4.42 0 0 1 .67-.13c.23-.03.46-.05.67-.05l.62.03a2.75 2.75 0 0 1 .5.1c-.09.22-.15.44-.2.65s-.08.43-.1.64l-.17.04c-.3-.31-.61-.5-.93-.58s-.7-.06-1.13.06c-.32.09-.65.25-.98.49s-.63.54-.89.92c-.27.37-.49.81-.65 1.32-.17.51-.26 1.08-.26 1.72 0 .62.07 1.12.24 1.5.17.39.38.68.64.88s.57.31.9.35a2.89 2.89 0 0 0 1.01-.09c.19-.05.38-.13.58-.23s.39-.21.58-.34a7.27 7.27 0 0 0 .55-.42 3.44 3.44 0 0 0 .45-.49l.15.06c-.08.19-.13.37-.18.55zm3.21-6.65a2.38 2.38 0 0 0-.01-.41l-.45.09-.57.14-.62.18-.59.19.06-.28a1.24 1.24 0 0 0 .03-.27l-.01-.26-.03-.25.75-.14.68-.12.75-.13.98-.16.98-.16.75-.11.66-.1.7-.1-.06.27a1.24 1.24 0 0 0-.03.27c-.01.09 0 .18 0 .26l.03.26-.54-.01-.6.02-.56.04-.45.05c-.01.04-.02.1-.03.17s-.01.16-.02.25l-.03.64-.16 3.01-.07 1.77-.01 1.51c-.14 0-.28.02-.44.04l-.54.09-.54.09-.44.1.14-1.53.11-1.78.14-3.01.04-.62zm4.22.94c.26-.54.6-1.01 1.04-1.42.43-.41.94-.74 1.53-.96.59-.23 1.24-.32 1.94-.28.64.04 1.23.18 1.78.42a3.95 3.95 0 0 1 1.37 1c.38.42.66.93.85 1.52s.25 1.24.18 1.95c-.06.59-.22 1.13-.49 1.6s-.63.86-1.06 1.18-.94.55-1.5.7a6.16 6.16 0 0 1-1.85.18c-.62-.03-1.2-.12-1.74-.27a3.61 3.61 0 0 1-1.39-.72c-.38-.33-.67-.75-.87-1.28-.2-.52-.28-1.16-.23-1.91.04-.61.19-1.18.44-1.71zm6.68.19c-.09-.43-.24-.8-.44-1.12a2.21 2.21 0 0 0-.77-.75c-.31-.19-.66-.29-1.05-.31-.41-.02-.79.06-1.13.25s-.64.45-.89.79-.45.74-.6 1.19a6.21 6.21 0 0 0-.28 1.45c-.05.64-.02 1.18.08 1.62.11.44.26.79.47 1.05a1.93 1.93 0 0 0 .75.59c.29.13.6.19.93.21.36.02.7-.04 1.04-.16.34-.13.64-.33.91-.61s.49-.65.68-1.11.31-1.01.37-1.67c.05-.52.03-.99-.07-1.42zM96.69 112c-.21.1-.46.19-.75.27s-.62.15-.98.21-.74.09-1.13.09c-.84 0-1.61-.12-2.32-.36s-1.32-.6-1.83-1.09c-.51-.48-.92-1.08-1.21-1.78s-.44-1.51-.44-2.41.15-1.7.44-2.41a5.13 5.13 0 0 1 1.22-1.79c.52-.49 1.15-.86 1.88-1.11s1.54-.38 2.41-.38c.7 0 1.34.07 1.91.22.58.14 1.09.31 1.53.52-.09.15-.15.35-.21.6l-.13.63-.1.03c-.11-.13-.25-.27-.44-.43s-.41-.31-.67-.46c-.25-.15-.54-.27-.86-.37s-.67-.15-1.05-.15a4.97 4.97 0 0 0-1.74.3c-.53.2-1 .51-1.4.93s-.71.95-.93 1.59-.33 1.4-.33 2.28.11 1.64.33 2.28.53 1.17.93 1.59a3.66 3.66 0 0 0 1.4.93 4.89 4.89 0 0 0 1.74.3c.38 0 .73-.05 1.06-.14a6.6 6.6 0 0 0 .89-.34 5.62 5.62 0 0 0 .73-.43l.55-.4.06.06-.14.94c-.06.09-.21.18-.42.28zm11.54.37a3.19 3.19 0 0 0-.42-.03h-.42-.42a3.19 3.19 0 0 0-.42.03l-.3-.88-.42-1.08-.47-1.14-.44-1.1-1.03-.02c-.35 0-.7-.01-1.05-.01l-.97.01-.97.02-.92 2.36-.62 1.85a5.41 5.41 0 0 0-.59-.03 5.41 5.41 0 0 0-.59.03l2.51-5.52 2.46-5.59h.3l.83 1.99.9 2.17.92 2.18.87 2.01.73 1.66.53 1.09zm-7.04-4.94l.86.02.86.02.89-.01.89-.02-1.76-4.03-1.74 4.02zm9.47-3.91l-.09-2.06 1.42.06 1.42.02 1.44-.02 1.59-.06c-.03.16-.05.32-.05.48s.02.32.05.48l-1.03-.09-1.23-.06-1.21-.04-.96-.02-.03 1.06-.01 1.02.01 1.02.01.98 2.07-.03 2.02-.13c-.04.16-.06.32-.06.47 0 .16.02.32.06.48l-.9-.07-1.04-.04-1.09-.02h-1.06v1.35l.04 2.06.09 2-.78-.03-.78.03.09-2 .04-2.06v-2.73l-.03-2.05zm8.59-.02l-.09-2.03 1.42.06 1.42.02 1.41-.02 1.41-.06c-.03.16-.05.32-.05.48s.02.32.05.48l-.93-.06-.89-.07-1.02-.05-1.33-.02-.04.97-.03 1.05.01 1.21.01.89 1.25-.02 1.02-.04.85-.05.74-.06c-.03.16-.05.32-.05.49 0 .16.02.32.05.48l-.96-.08-1.09-.04a32.21 32.21 0 0 1-1.03-.02l-.77-.01-.01.31c-.01.11-.01.25-.01.42v.62.95l.01 1.49.02.89h1.11l1.18-.02 1.1-.06.9-.12c-.02.07-.04.16-.04.25-.01.09-.01.17-.01.24 0 .17.02.31.05.41l-1.42-.03h-1.44-1.45l-1.44.03.09-2.02.04-2.06v-2.73l-.04-2.07zm4.68-5.51a.56.56 0 0 1 .34.13c.12.08.18.21.18.38 0 .19-.06.34-.19.45s-.25.21-.38.29l-2.33 1.49h-.67l2.33-2.36c.26-.26.5-.38.72-.38z" class="I"/><defs ><path id="B" d="M69.65 167.83l-2.39-2.55-.02.69-.01 1.18v.48l.01.6.01.64.02.6.02.48.02.28-.32-.02a3.46 3.46 0 0 0-.34.02c.01-.06.03-.17.04-.34l.04-.59.04-.75.04-.81.02-.79.01-.69v-1.52l-.02-.95h.15l1.2 1.3 1.27 1.37 1.2 1.28.99 1.03v-1.25l-.01-1.88-.06-1.72c.12.03.23.05.31.05.07 0 .17-.02.29-.05l-.04.61-.05.86-.04.9-.02.71v.55.65l.01.69.01.64v.52.3h-.13l-2.25-2.52z"/><path id="C" d="M90.49 165.68c.17-.41.4-.75.71-1.03.3-.28.67-.5 1.09-.64.42-.15.89-.22 1.39-.22.51 0 .98.07 1.4.22s.79.36 1.09.64a3.01 3.01 0 0 1 .71 1.03c.17.41.25.87.25 1.39s-.08.99-.25 1.39c-.17.41-.4.75-.71 1.03-.3.28-.67.49-1.09.63s-.89.21-1.4.21c-.5 0-.97-.07-1.39-.21s-.79-.35-1.09-.63a3.01 3.01 0 0 1-.71-1.03c-.17-.41-.25-.87-.25-1.39s.08-.99.25-1.39zm5.54.07c-.13-.37-.31-.68-.54-.92s-.5-.42-.81-.54-.65-.18-1.01-.18-.69.06-1 .18-.58.3-.81.54-.41.55-.54.92-.19.81-.19 1.32.06.95.19 1.32.31.68.54.92.5.42.81.54.64.18 1 .18.7-.06 1.01-.18.58-.3.81-.54.41-.55.54-.92.19-.81.19-1.32-.06-.95-.19-1.32z"/></defs></svg>