<svg xmlns="http://www.w3.org/2000/svg" viewBox="0 0 215 215" fill="#ffb71b" xmlns:v="https://vecta.io/nano"><path d="M104.3 104.03h-.14c-1.86 0-3.25-.09-4.17-.26s-1.77-.51-2.57-1.03c-1.13-.73-2.02-1.75-2.67-3.05s-.98-2.75-.98-4.34c0-1.8.32-3.64.97-5.51s1.58-3.69 2.81-5.46c1.22-1.77 2.71-3.44 4.45-5 2.06-1.83 4.19-3.26 6.4-4.27s4.31-1.52 6.31-1.52c1.56 0 2.82.37 3.76 1.12.95.74 1.42 1.72 1.42 2.92 0 .56-.07 1.1-.2 1.62-.14.53-.37 1.22-.71 2.08l-1.39 3.19c-.39.86-.74 1.43-1.05 1.72s-.72.44-1.23.44c-.53 0-.96-.15-1.3-.46-.35-.31-.52-.71-.52-1.2 0-.47.2-1.15.59-2.05l.7-1.46c.69-1.53 1.04-2.57 1.04-3.13 0-.37-.11-.66-.33-.85s-.54-.28-.98-.28c-.72 0-1.63.2-2.71.61-1.09.41-2.24.98-3.44 1.73-1.21.75-2.32 1.57-3.32 2.46-1.4 1.23-2.62 2.58-3.66 4.05s-1.86 2.99-2.43 4.56c-.58 1.57-.87 3.02-.87 4.36 0 1.1.2 2.03.6 2.79.4.77.96 1.34 1.7 1.71.53.26 1.1.42 1.73.5.63.07 1.73.11 3.29.11h.74l1.65-3.54c.25-.55.52-1.04.79-1.44.27-.41.54-.68.81-.82s.59-.22.95-.22c.53 0 .96.17 1.32.51a1.67 1.67 0 0 1 .53 1.25c0 .38-.22 1.03-.65 1.96l-4.73 10.16c-.47.98-.86 1.63-1.19 1.96s-.78.5-1.33.5c-.53 0-.96-.17-1.32-.51a1.67 1.67 0 0 1-.53-1.25c0-.41.21-1.05.63-1.94l1.23-2.72zm17.25-16.29c.15-.02.31-.02.47-.02 1.25 0 2.25.31 3.01.94.76.62 1.14 1.44 1.14 2.44 0 .81-.25 1.6-.75 2.37-.5.76-1.4 1.75-2.69 2.95l-1.78 1.65c-.93.84-1.4 1.5-1.4 1.98 0 .29.1.51.31.68.21.16.49.25.84.25.71 0 1.72-.28 3.04-.84a26.74 26.74 0 0 0 3.92-2.05l1.44-.83c.22-.1.46-.16.72-.16.42 0 .77.15 1.05.44s.42.66.42 1.09c0 .48-.21.94-.63 1.4-.42.45-1.14.98-2.16 1.6-1.62.96-3.12 1.65-4.49 2.08s-2.73.64-4.06.64c-1.5 0-2.69-.34-3.55-1.01-.86-.68-1.3-1.59-1.3-2.75 0-1.05.46-2.1 1.37-3.15.72-.78 1.81-1.83 3.27-3.13l1.86-1.73c.2-.24.31-.5.31-.79 0-.35-.14-.59-.41-.72-.27-.14-.73-.21-1.37-.22-.32.72-.64 1.23-.97 1.53s-.74.45-1.22.45c-.5 0-.91-.15-1.23-.46s-.48-.7-.48-1.18c0-.35.19-.95.59-1.8l1.3-2.77c.45-.94.83-1.57 1.13-1.86s.71-.44 1.22-.44c.48 0 .89.15 1.22.45s.49.69.49 1.17c0 .35-.18.9-.54 1.67l-.09.13z"/><path d="M136.71 102.38c-.99.77-1.81 1.28-2.47 1.55a5.5 5.5 0 0 1-2.13.41c-1.32 0-2.37-.42-3.14-1.25-.77-.84-1.16-1.95-1.16-3.35 0-1.81.66-3.66 1.97-5.54s3.05-3.43 5.22-4.66c.72-.43 1.56-.84 2.51-1.22.95-.37 1.89-.67 2.8-.88.92-.21 1.7-.31 2.34-.31 1.37 0 2.05.54 2.05 1.62 0 .5-.17.88-.51 1.14s-.94.47-1.79.62c-1.4.26-2.62.61-3.66 1.05-1.04.45-2.05 1.03-3.03 1.75-1.22.89-2.19 1.87-2.92 2.96s-1.09 2.06-1.09 2.92c0 .47.11.84.33 1.11.22.28.51.42.89.42.54 0 1.1-.21 1.68-.64s1.28-1.13 2.11-2.11l.2-.49.67-1.51.7-1.49c.43-.93.84-1.58 1.2-1.94a1.87 1.87 0 0 1 1.36-.54c.48 0 .88.14 1.19.42.32.28.47.63.47 1.05 0 .39-.2 1-.59 1.82l-.74 1.55-.33.69-.35.71c-.37.75-.56 1.28-.56 1.58 0 .54.26.81.79.81.33 0 .75-.15 1.25-.46s1.37-.93 2.6-1.86L146 97.3c.23-.14.49-.2.76-.2.39 0 .74.14 1.05.42s.46.6.46.98c0 .92-.94 2.02-2.81 3.31-1.41.96-2.57 1.63-3.48 1.99-.91.37-1.82.55-2.74.55-1.46-.01-2.31-.66-2.53-1.97"/><path d="M152.93 89.16c.47-.47 1.1-.87 1.92-1.22.81-.35 1.54-.52 2.18-.52.93 0 1.69.27 2.26.81.58.54.87 1.25.87 2.14 0 1.13-.42 2.52-1.26 4.17l-1.02 2.01-.92 1.85c-.35.68-.52 1.16-.52 1.47 0 .51.23.77.7.77.23 0 .47-.06.74-.18a6.74 6.74 0 0 0 1.04-.61l1.8-1.37 1.64-1.18c.3-.17.62-.26.95-.26.41 0 .75.14 1.04.43s.43.63.43 1.04c0 .78-.72 1.71-2.16 2.79-2.64 2.04-4.88 3.06-6.71 3.06-1.04 0-1.89-.32-2.56-.95s-1-1.47-1-2.5c0-.54.16-1.26.47-2.16.29-.75.99-2.24 2.12-4.46.68-1.34 1.01-2.15 1.01-2.43 0-.42-.22-.63-.65-.63-.42 0-1.04.24-1.86.71s-1.62 1.06-2.4 1.75l-3.92 8.38c-.45.95-.82 1.57-1.11 1.86s-.7.44-1.23.44c-.49 0-.9-.16-1.23-.46-.32-.31-.48-.7-.48-1.18 0-.35.2-.95.61-1.82l5.2-11.15c.42-.9.79-1.51 1.1-1.82.32-.32.73-.47 1.24-.47s.92.15 1.24.44c.31.29.47.67.47 1.14v.11z"/><path d="M173.45 91.39c-1.41.38-2.76.99-4.04 1.84s-2.32 1.8-3.1 2.86-1.17 2.07-1.17 3.03c0 .45.12.81.37 1.09s.57.42.98.42c.45 0 1.02-.22 1.7-.65s1.37-1 2.06-1.69l3.2-6.9zm1.85-3.96l3.18-6.78c.45-.94.83-1.57 1.13-1.86s.71-.44 1.22-.44c.5 0 .9.15 1.23.45.32.3.49.69.49 1.17 0 .35-.2.95-.61 1.82l-7.59 16.29c-.38.81-.56 1.44-.56 1.87 0 .16.08.32.24.46s.33.21.51.21c.33 0 .71-.13 1.14-.39s1.39-.95 2.87-2.06c.6-.47 1.03-.77 1.3-.91.26-.14.53-.21.8-.21.38 0 .72.15 1.04.45s.47.64.47 1.02c0 .41-.22.87-.68 1.4-.45.53-1.16 1.12-2.12 1.8-1.38.96-2.56 1.64-3.54 2.04s-1.9.6-2.77.6c-.67 0-1.23-.16-1.65-.47-.43-.32-.75-.81-.98-1.49-1.73 1.3-3.36 1.96-4.89 1.96-1.25 0-2.26-.42-3.04-1.27s-1.17-1.96-1.17-3.32c0-1.89.63-3.73 1.89-5.51s2.96-3.28 5.1-4.49c2.11-1.24 4.45-2.02 6.99-2.34"/><path d="M183.04 94.37c-.42-.79-.63-1.56-.63-2.31 0-2.02 1.32-3.68 3.95-4.99.85-.42 1.67-.77 2.46-1.05s1.34-.42 1.67-.42c.48 0 .88.15 1.2.45a1.5 1.5 0 0 1 .48 1.15c0 .49-.21.9-.63 1.21-.27.16-1 .51-2.2 1.03l-1.55.67c-.66.3-1.13.59-1.41.88a1.37 1.37 0 0 0-.42.99c0 .24.07.52.2.85 1.53-.72 2.54-1.08 3.03-1.08.4 0 .76.16 1.08.47a1.52 1.52 0 0 1 .47 1.12c0 .39-.12.72-.35 1s-.62.53-1.16.75l-1.41.63-2.02.9c-.82.37-1.42.72-1.79 1.02-.37.31-.55.65-.55 1.02 0 .56.38.83 1.15.83.94 0 2.2-.28 3.76-.85a26.06 26.06 0 0 0 4.59-2.2c1.05-.64 1.77-.97 2.16-.97.44 0 .79.14 1.08.43.28.28.43.64.43 1.08 0 .57-.29 1.1-.88 1.61-.58.5-1.65 1.14-3.21 1.92-1.68.81-3.18 1.39-4.5 1.75-1.33.36-2.6.54-3.83.54-1.47 0-2.62-.34-3.45-1.02s-1.25-1.61-1.25-2.8c.02-1.84 1.19-3.38 3.53-4.61M43.48 77.36l-.14.02-.43.02c-2.12.22-4.1.87-5.96 1.93s-3.33 2.36-4.42 3.91-1.63 3.15-1.63 4.8c0 1.55.69 2.84 2.07 3.87.48.38.8.67.96.89s.24.5.24.84c0 .49-.19.92-.59 1.26-.39.35-.87.52-1.44.52-.49 0-1.01-.14-1.55-.42s-1.08-.69-1.62-1.23c-.69-.74-1.21-1.61-1.57-2.61-.35-1-.53-2.06-.53-3.15 0-1.8.49-3.59 1.45-5.35a15.94 15.94 0 0 1 3.92-4.67c1.64-1.35 3.52-2.42 5.63-3.21s4.27-1.18 6.48-1.18c1.2 0 2.11.2 2.73.61s.92 1 .92 1.78c0 .63-.31 1.6-.92 2.91l-.12.27-.15.32-10.45 22.39c-.44.96-.83 1.61-1.18 1.96s-.8.52-1.34.52c-.53 0-.97-.17-1.32-.51a1.67 1.67 0 0 1-.53-1.25c0-.41.21-1.06.63-1.96l10.86-23.28zm6.38 15.2l-.43.9c-.44.92-.81 1.53-1.12 1.83-.31.31-.72.46-1.23.46-.5 0-.91-.15-1.23-.46s-.48-.7-.48-1.18c0-.35.2-.95.61-1.8l2.66-5.72.81-1.58c.19-.3.4-.51.62-.62s.5-.17.84-.17c.53 0 .95.14 1.27.44.32.29.48.69.48 1.2 0 .21-.02.37-.07.49l-.27.95c-.08.22-.11.49-.11.79a3.98 3.98 0 0 0 .19 1.22c.13.41.42 1.13.89 2.16l1.26 3.09c.43 1.22.65 2.28.65 3.18 0 1.2-.29 2.31-.87 3.34-.58 1.02-1.37 1.82-2.38 2.4s-2.12.87-3.33.87c-1.08 0-2.1-.24-3.05-.73s-1.73-1.14-2.32-1.96-.89-1.66-.89-2.53c0-.63.18-1.14.55-1.54s.84-.6 1.41-.6c.77 0 1.28.38 1.55 1.15l.34.95c.44 1.22 1.2 1.83 2.28 1.83.86 0 1.56-.29 2.11-.87s.82-1.28.82-2.11c0-.7-.41-2.09-1.22-4.14l-.34-1.24"/><path d="M57.72 97.13l7.7-16.49c.45-.95.83-1.57 1.13-1.86s.71-.44 1.22-.44c.5 0 .91.15 1.23.45s.48.69.48 1.17c0 .39-.2 1-.61 1.83l-7.75 16.65c-.3.65-.45 1.11-.45 1.4 0 .48.23.72.7.72.37 0 .82-.16 1.34-.46.52-.31 1.28-.85 2.28-1.63l1.6-1.16c.36-.2.67-.31.92-.31.41 0 .75.14 1.04.43s.43.64.43 1.06c0 .73-.7 1.67-2.1 2.79-2.55 2.04-4.81 3.06-6.76 3.06-1.05 0-1.9-.32-2.56-.95-.65-.63-.98-1.44-.98-2.43 0-.5.09-1.04.26-1.62.18-.59.47-1.32.88-2.21"/><path d="M74.41 102.38c-.99.77-1.81 1.28-2.47 1.55a5.5 5.5 0 0 1-2.13.41c-1.32 0-2.37-.42-3.14-1.25-.77-.84-1.16-1.95-1.16-3.35 0-1.81.66-3.66 1.97-5.54s3.05-3.43 5.22-4.66c.72-.43 1.56-.84 2.51-1.22.95-.37 1.89-.67 2.8-.88.92-.21 1.7-.31 2.34-.31 1.37 0 2.05.54 2.05 1.62 0 .5-.17.88-.51 1.14s-.94.47-1.79.62c-1.4.26-2.62.61-3.66 1.05-1.04.45-2.05 1.03-3.03 1.75-1.22.89-2.19 1.87-2.92 2.96s-1.09 2.06-1.09 2.92c0 .47.11.84.33 1.11.22.28.51.42.89.42.54 0 1.1-.21 1.68-.64s1.28-1.13 2.11-2.11l.2-.49.67-1.51.7-1.49c.43-.93.84-1.58 1.2-1.94a1.87 1.87 0 0 1 1.36-.54c.48 0 .88.14 1.19.42.32.28.47.63.47 1.05 0 .39-.2 1-.59 1.82l-.74 1.55-.33.69-.35.71c-.37.75-.56 1.28-.56 1.58 0 .54.26.81.79.81.33 0 .75-.15 1.25-.46s1.37-.93 2.6-1.86l1.43-1.01a1.43 1.43 0 0 1 .75-.2c.39 0 .74.14 1.05.42s.46.6.46.98c0 .92-.94 2.02-2.81 3.31-1.41.96-2.57 1.63-3.48 1.99-.91.37-1.82.55-2.74.55-1.45-.01-2.3-.66-2.52-1.97m.86 28.31c-.67.37-1.32.84-1.92 1.42-.61.58-1.1 1.19-1.49 1.81-.39.63-.58 1.16-.58 1.59 0 .73.45 1.1 1.35 1.1.52 0 1.18-.14 2-.4a16.2 16.2 0 0 0 2.32-.91l1.43-.7c.51-.25.91-.37 1.2-.37a.89.89 0 0 1 .68.29c.17.19.26.43.26.71 0 .4-.21.78-.64 1.14s-1.18.8-2.25 1.3c-.98.45-1.9.78-2.75 1.01-.85.22-1.66.33-2.41.33-.78 0-1.46-.12-2.03-.37s-1-.61-1.3-1.1c-.29-.49-.44-1.07-.44-1.74 0-.63.14-1.28.43-1.97s.71-1.37 1.26-2.06c.56-.68 1.19-1.3 1.91-1.86a10.84 10.84 0 0 1 2.48-1.51c.87-.38 1.61-.57 2.22-.57.39 0 .7.1.93.31.23.2.35.47.35.8 0 .2-.06.48-.18.84l-.28.71-.49 1.07-.31.67c-.29.61-.66.91-1.12.91-.32 0-.58-.1-.78-.28a.93.93 0 0 1-.31-.7c.01-.34.16-.83.46-1.47"/><path d="M84.2 137.72c-.65.51-1.2.85-1.63 1.03s-.9.27-1.41.27c-.88 0-1.57-.28-2.08-.83s-.77-1.29-.77-2.21c0-1.2.43-2.42 1.3-3.66s2.02-2.27 3.45-3.08c.48-.29 1.03-.55 1.66-.8s1.25-.44 1.85-.58c.61-.14 1.12-.21 1.55-.21.9 0 1.36.36 1.36 1.07 0 .33-.11.58-.34.75-.22.17-.62.31-1.18.41-.92.17-1.73.4-2.42.69s-1.36.68-2 1.15c-.8.59-1.45 1.24-1.93 1.96s-.72 1.36-.72 1.93c0 .31.07.55.21.74.14.18.34.28.59.28.36 0 .73-.14 1.11-.43.38-.28.85-.75 1.39-1.39l.13-.33.45-1 .46-.98c.29-.62.55-1.04.8-1.28a1.22 1.22 0 0 1 .9-.36c.32 0 .58.09.79.28.21.18.31.41.31.69 0 .26-.13.66-.39 1.21l-.49 1.03-.22.45-.23.47c-.25.49-.37.84-.37 1.04 0 .36.17.53.52.53.22 0 .49-.1.83-.31.33-.2.91-.61 1.72-1.23l.95-.67c.15-.09.32-.14.5-.14.26 0 .49.09.69.28.2.18.31.4.31.65 0 .61-.62 1.34-1.86 2.19-.93.64-1.7 1.08-2.3 1.32s-1.2.37-1.81.37c-.97-.01-1.53-.44-1.68-1.3"/><path d="M94.33 132.16l-3.84 8.25-.57 1.29c-.07.2-.11.37-.11.5 0 .3.14.45.43.45.48 0 1.12-.45 1.94-1.34.8-.9 1.45-1.96 1.94-3.16s.74-2.34.74-3.4c0-.44-.04-.86-.12-1.26-.09-.41-.22-.85-.41-1.33m-.72-4.12l2.17-4.69c.29-.62.54-1.02.75-1.22s.48-.3.82-.3c.33 0 .6.1.81.3s.32.46.32.78c0 .24-.13.64-.4 1.21l-1.83 3.93h2.65c.65 0 1.1.08 1.36.23s.39.41.39.78c0 .5-.22.85-.65 1.06-.23.11-.67.16-1.34.16h-2.47c.79 1.5 1.19 3.02 1.19 4.56 0 1.22-.22 2.45-.67 3.68s-1.03 2.33-1.76 3.3c-.72.97-1.55 1.75-2.47 2.35-.92.59-1.82.89-2.72.89-.74 0-1.36-.23-1.84-.68s-.72-1.03-.72-1.72c0-.35.06-.69.16-1.04.11-.34.34-.91.7-1.69l4.51-9.65h-.85c-.63 0-1.06-.06-1.28-.19a.92.92 0 0 1-.48-.85c0-.21.06-.41.18-.6a1.16 1.16 0 0 1 .49-.44c.24-.1.68-.15 1.34-.15h1.64zm15.35-3.89l-2.04 1.41-.37.25c-.53.37-.96.55-1.3.55-.28 0-.52-.11-.72-.34a1.18 1.18 0 0 1-.31-.8c0-.28.06-.5.19-.67.12-.17.38-.39.77-.67l2.25-1.59c.61-.44 1.07-.65 1.4-.65a1.14 1.14 0 0 1 .82.34c.24.23.36.5.36.82a1.04 1.04 0 0 1-.22.65c-.14.19-.42.42-.83.7m-7.72 9.26c-.28-.53-.42-1.04-.42-1.53 0-1.34.87-2.44 2.62-3.3a14.38 14.38 0 0 1 1.63-.69c.52-.18.89-.28 1.11-.28.32 0 .58.1.8.3.21.2.32.45.32.76a.94.94 0 0 1-.42.8c-.18.11-.66.34-1.46.69l-1.03.45c-.44.2-.75.39-.93.58s-.28.41-.28.65a1.53 1.53 0 0 0 .13.57c1.01-.48 1.68-.71 2.01-.71.27 0 .51.1.71.31.21.21.31.46.31.74a1 1 0 0 1-.23.66c-.15.18-.41.35-.77.5l-.94.42-1.34.59c-.55.25-.94.47-1.18.68-.24.2-.37.43-.37.68 0 .37.25.55.76.55.63 0 1.46-.19 2.49-.57 1.04-.38 2.05-.86 3.04-1.46.69-.43 1.17-.64 1.43-.64.29 0 .53.1.71.29.19.19.28.43.28.71 0 .38-.19.73-.58 1.07-.39.33-1.1.76-2.13 1.27-1.11.54-2.11.92-2.98 1.16-.88.24-1.73.36-2.54.36-.97 0-1.73-.22-2.28-.68-.55-.45-.83-1.07-.83-1.86.03-1.23.81-2.25 2.36-3.07m-1-19.91c-.54 1.18-1.43 2.34-2.46 3.17-.51.41-1.06.75-1.61.98s-1.1.36-1.65.39l-18.33.35 22.15-6.84c1.02-.29 2.05-.48 3.09-.58l-1.19 2.53zm51.59 19.06c-.42-.7-1.06-1.3-1.86-1.71h0l-37.59-21.44-.11-.06a20.68 20.68 0 0 0-5.32-1.72l.66-1.41c.42-.9.03-1.98-.88-2.39-.9-.42-1.97-.03-2.39.88l-1.2 2.58c-1.95 0-3.9.27-5.8.81l-.04.01-25.64 7.92h0c-.67.19-1.27.62-1.65 1.16a3.07 3.07 0 0 0-.56 1.78c0 .75.25 1.48.79 2.09a3 3 0 0 0 1 .74 3.14 3.14 0 0 0 1.29.27h.1l22-.42h.05c1.02-.05 2-.29 2.9-.67 1.35-.57 2.54-1.44 3.54-2.47s1.81-2.22 2.4-3.48l1.86-4c1.82.23 3.61.75 5.3 1.55l37.52 21.4.11.06c.25.12.36.24.44.38a.94.94 0 0 1 .13.49c0 .27-.11.56-.27.73a.69.69 0 0 1-.28.2c-.11.05-.24.08-.44.09l-31.13.09h-.04l-.02-.03-.02-.07v-.01l.03-.04 6.12-5.86c.72-.69.74-1.83.05-2.55s-1.83-.74-2.55-.05l-6.11 5.86a3.64 3.64 0 0 0-.86 1.25c-.19.46-.28.94-.28 1.41 0 .95.36 1.85 1 2.55.32.35.72.64 1.18.85.46.2.98.32 1.51.32h0 .01l31.13-.09c.68 0 1.33-.14 1.91-.4.87-.39 1.55-1.04 2-1.78s.68-1.59.68-2.45c-.03-.82-.23-1.64-.67-2.37"/></svg>