<svg xmlns="http://www.w3.org/2000/svg" xmlns:xlink="http://www.w3.org/1999/xlink" viewBox="0 0 225 67" xmlns:v="https://vecta.io/nano"><g fill="#fff"><path d="M97.37 23.31c.19-.35.42-.62.7-.8.29-.18.63-.29 1.07-.29.72 0 1.18.27 1.53.69.34.42.55 1.01.65 1.6h0a1.01 1.01 0 0 0 .07.3c.06.15.17.28.32.35.14.07.3.09.46.09h3.76c.11 0 .22-.02.32-.05a.61.61 0 0 0 .33-.3.91.91 0 0 0 .08-.39c0-.05 0-.1-.01-.15h0c-.04-1.95-.67-3.77-1.92-5.1-1.26-1.33-3.13-2.16-5.59-2.16-2.63 0-4.61.91-5.91 2.53-1.3 1.61-1.91 3.89-1.91 6.6v8.75c0 2.71.61 4.99 1.91 6.6 1.3 1.62 3.28 2.53 5.91 2.53 2.45 0 4.33-.83 5.59-2.16s1.89-3.15 1.92-5.1h0c0-.05.01-.1.01-.15 0-.17-.03-.35-.16-.51-.06-.08-.15-.14-.25-.18a.86.86 0 0 0-.32-.05h-3.76c-.11 0-.22.01-.32.04-.15.04-.3.13-.39.27-.09.13-.13.28-.15.44h0c-.1.59-.3 1.18-.65 1.6s-.81.69-1.53.69c-.44 0-.79-.1-1.07-.29-.43-.27-.74-.74-.95-1.39-.2-.64-.3-1.44-.3-2.33v-8.75c.02-1.2.18-2.23.56-2.93zm27.28-5.77c-.17-.1-.37-.13-.59-.13h-3.55c-.15 0-.28.01-.41.05a.77.77 0 0 0-.46.35c-.1.17-.13.37-.13.59v10.65 5.93c0 1.18-.16 2.22-.52 2.92-.18.35-.41.62-.69.8s-.63.28-1.07.29c-.44 0-.79-.1-1.07-.29-.43-.27-.74-.74-.95-1.39-.2-.64-.3-1.44-.3-2.33v-3.93V18.4c0-.15-.01-.28-.05-.41a.77.77 0 0 0-.35-.46c-.17-.1-.37-.13-.59-.13h-3.52c-.15 0-.28.01-.41.05a.77.77 0 0 0-.46.35c-.1.17-.13.37-.13.59v10.68 5.89c0 2.71.61 4.99 1.91 6.6 1.3 1.62 3.28 2.53 5.91 2.53 2.61 0 4.6-.91 5.9-2.53 1.3-1.61 1.92-3.89 1.92-6.6v-3.72V18.4c0-.15-.01-.28-.05-.41a.65.65 0 0 0-.34-.45zm15.3 12.41c1.34-1.03 2.48-2.95 2.48-5.34v-.41c0-1.86-.67-3.55-1.84-4.79-1.16-1.23-2.83-2-4.78-2h-6.86c-.15 0-.28.01-.41.05a.77.77 0 0 0-.46.35c-.1.17-.13.37-.13.59v24.4c0 .15.01.28.05.41a.77.77 0 0 0 .35.46c.17.1.37.13.59.13h6.96c2.18 0 3.97-.78 5.2-2.07 1.23-1.3 1.9-3.1 1.9-5.12v-.52c0-1.4-.32-2.73-.91-3.84-.51-.97-1.24-1.78-2.14-2.3zm-2.93-4.79c0 .79-.23 1.39-.57 1.78-.35.39-.81.6-1.36.6h-1.24c-.12 0-.2-.01-.26-.02-.04-.01-.06-.02-.07-.03s-.02-.01-.03-.06c-.02-.05-.03-.14-.03-.27v-4.27a2.87 2.87 0 0 1 .02-.35c.01-.06.03-.09.04-.11.02-.02.01-.02.06-.04.04-.02.13-.03.27-.03h1.24c.57 0 1.04.21 1.38.6s.56.99.56 1.78v.42zm-3.56 7.72c0-.12.01-.2.02-.26.01-.04.02-.06.03-.07s.01-.02.06-.03c.05-.02.14-.03.27-.03h1.28c.71 0 1.29.24 1.71.7.41.46.68 1.18.68 2.16v.62c0 .97-.27 1.68-.69 2.15s-1 .71-1.69.72h-1.28c-.12 0-.2-.01-.26-.02-.04-.01-.06-.02-.07-.03s-.02-.01-.03-.06c-.02-.05-.03-.14-.03-.27v-5.58zm27.95 9.89l-5.82-24.47h0c-.04-.16-.09-.3-.15-.42-.1-.18-.26-.33-.45-.39-.18-.07-.38-.08-.6-.08h-2.79c-.15 0-.28.01-.41.03-.19.03-.38.12-.52.28s-.21.35-.27.59h0l-5.82 24.47h0a1.15 1.15 0 0 0-.04.31c0 .11.02.23.07.33.07.15.2.26.34.31.14.06.28.08.42.08h3.62a1.37 1.37 0 0 0 .36-.04c.18-.04.35-.14.47-.29s.2-.34.26-.57h0l.65-2.96c.02-.09.05-.15.06-.19l.03-.04c.01-.01.02-.02.08-.03.05-.01.14-.02.26-.02h3.69l.24.01c.04.01.06.01.08.02s.02.01.04.04.05.1.07.2l.65 2.96h0c.04.15.09.29.15.4a.84.84 0 0 0 .4.39c.17.08.35.1.54.1h3.62c.19 0 .38-.03.55-.15.08-.06.16-.14.2-.24.05-.1.07-.21.07-.33-.01-.09-.03-.19-.05-.3h0zm-8.4-14.92l1.35 6.79v.03.04h0-.01-2.69-.02l.01-.03v-.01l1.36-6.82zm16.04-4.54c.19-.35.42-.62.7-.8.29-.18.63-.29 1.07-.29.72 0 1.18.27 1.53.69.34.42.55 1.01.65 1.6h0a1.01 1.01 0 0 0 .07.3c.06.15.17.28.32.35.14.07.3.09.46.09h3.76c.11 0 .22-.02.32-.05a.61.61 0 0 0 .33-.3.91.91 0 0 0 .08-.39c0-.05 0-.1-.01-.15h0c-.04-1.95-.67-3.77-1.92-5.1-1.26-1.33-3.13-2.16-5.59-2.16-2.63 0-4.61.91-5.91 2.53-1.3 1.61-1.91 3.89-1.91 6.6v8.75c0 2.71.61 4.99 1.91 6.6 1.3 1.62 3.28 2.53 5.91 2.53 2.45 0 4.33-.83 5.59-2.16s1.89-3.15 1.92-5.1h0c0-.05.01-.1.01-.15 0-.17-.03-.35-.16-.51-.06-.08-.15-.14-.25-.18a.86.86 0 0 0-.32-.05h-3.76c-.11 0-.22.01-.32.04-.15.04-.3.13-.39.27-.09.13-.13.28-.15.44h0c-.1.59-.3 1.18-.65 1.6s-.81.69-1.53.69c-.44 0-.79-.1-1.07-.29-.43-.27-.74-.74-.95-1.39-.2-.64-.3-1.44-.3-2.33v-8.75c.02-1.2.19-2.23.56-2.93zm27.72 19.46l-5.82-24.47h0c-.04-.16-.09-.3-.15-.42-.1-.18-.26-.33-.45-.39-.18-.07-.38-.08-.6-.08h-2.79c-.15 0-.28.01-.41.03-.19.03-.38.12-.52.28s-.21.35-.27.59h0l-5.82 24.47h0a1.15 1.15 0 0 0-.04.31c0 .11.02.23.07.33.07.15.2.26.34.31.14.06.28.08.42.08h3.62a1.37 1.37 0 0 0 .36-.04c.18-.04.35-.14.47-.29s.2-.34.26-.57h0l.65-2.96c.02-.09.05-.15.06-.19l.03-.04c.01-.01.02-.02.08-.03.05-.01.14-.02.26-.02h3.69l.24.01c.04.01.06.01.08.02s.02.01.04.04.05.1.07.2l.65 2.96v.01c.04.15.09.29.15.4a.84.84 0 0 0 .4.39c.17.08.35.1.54.1H196c.19 0 .38-.03.55-.15.08-.06.16-.14.2-.24.05-.1.07-.21.07-.33-.01-.1-.03-.2-.05-.31h0zm-8.4-14.92l1.35 6.79v.03.04h0-.01-2.69-.02l.01-.03v-.01l1.36-6.82zm22.06-10.31c-.17-.1-.37-.13-.59-.13h-9.96c-.15 0-.28.01-.41.05a.77.77 0 0 0-.46.35c-.1.17-.13.37-.13.59v24.4c0 .15.01.28.05.41a.77.77 0 0 0 .35.46c.17.1.37.13.59.13h3.52c.15 0 .28-.01.41-.05a.77.77 0 0 0 .46-.35c.1-.17.13-.37.13-.59v-9.55c0-.12.01-.2.02-.26.01-.04.02-.06.03-.07s.01-.02.06-.03c.05-.02.14-.03.27-.03h3.34c.15 0 .28-.01.41-.05a.77.77 0 0 0 .46-.35c.1-.17.13-.37.13-.59v-2.96c0-.15-.01-.28-.05-.41a.77.77 0 0 0-.35-.46c-.17-.1-.37-.13-.59-.13h-3.34c-.12 0-.2-.01-.26-.02-.04-.01-.06-.02-.07-.03s-.02-.01-.03-.06c-.02-.05-.03-.14-.03-.27v-4.79c0-.12.01-.2.02-.26.01-.04.02-.06.03-.07s.01-.02.06-.03c.05-.02.14-.03.27-.03h5.07c.15 0 .28-.01.41-.05a.77.77 0 0 0 .46-.35c.1-.17.13-.37.13-.59V18.4c0-.15-.01-.28-.05-.41-.06-.19-.18-.36-.36-.45zm4.12-3.6h0 0z"/><path d="M215.68 15.59h0a1.53 1.53 0 0 0 .32.38.71.71 0 0 0 .44.17c.21 0 .38-.09.57-.2h0l6.24-4.21h0c.14-.1.26-.19.35-.3a.68.68 0 0 0 .16-.42c0-.11-.03-.21-.07-.31s-.1-.2-.16-.3h0l-1.11-1.66h0c-.1-.15-.2-.27-.32-.37s-.27-.17-.44-.17c-.21 0-.39.09-.58.22h0l-6.24 4.17h0c-.15.1-.27.2-.37.32s-.17.27-.17.44c0 .21.09.39.23.59l1.15 1.65zm3 6.9c.01-.04.02-.06.03-.07s.01-.02.06-.03c.05-.02.14-.03.27-.03H224c.15 0 .28-.01.41-.05a.77.77 0 0 0 .46-.35c.1-.17.13-.37.13-.59V18.4c0-.15-.01-.28-.05-.41a.77.77 0 0 0-.35-.46c-.17-.1-.37-.13-.59-.13h-9.86c-.15 0-.28.01-.41.05a.77.77 0 0 0-.46.35c-.1.17-.13.37-.13.59v24.4c0 .15.01.28.05.41a.77.77 0 0 0 .35.46c.17.1.37.13.59.13H224c.15 0 .28-.01.41-.05a.77.77 0 0 0 .46-.35c.1-.17.13-.37.13-.59v-2.96c0-.15-.01-.28-.05-.41a.77.77 0 0 0-.35-.46c-.17-.1-.37-.13-.59-.13h-4.96c-.12 0-.2-.01-.26-.02-.04-.01-.06-.02-.07-.03s-.02-.01-.03-.06c-.02-.05-.03-.14-.03-.27v-5.2c0-.12.01-.2.02-.26.01-.04.02-.06.03-.07s.01-.02.06-.03c.05-.02.14-.03.27-.03H224c.15 0 .28-.01.41-.05a.77.77 0 0 0 .46-.35c.1-.17.13-.37.13-.59v-2.96c0-.15-.01-.28-.05-.41a.77.77 0 0 0-.35-.46c-.17-.1-.37-.13-.59-.13h-4.96c-.12 0-.2-.01-.26-.02-.04-.01-.06-.02-.07-.03s-.02-.01-.03-.06c-.02-.05-.03-.14-.03-.27v-4.79c0-.12.01-.21.02-.26z"/></g><g fill="#d59024"><path d="M92.4 66.42V52.25c0-.3.12-.42.42-.42h.54c.3 0 .4.2.46.42l3.1 11.57c.04.12.2.12.24 0l3.12-11.57c.06-.22.16-.42.46-.42h.52c.3 0 .42.12.42.42v14.18c0 .3-.12.42-.42.42h-.66c-.3 0-.42-.12-.42-.42v-8.71c0-.18-.2-.2-.24-.02l-2.3 8.75c-.08.32-.2.4-.52.4h-.14c-.32 0-.44-.08-.52-.4l-2.3-8.75c-.04-.18-.24-.16-.24.02v8.71c0 .3-.12.42-.42.42h-.68c-.3-.01-.42-.13-.42-.43z"/><use xlink:href="#B"/><use xlink:href="#C"/><path d="M123.58 67c-2 0-3.48-1.5-3.56-3.36 0-.18.02-.36.26-.36h.8c.22 0 .34.08.36.28.14 1.1.94 2.08 2.16 2.08 1.16 0 2-.88 2.02-2.12.06-3.1-5.35-5.11-5.35-8.69 0-1.8 1.34-3.16 3.16-3.16 1.84 0 3.02 1.38 3.16 2.98.02.2-.02.36-.26.36h-.82c-.22 0-.3-.06-.34-.26-.18-.98-.78-1.7-1.7-1.7-.96 0-1.7.76-1.68 1.74.08 2.52 5.35 4.83 5.35 8.63.01 2.16-1.69 3.58-3.56 3.58zm11.19-14.75v.5c0 .3-.12.42-.42.42h-1.7c-.3 0-.38.08-.38.38v12.87c0 .3-.12.42-.42.42h-.68c-.3 0-.42-.12-.42-.42V53.55c0-.3-.08-.38-.38-.38h-1.7c-.3 0-.42-.12-.42-.42v-.5c0-.3.12-.42.42-.42h5.69c.29 0 .41.12.41.42zm8.45 14.59h-.86c-.24 0-.38-.08-.46-.28l-2.24-5.81h-.04-1.18c-.3 0-.38.08-.38.38v5.29c0 .3-.12.42-.42.42h-.68c-.3 0-.42-.12-.42-.42V52.25c0-.3.12-.42.42-.42h2.66c1.9 0 3.26 1.32 3.26 3.76v1.4c0 1.76-.7 2.92-1.8 3.46l2.36 5.99c.1.24 0 .4-.22.4zm-4.79-7.47h1.1c.92 0 1.84-.68 1.84-2.34v-1.5c0-1.66-.92-2.36-1.84-2.36h-1.1c-.3 0-.38.08-.38.38V59c0 .29.08.37.38.37zM145 63.1v-7.53c0-2.52 1.28-3.9 3.34-3.9 2.04 0 3.32 1.38 3.32 3.9v7.53c0 2.52-1.28 3.9-3.32 3.9-2.06 0-3.34-1.38-3.34-3.9zm5.16 0v-7.53c0-1.68-.82-2.48-1.82-2.48s-1.82.8-1.82 2.48v7.53c0 1.68.82 2.48 1.82 2.48s1.82-.8 1.82-2.48zm7.03 3.9c-2 0-3.48-1.5-3.56-3.36 0-.18.02-.36.26-.36h.8c.22 0 .34.08.36.28.14 1.1.94 2.08 2.16 2.08 1.16 0 2-.88 2.02-2.12.06-3.1-5.35-5.11-5.35-8.69 0-1.8 1.34-3.16 3.16-3.16 1.84 0 3.02 1.38 3.16 2.98.02.2-.02.36-.26.36h-.82c-.22 0-.3-.06-.34-.26-.18-.98-.78-1.7-1.7-1.7-.96 0-1.7.76-1.68 1.74.08 2.52 5.35 4.83 5.35 8.63 0 2.16-1.7 3.58-3.56 3.58zm16.87-11.09v6.85c0 2.7-1.28 4.08-3.68 4.08h-2.64c-.3 0-.42-.12-.42-.42V52.25c0-.3.12-.42.42-.42h2.64c2.4 0 3.68 1.38 3.68 4.08zm-1.5-.1c0-1.84-.82-2.64-2.24-2.64h-1.1c-.3 0-.38.08-.38.38v11.57c0 .3.08.38.38.38h1.1c1.42 0 2.24-.8 2.24-2.64v-7.05z"/><use xlink:href="#C" x="63.5"/><path d="M189.11 65.92v.5c0 .3-.12.42-.42.42h-4.48c-.3 0-.42-.12-.42-.42V52.25c0-.3.12-.42.42-.42h.68c.3 0 .42.12.42.42v12.87c0 .3.08.38.38.38h3c.3 0 .42.12.42.42zm5.9-2.82v-7.53c0-2.52 1.28-3.9 3.34-3.9 1.9 0 3.04 1.24 3.2 3.02.02.18-.02.36-.26.36h-.84c-.22 0-.3-.06-.34-.26-.18-1-.82-1.7-1.74-1.7-1.02 0-1.84.8-1.84 2.48v7.53c0 1.68.82 2.48 1.84 2.48.92 0 1.56-.7 1.74-1.7.04-.2.12-.26.34-.26h.84c.24 0 .28.18.26.36-.16 1.78-1.3 3.02-3.2 3.02-2.06 0-3.34-1.38-3.34-3.9z"/><use xlink:href="#B" x="99.55"/><path d="M217.63 52.25v.5c0 .3-.12.42-.42.42h-2.96c-.3 0-.38.08-.38.38v4.47c0 .3.08.38.38.38h1.96c.3 0 .42.12.42.42v.5c0 .3-.12.42-.42.42h-1.96c-.3 0-.38.08-.38.38v6.31c0 .3-.12.42-.42.42h-.68c-.3 0-.42-.12-.42-.42V52.25c0-.3.12-.42.42-.42h4.44c.3 0 .42.12.42.42zm3.28 5.76c0 .3.08.38.38.38h2.94c.3 0 .42.12.42.42v.5c0 .3-.12.42-.42.42h-2.94c-.3 0-.38.08-.38.38v5.01c0 .3.08.38.38.38h2.94c.3 0 .42.12.42.42v.5c0 .3-.12.42-.42.42h-4.42c-.3 0-.42-.12-.42-.42V52.25c0-.3.12-.42.42-.42h4.42c.3 0 .42.12.42.42v.5c0 .3-.12.42-.42.42h-2.94c-.3 0-.38.08-.38.38v4.46zm3-9.45l-3.04 2.02c-.26.18-.38.12-.56-.14l-.22-.32c-.18-.26-.12-.38.14-.56l3.04-2.02c.26-.18.38-.12.56.14l.22.32c.18.26.12.38-.14.56z"/></g><path d="M82.01 37.22c-.06-.59-.21-1.19-.47-1.75-.25-.57-.62-1.09-1.03-1.53-.85-.86-1.84-1.38-2.78-1.81-3.76-1.57-7.7-2.46-11.65-2.88-3.95-.39-7.88-.62-11.84-.56-1.98.04-3.95.13-5.92.3-.98.08-1.97.19-2.95.29-.99.11-1.94.23-2.89.29-.48.03-.95.06-1.42.06-.17 0-.35-.01-.52-.01a3.69 3.69 0 0 1 .29-.13c.84-.37 1.75-.67 2.67-.96s1.86-.56 2.81-.84c.48-.15.96-.29 1.48-.5.27-.12.52-.2.92-.51.1-.09.22-.19.35-.42.07-.12.13-.26.15-.45a1.18 1.18 0 0 0-.05-.56 1.36 1.36 0 0 0-.41-.62c-.12-.11-.23-.18-.32-.23-.36-.21-.65-.29-.87-.37l-.71-.25c-.48-.17-.96-.3-1.44-.46-1.94-.56-3.94-.98-5.95-1.23-3.32-.41-6.65-.34-9.93-.09a60.73 60.73 0 0 1 7.12-1.17c3.78-.39 7.61-.51 11.41-.2a54.53 54.53 0 0 1 11.29 2.04c1.85.54 3.68 1.17 5.48 1.88 1.8.72 3.57 1.53 5.34 2.36.89.41 1.77.84 2.71 1.22.96.38 1.99.63 3.03.65 1.04.03 2.09-.17 3.04-.61.95-.43 1.8-1.15 2.3-2.09.95-1.89.87-4.05.29-5.95-.29-.96-.71-1.88-1.22-2.73s-1.11-1.64-1.78-2.4h0l-.01-.01c-1.29-1.49-2.72-2.85-4.26-4.08-1.53-1.25-3.18-2.35-4.87-3.36-1.7-1.01-3.48-1.88-5.29-2.68a58.12 58.12 0 0 0-5.61-2.06C50.9.51 42.81-.31 34.79.52c-4.01.43-8 1.26-11.85 2.63-1.93.67-3.82 1.48-5.66 2.4-1.83.95-3.61 2.02-5.3 3.25-3.36 2.46-6.39 5.53-8.58 9.27-1.09 1.86-1.97 3.89-2.53 6.02a22.64 22.64 0 0 0-.73 6.56c.15 4.44 1.73 8.75 4.13 12.31 2.41 3.59 5.57 6.52 9.03 8.85 6.95 4.67 15.01 7.14 23.09 7.99 4.05.42 8.13.44 12.17.05 4.04-.41 8.05-1.19 11.91-2.48 3.86-1.27 7.59-3 11-5.25 1.7-1.12 3.33-2.37 4.83-3.76l.55-.51c.18-.18.38-.36.56-.55a19.59 19.59 0 0 0 1.07-1.16c.68-.8 1.3-1.66 1.84-2.59a13.81 13.81 0 0 0 1.31-2.96c.33-1.05.5-2.18.38-3.37zm-38 17.94c-2.38 0-4.79-.15-7.16-.45-3.72-.48-7.34-1.34-10.74-2.57-3.58-1.28-6.83-2.94-9.67-4.95-3.14-2.22-5.63-4.72-7.4-7.42-1.95-2.93-3.05-6.17-3.19-9.37-.17-3.21.64-6.53 2.35-9.59 1.57-2.82 3.89-5.46 6.91-7.85a37.24 37.24 0 0 1 4.5-3.04 41.89 41.89 0 0 1 4.92-2.47 53.45 53.45 0 0 1 10.68-3.21 56.62 56.62 0 0 1 10.45-.98l.81.01c1.9.03 3.82.15 5.68.37a49.2 49.2 0 0 1 5.62 1.01 42.74 42.74 0 0 1 10.66 4.03c3.54 1.94 6.54 4.3 8.93 7.02l.03.03c1.35 1.56 2.26 3.14 2.7 4.69.26.91.37 1.79.33 2.62-.05.94-.26 1.77-.63 2.41-.36.62-.98 1.15-1.75 1.47-.59.25-1.25.38-1.97.38-.15 0-.29-.01-.44-.02-.82-.06-1.63-.28-2.43-.66-.66-.33-1.36-.71-2.03-1.08l-.49-.27c-2.87-1.6-6.69-3.63-10.73-5.17-3.85-1.47-7.78-2.52-11.67-3.11-2.98-.45-5.99-.67-8.95-.67-1.06 0-2.13.03-3.18.09a59.29 59.29 0 0 0-6.07.65c-2.03.33-4.04.78-5.99 1.32a52.78 52.78 0 0 0-11.35 4.67l-1.31.74-1.3.76c-.28.17-.54.33-.79.51-.29.21-.59.44-.96.82l-.06.07a3.64 3.64 0 0 0-.63.92c-.07.14-.13.3-.18.46-.06.2-.1.41-.13.61-.02.21-.03.46.01.73.03.24.09.47.17.69s.18.39.26.54c.1.16.19.27.29.4.18.2.33.35.55.51a3.09 3.09 0 0 0 .81.41c.31.1.54.13.75.14.08.01.14.01.2.01.1 0 .17-.01.25-.01l.07-.01.3-.04.05-.01c.12-.02.21-.05.27-.07.02 0 .03-.01.05-.02l5.61-2.2c1.64-.61 3.42-1.25 5.28-1.73 1.59-.42 3.34-.79 5.5-1.15 3.69-.6 6.52-.87 9.19-.87a32.98 32.98 0 0 1 2.01.06c1.52.09 3.01.28 4.45.57-1.24.42-2.52.87-3.79 1.48l-.1.05c-.46.23-.93.47-1.46.92l-.04.04c-.13.12-.32.29-.5.6-.16.27-.24.53-.25.82a1.71 1.71 0 0 0 .36 1.14c.34.41.64.53.84.61 0 0 .09.04.1.04a2.97 2.97 0 0 0 .58.14c.39.06.77.09 1.24.09.16 0 .33 0 .49-.01.55-.02 1.05-.05 1.55-.1.77-.07 1.53-.17 2.26-.27l.69-.09a73.41 73.41 0 0 1 2.86-.32c2.1-.19 3.98-.29 5.73-.29h.7c1.54 0 3.19.05 5.06.16 2.05.11 3.92.29 5.72.54 2.11.3 3.92.66 5.55 1.11.81.22 1.66.5 2.67.87.72.27 1.67.64 2.54 1.07.88.44 1.49.87 1.88 1.31s.59.98.63 1.65c.03.64-.1 1.4-.38 2.19-.26.72-.64 1.47-1.13 2.21-.46.69-1 1.37-1.62 2.02a16.42 16.42 0 0 1-.94.92c-.12.11-.23.21-.35.31l-.15.13-.54.45a34.14 34.14 0 0 1-4.52 3.14 41.62 41.62 0 0 1-4.96 2.46c-1.64.69-3.4 1.31-5.25 1.84-4.76 1.35-9.79 2.04-14.91 2.04z" fill="#fff"/><defs ><path id="B" d="M106.45 52.23c.06-.34.2-.4.52-.4h.56c.32 0 .44.06.52.4l3 14.22c.06.3-.08.4-.3.4h-.74c-.26 0-.38-.1-.44-.4l-.62-2.94c-.06-.24-.14-.28-.4-.28h-2.6c-.26 0-.36.04-.4.28l-.62 2.94c-.06.3-.18.4-.44.4h-.74c-.22 0-.36-.1-.3-.4l3-14.22zm-.4 9.65h2.4c.12 0 .18-.06.16-.22l-1.24-6.43c-.04-.14-.22-.14-.24 0l-1.24 6.43c-.04.16.06.22.16.22z"/><path id="C" d="M114.32 58.01c0 .3.08.38.38.38h2.94c.3 0 .42.12.42.42v.5c0 .3-.12.42-.42.42h-2.94c-.3 0-.38.08-.38.38v5.01c0 .3.08.38.38.38h2.94c.3 0 .42.12.42.42v.5c0 .3-.12.42-.42.42h-4.42c-.3 0-.42-.12-.42-.42V52.25c0-.3.12-.42.42-.42h4.42c.3 0 .42.12.42.42v.5c0 .3-.12.42-.42.42h-2.94c-.3 0-.38.08-.38.38v4.46z"/></defs></svg>