<svg xmlns="http://www.w3.org/2000/svg" viewBox="0 0 215 215" xmlns:v="https://vecta.io/nano"><path d="M160.68 160.68l-3.86-1.38-3.28 1.62-3.29-1.62-3.28 1.62-3.29-1.62-3.29 1.62-3.28-1.62-3.29 1.62-3.29-1.62-3.28 1.62-3.29-1.62-3.29 1.62-3.28-1.62-3.29 1.62-3.28-1.62-3.28 1.62-3.29-1.62-3.29 1.62-3.28-1.62-3.29 1.62-3.29-1.62-3.29 1.62-3.29-1.62-3.29 1.62-3.29-1.62-3.29 1.62-3.29-1.62-3.29 1.62-3.29-1.62-3.29 1.62-3.3-1.62-3.87 1.38 1.38-3.86-1.62-3.28 1.62-3.29-1.62-3.28 1.62-3.29-1.62-3.29 1.62-3.28-1.62-3.29 1.62-3.29-1.62-3.28 1.62-3.29-1.62-3.29 1.62-3.28-1.62-3.29 1.62-3.28-1.62-3.28 1.62-3.29-1.62-3.29 1.62-3.28-1.62-3.29 1.62-3.29-1.62-3.29 1.62-3.29-1.62-3.29 1.62-3.29-1.62-3.29 1.62-3.29-1.62-3.29 1.62-3.29-1.62-3.29 1.62-3.3-1.38-3.87 3.86 1.38 3.28-1.62 3.29 1.62 3.28-1.62 3.29 1.62 3.29-1.62 3.28 1.62 3.29-1.62 3.29 1.62 3.28-1.62 3.29 1.62 3.29-1.62 3.28 1.62 3.29-1.62 3.28 1.62 3.28-1.62 3.29 1.62 3.29-1.62 3.28 1.62 3.29-1.62 3.29 1.62 3.29-1.62 3.29 1.62 3.29-1.62 3.29 1.62 3.29-1.62 3.29 1.62 3.29-1.62 3.29 1.62 3.29-1.62 3.3 1.62 3.87-1.38-1.38 3.86 1.62 3.28-1.62 3.29 1.62 3.28-1.62 3.29 1.62 3.29-1.62 3.28 1.62 3.29-1.62 3.29 1.62 3.28-1.62 3.29 1.62 3.29-1.62 3.28 1.62 3.29-1.62 3.28 1.62 3.28-1.62 3.29 1.62 3.29-1.62 3.28 1.62 3.29-1.62 3.29 1.62 3.29-1.62 3.29 1.62 3.29-1.62 3.29 1.62 3.29-1.62 3.29 1.62 3.29-1.62 3.29 1.62 3.29-1.62 3.36z" fill="#80bc00"/><g fill="#fff"><path d="M64.94 122.52h5.52c.6 0 1.18.06 1.74.17.56.15 1.12.45 1.69.9.48.34.87.83 1.17 1.46.31.61.47 1.34.47 2.18 0 1.13-.4 2.16-1.19 3.09-.82.98-2.01 1.48-3.58 1.51h-3.51v5.95h-2.31v-15.26zm2.31 7.11h3.42c.86-.01 1.5-.28 1.93-.8.41-.5.62-1.06.62-1.67 0-.51-.08-.94-.25-1.29a1.92 1.92 0 0 0-.73-.74c-.47-.3-1.03-.44-1.65-.43h-3.34v4.93zm10.39-7.11h5.95c1.27 0 2.3.34 3.11 1 .97.76 1.47 1.84 1.52 3.25-.03 2.07-1.01 3.48-2.95 4.22l3.53 6.77h-2.75l-3.15-6.52h-2.95v6.52h-2.31v-15.24zm2.31 6.69h3.49c.86-.01 1.51-.27 1.95-.75.42-.45.64-1.01.64-1.67-.01-.8-.27-1.37-.76-1.73-.39-.31-.96-.47-1.69-.47h-3.62v4.62zm10.23.94l.16-3.56c.11-.6.28-1.08.51-1.45.37-.7.96-1.33 1.78-1.88.8-.56 1.8-.84 3-.86 1.21.01 2.22.3 3.03.86.8.55 1.38 1.18 1.74 1.88.26.37.44.85.53 1.45s.14 1.79.14 3.56l-.14 3.54c-.1.61-.28 1.1-.53 1.47-.36.71-.93 1.32-1.74 1.86-.81.56-1.82.85-3.03.88-1.2-.03-2.2-.32-3-.88-.82-.54-1.41-1.16-1.78-1.86l-.3-.66c-.08-.22-.15-.49-.21-.81-.11-.62-.16-1.8-.16-3.54m2.32 0c0 1.5.06 2.51.17 3.04.1.53.3.96.6 1.29.24.31.56.57.96.76.39.23.86.34 1.4.34.55 0 1.03-.11 1.43-.34.38-.19.69-.45.92-.76.3-.33.51-.76.62-1.29.1-.53.16-1.54.16-3.04s-.05-2.52-.16-3.07c-.11-.51-.32-.94-.62-1.27-.23-.31-.54-.57-.92-.78-.4-.2-.88-.31-1.43-.32-.54.01-1.01.12-1.4.32-.4.21-.72.47-.96.78-.3.33-.5.75-.6 1.27-.11.55-.17 1.57-.17 3.07m11.27-7.63h5.33c2.06.01 3.61.87 4.64 2.57.37.57.6 1.17.7 1.8.08.63.12 1.71.12 3.25 0 1.64-.06 2.78-.18 3.43-.06.33-.14.62-.25.88-.12.25-.26.51-.43.78-.45.72-1.07 1.31-1.86 1.78-.79.5-1.75.75-2.9.75h-5.18v-15.24zm2.31 13.07h2.76c1.3 0 2.24-.44 2.82-1.33.26-.33.42-.74.49-1.24.06-.49.09-1.42.09-2.78l-.09-2.84c-.08-.57-.28-1.04-.6-1.39-.64-.89-1.55-1.32-2.72-1.29h-2.76v10.87zm11.18-13.07h2.31v15.25h-2.31zm10.47 6.85h5.42v3.11c-.03 1.53-.55 2.81-1.57 3.84-1.03 1.02-2.31 1.55-3.87 1.58-1.2-.03-2.2-.32-3-.88-.81-.54-1.41-1.16-1.78-1.86l-.3-.66c-.08-.22-.15-.49-.21-.82-.1-.61-.16-1.79-.16-3.54l.16-3.56c.11-.6.28-1.08.51-1.45.37-.7.96-1.33 1.78-1.88.8-.56 1.8-.84 3-.86 1.47.01 2.67.45 3.6 1.31s1.51 1.94 1.76 3.21h-2.45a3.35 3.35 0 0 0-1.03-1.57c-.52-.41-1.14-.62-1.88-.64-.54.01-1.01.12-1.4.32-.4.21-.72.47-.96.78-.3.33-.5.75-.6 1.27-.11.54-.17 1.57-.17 3.06 0 1.5.06 2.51.17 3.04.1.53.3.96.6 1.29.24.31.56.57.96.76.39.23.86.34 1.4.34.9 0 1.64-.31 2.23-.92.59-.59.88-1.36.9-2.31v-.79h-3.11v-2.17zm8.11-6.85h2.31v15.25h-2.31zm5 7.63l.16-3.56c.11-.6.28-1.08.51-1.45.37-.7.96-1.33 1.78-1.88.8-.56 1.8-.84 3-.86 1.21.01 2.22.3 3.03.86.8.55 1.38 1.18 1.74 1.88.26.37.44.85.53 1.45s.14 1.79.14 3.56l-.14 3.54c-.1.61-.28 1.1-.53 1.47-.36.71-.93 1.32-1.74 1.86-.81.56-1.82.85-3.03.88-1.2-.03-2.2-.32-3-.88-.81-.54-1.41-1.16-1.78-1.86l-.3-.66c-.08-.22-.15-.49-.21-.81-.1-.62-.16-1.8-.16-3.54m2.33 0c0 1.5.06 2.51.17 3.04.1.53.3.96.6 1.29.24.31.56.57.96.76.39.23.86.34 1.4.34.55 0 1.03-.11 1.43-.34.38-.19.69-.45.92-.76.3-.33.51-.76.62-1.29.1-.53.16-1.54.16-3.04s-.05-2.52-.16-3.07c-.11-.51-.32-.94-.62-1.27-.23-.31-.54-.57-.92-.78-.4-.2-.88-.31-1.43-.32-.54.01-1.01.12-1.4.32-.4.21-.72.47-.96.78-.3.33-.5.75-.6 1.27-.12.55-.17 1.57-.17 3.07m-63.5 18.12c-.16.68-.47 1.21-.92 1.58-.47.36-1.02.55-1.66.55-.58-.01-1.06-.15-1.45-.42-.39-.26-.68-.56-.86-.9l-.15-.32a2.43 2.43 0 0 1-.1-.39c-.05-.3-.08-.86-.08-1.71l.08-1.72c.05-.29.14-.52.25-.7.18-.34.47-.64.86-.91s.87-.41 1.45-.42c.71.01 1.29.22 1.74.63.45.42.73.93.85 1.55H78.5a1.67 1.67 0 0 0-.49-.76c-.25-.2-.55-.3-.91-.31-.26.01-.49.06-.68.16a1.34 1.34 0 0 0-.46.38c-.15.16-.24.36-.29.61-.05.26-.08.76-.08 1.48s.03 1.21.08 1.47.14.46.29.62c.12.15.27.27.46.37.19.11.42.17.68.17.63 0 1.09-.34 1.4-1.01h1.17z"/><path d="M84.85 148.68h-2.79l-.57 1.65h-1.18l2.68-7.36h.93l2.68 7.36h-1.18l-.57-1.65zm-.32-.99l-1.07-3.22h-.02l-1.07 3.22h2.16zm3.47-4.73h4.71v1.06h-3.59v2.17h3.06v.99h-3.06v3.15H88zm6.18 0h4.7v1.06H95.3v2.1h3.06v.99H95.3v2.16h3.59v1.06h-4.7v-7.37zm2.61-1.87h1.39l-1.47 1.51h-.87l.95-1.51zm10.9 6.02h-2.92v3.22h-1.11v-7.37h1.11v3.16h2.92v-3.16h1.11v7.37h-1.11zm3.29-4.15h4.7v1.06h-3.58v2.1h3.06v.99h-3.06v2.16h3.58v1.06h-4.7zm6.37 0h2.87c.61 0 1.11.16 1.5.49.47.37.71.89.73 1.57-.01 1-.49 1.68-1.42 2.04l1.71 3.27h-1.33l-1.52-3.15h-1.42v3.15h-1.12v-7.37zm1.12 3.23h1.69c.42-.01.73-.13.94-.36.21-.22.31-.49.31-.81-.01-.38-.13-.66-.37-.83-.19-.15-.46-.23-.82-.23h-1.75v2.23zm5.81-3.23h2.85c.72.01 1.27.19 1.63.55.37.36.55.84.55 1.43.01.3-.07.59-.22.87a1.42 1.42 0 0 1-.33.37c-.15.12-.32.24-.54.34v.02c.4.1.7.31.91.63.19.33.29.68.29 1.07-.01.64-.21 1.14-.6 1.51-.39.39-.87.58-1.45.58h-3.1v-7.37zm1.12 1v2.11h1.61c.41 0 .71-.11.9-.32.2-.2.29-.44.29-.74a1.05 1.05 0 0 0-.29-.75c-.19-.19-.49-.29-.9-.3h-1.61zm0 3.1v2.21h1.72c.41-.01.72-.12.91-.34s.29-.47.29-.77a1.16 1.16 0 0 0-.29-.78c-.19-.21-.49-.32-.91-.33h-1.72zm9.58 1.62h-2.79l-.57 1.65h-1.18l2.68-7.36h.93l2.68 7.36h-1.18l-.57-1.65zm-.31-.99l-1.07-3.22h-.02l-1.07 3.22h2.16zm3.47-4.73h1.12v6.31h3.58v1.06h-4.7zm-22.87-45.37c5.29-5.29 7.17-12.7 5.64-19.5-.17-.73-.71-1.32-1.45-1.49-.03-.01-.05-.01-.08-.02l-.14-.03c-.06-.01-.13-.03-.19-.04-.17-.03-.34-.07-.5-.1l-.18-.03c-.22-.04-.44-.07-.66-.1l-.72-.09c-.03 0-.05 0-.08-.01-.21-.02-.41-.04-.62-.05-.04 0-.08-.01-.13-.01l-.62-.03h-.08c-.24-.01-.47-.01-.71-.01-5.38 0-10.76 2.05-14.86 6.15-.16.16-.31.32-.46.48a1.66 1.66 0 0 1-.13.14 6.14 6.14 0 0 0-.34.38c-.04.04-.07.08-.11.13l-.42.5c-.02.02-.04.05-.06.08l-.35.44c-.04.05-.07.1-.11.15-.1.14-.21.28-.31.42-.02.04-.05.07-.08.11-.12.18-.25.35-.36.53-.02.04-.05.08-.07.12a10.75 10.75 0 0 0-.28.44l-.09.15-.29.5c-.01.02-.02.03-.03.05l-.31.57c-.02.04-.04.09-.07.13-.08.15-.15.31-.23.46-.02.05-.04.09-.07.14-.18.39-.35.78-.51 1.18-.02.04-.03.09-.05.13-.07.17-.13.34-.19.51-.01.03-.02.07-.04.1l-.21.62c0 .01-.01.02-.01.03a12.69 12.69 0 0 0-.17.58l-.03.12c-.05.2-.11.39-.15.59 0 .01-.01.02-.01.03l-.15.65c0 .02-.01.04-.01.05l-.12.59c-.01.03-.01.06-.02.09a19.39 19.39 0 0 0-.19 1.3c0 .02 0 .04-.01.06l-.06.62v.05c-.04.44-.06.89-.06 1.33v.11c-.01.64.02 1.28.07 1.92.06.7.15 1.4.28 2.09v.02c.08.45.18.9.29 1.34.94 3.74 2.93 7.27 5.95 10.13h0c1.31-.23 2.61-.53 3.88-.9a18.35 18.35 0 0 1-2.07-1.78 17.84 17.84 0 0 1-3.99-6.07 20.87 20.87 0 0 0 2.24.12c5.41-.01 10.79-2.06 14.89-6.17m2.45-10.55c-.78 3.13-2.4 6-4.7 8.3a17.69 17.69 0 0 1-12.6 5.22 17.94 17.94 0 0 1-3.19-.29c-.45-2.48-.37-5.04.24-7.5a17.79 17.79 0 0 1 3.86-7.4c.01-.01.02-.02.03-.04l.33-.37.09-.09c.13-.13.25-.27.39-.4a17.69 17.69 0 0 1 12.6-5.22h.16c.11 0 .22 0 .34.01a2.26 2.26 0 0 1 .26.01c.1 0 .21.01.31.02l.44.03c.06 0 .11.01.17.02h.02c.9.09 1.62.82 1.71 1.72.17 2 .02 4.03-.46 5.98"/></g><path d="M115.27 97.59c5.29-5.29 7.17-12.7 5.64-19.5-.17-.73-.71-1.32-1.45-1.49-.03-.01-.05-.01-.08-.02l-.14-.03c-.06-.01-.13-.03-.19-.04-.17-.03-.34-.07-.5-.1l-.18-.03c-.22-.04-.44-.07-.66-.1l-.72-.09c-.03 0-.05 0-.08-.01-.21-.02-.41-.04-.62-.05-.04 0-.08-.01-.13-.01l-.62-.03h-.08c-.24-.01-.47-.01-.71-.01-5.38 0-10.76 2.05-14.86 6.15-.16.16-.31.32-.46.48a1.66 1.66 0 0 1-.13.14 6.14 6.14 0 0 0-.34.38c-.04.04-.07.08-.11.13l-.42.5c-.02.02-.04.05-.06.08l-.35.44c-.04.05-.07.1-.11.15-.1.14-.21.28-.31.42-.02.04-.05.07-.08.11-.12.18-.25.35-.36.53-.02.04-.05.08-.07.12a10.75 10.75 0 0 0-.28.44l-.09.15-.29.5c-.01.02-.02.03-.03.05l-.31.57c-.02.04-.04.09-.07.13-.08.15-.15.31-.23.46-.02.05-.04.09-.07.14-.18.39-.35.78-.51 1.18-.02.04-.03.09-.05.13-.07.17-.13.34-.19.51-.01.03-.02.07-.04.1l-.21.62c0 .01-.01.02-.01.03a12.69 12.69 0 0 0-.17.58l-.03.12c-.05.2-.11.39-.15.59 0 .01-.01.02-.01.03l-.15.65c0 .02-.01.04-.01.05l-.12.59c-.01.03-.01.06-.02.09a19.39 19.39 0 0 0-.19 1.3c0 .02 0 .04-.01.06l-.06.62v.05c-.04.44-.06.89-.06 1.33v.11c-.01.64.02 1.28.07 1.92.06.7.15 1.4.28 2.09v.02c.08.45.18.9.29 1.34.94 3.74 2.93 7.27 5.95 10.13h0c1.31-.23 2.61-.53 3.88-.9a18.35 18.35 0 0 1-2.07-1.78 17.84 17.84 0 0 1-3.99-6.07 20.87 20.87 0 0 0 2.24.12c5.41-.01 10.79-2.06 14.89-6.17zm2.45-10.55c-.78 3.13-2.4 6-4.7 8.3a17.69 17.69 0 0 1-12.6 5.22 17.94 17.94 0 0 1-3.19-.29c-.45-2.48-.37-5.04.24-7.5a17.79 17.79 0 0 1 3.86-7.4c.01-.01.02-.02.03-.04l.33-.37.09-.09c.13-.13.25-.27.39-.4a17.69 17.69 0 0 1 12.6-5.22h.16c.11 0 .22 0 .34.01.09 0 .17 0 .26.01.1 0 .21.01.31.02l.44.03c.06 0 .11.01.17.02h.02c.9.09 1.62.82 1.71 1.72.17 2 .02 4.03-.46 5.98z" fill="none" stroke="#fff" stroke-width=".55" stroke-miterlimit="10"/><path d="M108.52 68.55c12 0 21.72 9.72 21.72 21.72s-9.72 21.72-21.72 21.72-21.72-9.72-21.72-21.72 9.72-21.72 21.72-21.72m0-3.93c-14.14 0-25.64 11.5-25.64 25.64s11.5 25.64 25.64 25.64 25.64-11.5 25.64-25.64-11.5-25.64-25.64-25.64" fill="#fff"/></svg>