<svg xmlns="http://www.w3.org/2000/svg" viewBox="0 0 32 32" fill="#fff" xmlns:v="https://vecta.io/nano"><path d="M0 32V0h32v32H0zM15.81 4.03v-.04h-4.35c-.93 0-1.84.14-2.71.49C5.79 5.67 4 8.32 4 11.52v8.07l-.01.39c-.07 1.65.23 3.2 1.16 4.6 1.48 2.21 3.55 3.39 6.2 3.43h9.29c3.37-.03 6.2-2.22 7.1-5.43.3-1.06.27-2.14.26-3.22l-.02-7.75c-.01-.69-.08-1.41-.24-2.08-.71-2.98-3.46-5.31-6.51-5.46-1.79-.11-3.61-.04-5.42-.04zm9.87 11.99l-.01 4.03c-.06 1.89-.96 3.36-2.44 4.49-1.01.77-2.18 1.15-3.46 1.15-2.57 0-5.14.03-7.71-.02-1.94-.04-3.48-.92-4.63-2.5-.81-1.12-1.11-2.37-1.12-3.72l.02-7.29C6.41 9.7 7.61 7.9 9.86 6.84c.82-.39 1.69-.53 2.58-.53h7.22a5.98 5.98 0 0 1 5.59 3.74c.34.82.44 1.69.44 2.57v3.4zm-15.76-.03a6.1 6.1 0 0 0 6.04 6.1c3.39.03 6.2-2.77 6.14-6.25-.05-3.21-2.79-5.92-6.08-5.92-3.38 0-6.11 2.71-6.1 6.07zm13.86-6.03a1.68 1.68 0 0 0-1.67-1.74c-.92-.02-1.69.71-1.72 1.62-.03.97.69 1.75 1.64 1.78.96.02 1.73-.71 1.75-1.66zm-4.12 6.03c.02 2-1.63 3.66-3.65 3.67-1.99.01-3.64-1.62-3.66-3.62a3.67 3.67 0 0 1 3.65-3.7c2.01-.01 3.64 1.61 3.66 3.65z"/></svg>