<svg xmlns="http://www.w3.org/2000/svg" viewBox="0 0 215 215" fill-rule="evenodd" fill="#d7ae35" xmlns:v="https://vecta.io/nano"><path d="M.24 114.74v-.3s.07-.77.83-.67l2.21.19 1.55-.89 1.01 1.15s1.94-1.02 4.39-.94 3.42.64 3.42.64l.93-.09.09-12.47h1.06v5.3s2.59.67 4.11 2.03c1.53 1.36 2.81 5.08 2.81 5.08l191.97 1.44-191.97 1.44s-1.44 3.34-3.01 4.63c-1.57 1.3-3.92 1.85-3.92 1.85v5.37h-1.15l.01-4.89c-1.06.88-2.26 1.42-3.67 1.39-3.31-.07-5.97-3.07-6.12-6.8-.21-.03-.38-.24-.37-.5 0-.25.17-.45.38-.48h.06c.24.01.43.23.42.5 0 .25-.17.46-.38.48.51 3.3 3 5.83 6.03 5.89 1.4.03 2.6-.5 3.65-1.37v-6.75l-.96-.16s-.98.52-3.44.5c-2.45-.02-4.36-1.12-4.36-1.12l-1.04 1.1-1.52-.95-2.21.1c-.76.07-.81-.7-.81-.7h0zm28.62-9.46V79h3.67l6.46 23.22L45.48 79h3.64v26.28H47v-24.4l-6.8 24.4h-2.37l-6.85-24.4v24.4h-2.12zm26.17-10.75c0 3.24.37 5.63 1.09 7.18.73 1.55 1.86 2.33 3.39 2.33s2.66-.77 3.39-2.31 1.09-3.94 1.09-7.2c0-3.25-.36-5.65-1.09-7.19s-1.85-2.31-3.39-2.31c-1.53 0-2.66.78-3.39 2.33-.72 1.55-1.09 3.94-1.09 7.17h0zm-1.84.01c0-3.84.51-6.66 1.53-8.45 1.02-1.8 2.62-2.69 4.8-2.69s3.79.9 4.81 2.69 1.53 4.61 1.53 8.46c0 3.84-.51 6.67-1.54 8.48s-2.63 2.71-4.8 2.71-3.76-.9-4.79-2.71c-1.03-1.82-1.54-4.65-1.54-8.49h0zm16.73 10.74V83.82h2.05l8.18 18.72V83.82h1.7v21.46h-2.1l-8.13-18.36v18.36h-1.7zm19.67 0V85.54h-4.9v-1.72h11.64v1.72h-4.87v19.74h-1.87zm9.58 0V83.82h9.85v1.67h-7.91v7.75h7.09v1.65h-7.09v8.72h7.91v1.67h-9.85zm25.51-7.2c-.17 2.51-.76 4.42-1.79 5.7-1.03 1.29-2.46 1.94-4.28 1.94-2.18 0-3.78-.9-4.8-2.71s-1.53-4.63-1.53-8.48c0-3.84.51-6.66 1.53-8.45 1.02-1.8 2.62-2.69 4.8-2.69 1.81 0 3.24.59 4.29 1.76s1.6 2.8 1.65 4.88l-1.84.01c-.08-1.59-.47-2.83-1.18-3.71s-1.69-1.32-2.91-1.32c-1.52 0-2.65.77-3.37 2.31-.73 1.54-1.09 3.94-1.09 7.19 0 3.26.37 5.66 1.09 7.2.73 1.54 1.85 2.31 3.37 2.31 1.23 0 2.22-.52 2.97-1.56.74-1.03 1.17-2.51 1.29-4.41h1.8v.03zm4.04 7.2V83.82h4.21c2.32 0 4.03.43 5.12 1.3s1.63 2.22 1.63 4.06c0 1.37-.26 2.49-.79 3.34-.53.86-1.34 1.49-2.42 1.91.96.28 1.65.76 2.07 1.44.43.68.69 1.77.78 3.29l.09 1.88c.08 2.25.42 3.67 1.01 4.25h-2.08c-.35-.41-.57-1.72-.65-3.94l-.07-1.42c-.1-1.93-.4-3.18-.91-3.76-.52-.59-1.45-.88-2.8-.88h-3.38v10h-1.81v-.01zm1.82-11.57h1.84c2 0 3.41-.34 4.25-1.01s1.26-1.77 1.26-3.31c0-1.39-.4-2.4-1.2-3.03s-2.07-.95-3.83-.95h-2.33v8.3h.01zm13.43 11.57V83.82h1.81v21.46h-1.81zm5.66-6.1h1.81c.06 1.54.44 2.74 1.15 3.59s1.67 1.28 2.89 1.28c1.36 0 2.43-.38 3.21-1.15s1.17-1.82 1.17-3.17c0-.66-.11-1.22-.32-1.69-.22-.48-.57-.91-1.06-1.3-.44-.38-1.29-.8-2.55-1.27l-1.25-.49c-1.67-.7-2.86-1.51-3.56-2.43-.71-.93-1.06-2.13-1.06-3.59 0-1.61.53-2.94 1.59-3.99 1.07-1.05 2.43-1.57 4.07-1.57 1.69 0 3.02.48 3.99 1.44s1.46 2.29 1.46 3.98v.14h-1.71c-.08-1.25-.42-2.21-1.05-2.88-.62-.68-1.47-1.01-2.55-1.01-1.14 0-2.09.38-2.83 1.12-.74.75-1.12 1.7-1.12 2.86 0 .52.08 1.01.23 1.45.16.45.38.85.68 1.22.5.58 1.61 1.2 3.34 1.85l.7.28c1.74.69 2.98 1.48 3.72 2.38.73.9 1.09 2.07 1.09 3.51 0 1.87-.54 3.34-1.62 4.41-1.08 1.08-2.56 1.61-4.43 1.61-1.88 0-3.33-.57-4.36-1.7-1.03-1.15-1.58-2.77-1.63-4.88h0zm19.08 6.1V85.54h-4.9v-1.72h11.64v1.72h-4.87v19.74h-1.87zm11-10.75c0 3.24.37 5.63 1.09 7.18.73 1.55 1.86 2.33 3.39 2.33s2.66-.77 3.39-2.31 1.09-3.94 1.09-7.2c0-3.25-.36-5.65-1.09-7.19s-1.85-2.31-3.39-2.31c-1.53 0-2.65.78-3.39 2.33-.73 1.55-1.09 3.94-1.09 7.17h0zm-1.85.01c0-3.84.51-6.66 1.53-8.45 1.02-1.8 2.62-2.69 4.8-2.69s3.79.9 4.81 2.69 1.53 4.61 1.53 8.46c0 3.84-.51 6.67-1.54 8.48s-2.63 2.71-4.8 2.71-3.76-.9-4.79-2.71c-1.02-1.82-1.54-4.65-1.54-8.49h0zM61 137.31h2.09c1.95 0 3.28-.45 4.01-1.35.72-.9 1.08-2.64 1.08-5.21 0-2.59-.36-4.33-1.08-5.24s-2.06-1.36-4.01-1.36H61v13.16h0zm-1.57 1.16V123h3.76c2.43 0 4.13.57 5.12 1.72s1.49 3.15 1.49 6c0 2.84-.5 4.85-1.49 6.01s-2.7 1.74-5.12 1.74h-3.76 0zm13.39 0v-15.46h8.28v1.2h-6.64v5.59h5.96v1.18h-5.96v6.29h6.64v1.2h-8.28zm10.98 0v-15.46h1.45v14.3h6.69v1.16H83.8zm10.37 0v-15.46h8.28v1.2H95.8v5.59h5.97v1.18H95.8v6.29h6.65v1.2h-8.28zm22.29-7.66h5.39v7.66h-1.18l-.16-1.58c-.47.62-1.03 1.08-1.68 1.41s-1.36.49-2.13.49c-1.79 0-3.11-.66-3.97-1.97s-1.28-3.34-1.28-6.09c0-2.79.44-4.83 1.31-6.12s2.24-1.94 4.11-1.94c1.43 0 2.57.39 3.41 1.17s1.33 1.89 1.46 3.34h-1.53c-.13-1.05-.5-1.86-1.08-2.44-.59-.57-1.35-.86-2.29-.86-1.31 0-2.27.55-2.89 1.66-.62 1.1-.93 2.84-.93 5.19s.31 4.07.92 5.18 1.55 1.67 2.83 1.67c1.23 0 2.16-.48 2.78-1.44.62-.95.93-2.37.93-4.25h-4.02v-1.08h0z"/><path d="M110.45 130.81h-5.39v7.66h1.18l.17-1.58c.47.62 1.03 1.08 1.68 1.41s1.36.49 2.13.49c1.79 0 3.11-.66 3.97-1.97s1.28-3.34 1.28-6.09c0-2.79-.44-4.83-1.31-6.12s-2.24-1.94-4.11-1.94c-1.43 0-2.57.39-3.41 1.17s-1.33 1.89-1.46 3.34h1.53c.13-1.05.5-1.86 1.08-2.44.59-.57 1.35-.86 2.29-.86 1.31 0 2.27.55 2.89 1.66.62 1.1.93 2.84.93 5.19s-.31 4.07-.92 5.18-1.55 1.67-2.83 1.67c-1.23 0-2.16-.48-2.78-1.44-.62-.95-.93-2.37-.93-4.25h4.02v-1.08h-.01zm14.36 7.66v-15.46h8.28v1.2h-6.65v5.59h5.97v1.18h-5.97v6.29h6.65v1.2h-8.28zm10.98 0v-15.46h1.72l6.88 13.49v-13.49h1.43v15.46h-1.77l-6.83-13.23v13.23h-1.43zm15-1.16h2.09c1.95 0 3.28-.45 4-1.35s1.08-2.64 1.08-5.21c0-2.59-.36-4.33-1.08-5.24s-2.06-1.36-4-1.36h-2.09v13.16h0zm-1.58 1.16V123h3.76c2.43 0 4.13.57 5.12 1.72s1.49 3.15 1.49 6c0 2.84-.5 4.85-1.49 6.01s-2.7 1.74-5.12 1.74h-3.76 0z"/></svg>