<svg xmlns="http://www.w3.org/2000/svg" viewBox="0 0 29 29" xmlns:v="https://vecta.io/nano"><circle cx="14.5" cy="14.5" r="14.3" fill="#eeeced"/><path d="M18.3.73v7.16c.06-.04.09-.04.1-.06l4.72-4.71C21.7 2.03 20.07 1.21 18.3.73zm7.54 5.08l-4.58 4.59c-.06.06-.15.11-.18.23h7.18c-.5-1.78-1.33-3.4-2.42-4.82z" fill="#0152b3"/><path d="M23.63 3.5l-5.2 5.2c-.06.06-.13.11-.13.21v1.67l.1-.05 6.18-6.17c-.3-.3-.62-.59-.95-.86zm-6.91 9.07c-.27 0-.35-.07-.35-.34l.01-10.91V.35C15.76.26 15.14.2 14.5.2c-.66 0-1.3.06-1.94.15v.68l.01 11.2c0 .28-.07.35-.35.35-3.96-.01-7.92 0-11.88-.01-.08.62-.14 1.27-.14 1.93 0 .64.06 1.27.14 1.89l11.88-.02c.28 0 .35.07.35.34l-.01 11.08v.85c.64.09 1.28.15 1.94.15a14.46 14.46 0 0 0 1.88-.14l-.01-11.97c0-.25.06-.32.31-.32l11.14.01h.83c.08-.62.14-1.24.14-1.88 0-.66-.06-1.31-.15-1.94l-11.92.02z" fill="#d70027"/><path d="M28.27 18.31h-7.23l.09.11 4.73 4.73a14.1 14.1 0 0 0 2.41-4.84zM5.84 3.14l4.55 4.54.25.23.01-7.18c-1.77.5-3.39 1.33-4.81 2.41z" fill="#0152b3"/><path d="M3.53 5.34l5.19 5.18c.07.07.13.12.24.12h1.67l-.24-.26-2.31-2.31-3.69-3.69-.86.96z" fill="#d70027"/><path d="M.74 10.64h7.12c0-.04.01-.05 0-.06L3.14 5.84c-1.08 1.42-1.9 3.04-2.4 4.8zm2.37 12.48l4.61-4.61c.05-.05.15-.09.13-.2H.73c.49 1.77 1.3 3.39 2.38 4.81zm2.7 2.72c1.42 1.09 3.05 1.92 4.82 2.42v-7.23l-4.82 4.81zm16.86-.46l-4.37-4.37v.38 6.41l.01.47c1.78-.49 3.42-1.32 4.85-2.41-.17-.15-.33-.32-.49-.48z" fill="#0152b3"/><path d="M20.23 18.42c-.07-.07-.13-.12-.24-.12h-1.6l-.06.09c.08.06.18.11.25.18l2.76 2.75 3.28 3.28.86-.95-5.25-5.23zm-9.59-.13L9.3 19.64l-4.94 4.94.95.87 5.2-5.21c.06-.06.13-.11.13-.21v-1.74z" fill="#d70027"/></svg>